<svg xmlns="http://www.w3.org/2000/svg" xmlns:xlink="http://www.w3.org/1999/xlink" width="336" height="256" viewBox="0 0 336 256"><defs><clipPath id="a"><rect width="336" height="256" transform="translate(-14143 5514)" fill="#d68989" opacity="0.62"/></clipPath></defs><g transform="translate(14143 -5514)" clip-path="url(#a)"><g transform="translate(1154.851 1637.677)"><path d="M143.164,0A23.067,23.067,0,0,1,162.9,11.123L202.29,76.2a23.067,23.067,0,0,1,0,23.889L162.9,165.175A23.067,23.067,0,0,1,143.164,176.3h-80.7a23.067,23.067,0,0,1-19.734-11.123L3.333,100.093a23.067,23.067,0,0,1,0-23.889L42.725,11.123A23.067,23.067,0,0,1,62.459,0Z" transform="matrix(0.995, -0.105, 0.105, 0.995, -15260.009, 3960.13)" fill="#bddfb0" opacity="0.69"/><path d="M102.148,0a23.067,23.067,0,0,1,19.735,11.125l25.724,42.51a23.067,23.067,0,0,1,0,23.884l-25.724,42.51a23.067,23.067,0,0,1-19.735,11.125H48.791a23.067,23.067,0,0,1-19.735-11.125L3.332,77.519a23.067,23.067,0,0,1,0-23.884l25.724-42.51A23.067,23.067,0,0,1,48.791,0Z" transform="translate(-14989.851 3963.636) rotate(144)" fill="#fcfede" opacity="0.62"/></g></g></svg>