<svg xmlns="http://www.w3.org/2000/svg" xmlns:xlink="http://www.w3.org/1999/xlink" width="324.163" height="287.957" viewBox="0 0 324.163 287.957">
  <defs>
    <clipPath id="clip-path">
      <path id="パス_281967" data-name="パス 281967" d="M204.747,0a35.111,35.111,0,0,1,30.037,16.93l55.571,91.812a35.111,35.111,0,0,1,0,36.361l-55.571,91.812a35.111,35.111,0,0,1-30.037,16.93H90.682a35.111,35.111,0,0,1-30.037-16.93L5.074,145.1a35.111,35.111,0,0,1,0-36.361L60.645,16.93A35.111,35.111,0,0,1,90.682,0Z" transform="translate(-12079.895 -3491.253) rotate(-7)" fill="#bddfb0" opacity="0.2"/>
    </clipPath>
  </defs>
  <g id="hexagon_08" transform="translate(12079.895 3527.257)" opacity="0.74" clip-path="url(#clip-path)">
    <g id="グループ_123245" data-name="グループ 123245" transform="translate(-12154.527 -3615.995)" opacity="0.7">
      <path id="パス_281391" data-name="パス 281391" d="M7.349,0A7.349,7.349,0,1,1,0,7.349,7.349,7.349,0,0,1,7.349,0Z" transform="translate(55.525 0)" fill="#bddfb0"/>
      <path id="パス_281392" data-name="パス 281392" d="M7.349,0A7.349,7.349,0,1,1,0,7.349,7.349,7.349,0,0,1,7.349,0Z" transform="translate(308.655 0)" fill="#bddfb0"/>
      <path id="パス_281393" data-name="パス 281393" d="M7.349,0A7.349,7.349,0,1,1,0,7.349,7.349,7.349,0,0,1,7.349,0Z" transform="translate(55.525 195.972)" fill="#bddfb0"/>
      <path id="パス_281394" data-name="パス 281394" d="M7.349,0A7.349,7.349,0,1,1,0,7.349,7.349,7.349,0,0,1,7.349,0Z" transform="translate(308.655 195.972)" fill="#bddfb0"/>
      <path id="パス_281395" data-name="パス 281395" d="M7.349,0A7.349,7.349,0,1,1,0,7.349,7.349,7.349,0,0,1,7.349,0Z" transform="translate(182.09 0)" fill="#bddfb0"/>
      <path id="パス_281396" data-name="パス 281396" d="M7.349,0A7.349,7.349,0,1,1,0,7.349,7.349,7.349,0,0,1,7.349,0Z" transform="translate(435.222 0)" fill="#bddfb0"/>
      <path id="パス_281397" data-name="パス 281397" d="M7.349,0A7.349,7.349,0,1,1,0,7.349,7.349,7.349,0,0,1,7.349,0Z" transform="translate(182.09 195.972)" fill="#bddfb0"/>
      <path id="パス_281398" data-name="パス 281398" d="M7.349,0A7.349,7.349,0,1,1,0,7.349,7.349,7.349,0,0,1,7.349,0Z" transform="translate(435.222 195.972)" fill="#bddfb0"/>
      <path id="パス_281399" data-name="パス 281399" d="M7.349,0A7.349,7.349,0,1,1,0,7.349,7.349,7.349,0,0,1,7.349,0Z" transform="translate(70.224 97.986)" fill="#bddfb0"/>
      <path id="パス_281400" data-name="パス 281400" d="M7.349,0A7.349,7.349,0,1,1,0,7.349,7.349,7.349,0,0,1,7.349,0Z" transform="translate(323.354 97.986)" fill="#bddfb0"/>
      <path id="パス_281401" data-name="パス 281401" d="M7.349,0A7.349,7.349,0,1,1,0,7.349,7.349,7.349,0,0,1,7.349,0Z" transform="translate(70.224 293.958)" fill="#bddfb0"/>
      <path id="パス_281402" data-name="パス 281402" d="M7.349,0A7.349,7.349,0,1,1,0,7.349,7.349,7.349,0,0,1,7.349,0Z" transform="translate(323.354 293.958)" fill="#bddfb0"/>
      <path id="パス_281403" data-name="パス 281403" d="M7.349,0A7.349,7.349,0,1,1,0,7.349,7.349,7.349,0,0,1,7.349,0Z" transform="translate(196.789 97.986)" fill="#bddfb0"/>
      <path id="パス_281404" data-name="パス 281404" d="M7.349,0A7.349,7.349,0,1,1,0,7.349,7.349,7.349,0,0,1,7.349,0Z" transform="translate(449.919 97.986)" fill="#bddfb0"/>
      <path id="パス_281405" data-name="パス 281405" d="M7.349,0A7.349,7.349,0,1,1,0,7.349,7.349,7.349,0,0,1,7.349,0Z" transform="translate(196.789 293.958)" fill="#bddfb0"/>
      <path id="パス_281406" data-name="パス 281406" d="M7.349,0A7.349,7.349,0,1,1,0,7.349,7.349,7.349,0,0,1,7.349,0Z" transform="translate(449.919 293.958)" fill="#bddfb0"/>
      <path id="パス_281407" data-name="パス 281407" d="M7.349,0A7.349,7.349,0,1,1,0,7.349,7.349,7.349,0,0,1,7.349,0Z" transform="translate(5.716 97.986)" fill="#bddfb0"/>
      <path id="パス_281408" data-name="パス 281408" d="M7.349,0A7.349,7.349,0,1,1,0,7.349,7.349,7.349,0,0,1,7.349,0Z" transform="translate(258.846 97.986)" fill="#bddfb0"/>
      <path id="パス_281409" data-name="パス 281409" d="M7.349,0A7.349,7.349,0,1,1,0,7.349,7.349,7.349,0,0,1,7.349,0Z" transform="translate(5.716 293.958)" fill="#bddfb0"/>
      <path id="パス_281410" data-name="パス 281410" d="M7.349,0A7.349,7.349,0,1,1,0,7.349,7.349,7.349,0,0,1,7.349,0Z" transform="translate(258.846 293.958)" fill="#bddfb0"/>
      <path id="パス_281411" data-name="パス 281411" d="M7.349,0A7.349,7.349,0,1,1,0,7.349,7.349,7.349,0,0,1,7.349,0Z" transform="translate(132.281 97.986)" fill="#bddfb0"/>
      <path id="パス_281412" data-name="パス 281412" d="M7.349,0A7.349,7.349,0,1,1,0,7.349,7.349,7.349,0,0,1,7.349,0Z" transform="translate(385.411 97.986)" fill="#bddfb0"/>
      <path id="パス_281413" data-name="パス 281413" d="M7.349,0A7.349,7.349,0,1,1,0,7.349,7.349,7.349,0,0,1,7.349,0Z" transform="translate(132.281 293.958)" fill="#bddfb0"/>
      <path id="パス_281414" data-name="パス 281414" d="M7.349,0A7.349,7.349,0,1,1,0,7.349,7.349,7.349,0,0,1,7.349,0Z" transform="translate(385.411 293.958)" fill="#bddfb0"/>
      <path id="パス_281415" data-name="パス 281415" d="M7.349,0A7.349,7.349,0,1,1,0,7.349,7.349,7.349,0,0,1,7.349,0Z" transform="translate(70.224 19.597)" fill="#bddfb0"/>
      <path id="パス_281416" data-name="パス 281416" d="M7.349,0A7.349,7.349,0,1,1,0,7.349,7.349,7.349,0,0,1,7.349,0Z" transform="translate(323.354 19.597)" fill="#bddfb0"/>
      <path id="パス_281417" data-name="パス 281417" d="M7.349,0A7.349,7.349,0,1,1,0,7.349,7.349,7.349,0,0,1,7.349,0Z" transform="translate(70.224 215.569)" fill="#bddfb0"/>
      <path id="パス_281418" data-name="パス 281418" d="M7.349,0A7.349,7.349,0,1,1,0,7.349,7.349,7.349,0,0,1,7.349,0Z" transform="translate(323.354 215.569)" fill="#bddfb0"/>
      <path id="パス_281419" data-name="パス 281419" d="M7.349,0A7.349,7.349,0,1,1,0,7.349,7.349,7.349,0,0,1,7.349,0Z" transform="translate(196.789 19.597)" fill="#bddfb0"/>
      <path id="パス_281420" data-name="パス 281420" d="M7.349,0A7.349,7.349,0,1,1,0,7.349,7.349,7.349,0,0,1,7.349,0Z" transform="translate(449.919 19.597)" fill="#bddfb0"/>
      <path id="パス_281421" data-name="パス 281421" d="M7.349,0A7.349,7.349,0,1,1,0,7.349,7.349,7.349,0,0,1,7.349,0Z" transform="translate(196.789 215.569)" fill="#bddfb0"/>
      <path id="パス_281422" data-name="パス 281422" d="M7.349,0A7.349,7.349,0,1,1,0,7.349,7.349,7.349,0,0,1,7.349,0Z" transform="translate(449.919 215.569)" fill="#bddfb0"/>
      <path id="パス_281423" data-name="パス 281423" d="M7.349,0A7.349,7.349,0,1,1,0,7.349,7.349,7.349,0,0,1,7.349,0Z" transform="translate(5.716 19.597)" fill="#bddfb0"/>
      <path id="パス_281424" data-name="パス 281424" d="M7.349,0A7.349,7.349,0,1,1,0,7.349,7.349,7.349,0,0,1,7.349,0Z" transform="translate(258.846 19.597)" fill="#bddfb0"/>
      <path id="パス_281425" data-name="パス 281425" d="M7.349,0A7.349,7.349,0,1,1,0,7.349,7.349,7.349,0,0,1,7.349,0Z" transform="translate(5.716 215.569)" fill="#bddfb0"/>
      <path id="パス_281426" data-name="パス 281426" d="M7.349,0A7.349,7.349,0,1,1,0,7.349,7.349,7.349,0,0,1,7.349,0Z" transform="translate(258.846 215.569)" fill="#bddfb0"/>
      <path id="パス_281427" data-name="パス 281427" d="M7.349,0A7.349,7.349,0,1,1,0,7.349,7.349,7.349,0,0,1,7.349,0Z" transform="translate(132.281 19.597)" fill="#bddfb0"/>
      <path id="パス_281428" data-name="パス 281428" d="M7.349,0A7.349,7.349,0,1,1,0,7.349,7.349,7.349,0,0,1,7.349,0Z" transform="translate(385.411 19.597)" fill="#bddfb0"/>
      <path id="パス_281429" data-name="パス 281429" d="M7.349,0A7.349,7.349,0,1,1,0,7.349,7.349,7.349,0,0,1,7.349,0Z" transform="translate(132.281 215.569)" fill="#bddfb0"/>
      <path id="パス_281430" data-name="パス 281430" d="M7.349,0A7.349,7.349,0,1,1,0,7.349,7.349,7.349,0,0,1,7.349,0Z" transform="translate(385.411 215.569)" fill="#bddfb0"/>
      <path id="パス_281431" data-name="パス 281431" d="M7.349,0A7.349,7.349,0,1,1,0,7.349,7.349,7.349,0,0,1,7.349,0Z" transform="translate(84.921 117.583)" fill="#bddfb0"/>
      <path id="パス_281432" data-name="パス 281432" d="M7.349,0A7.349,7.349,0,1,1,0,7.349,7.349,7.349,0,0,1,7.349,0Z" transform="translate(338.052 117.583)" fill="#bddfb0"/>
      <path id="パス_281433" data-name="パス 281433" d="M7.349,0A7.349,7.349,0,1,1,0,7.349,7.349,7.349,0,0,1,7.349,0Z" transform="translate(84.921 313.555)" fill="#bddfb0"/>
      <path id="パス_281434" data-name="パス 281434" d="M7.349,0A7.349,7.349,0,1,1,0,7.349,7.349,7.349,0,0,1,7.349,0Z" transform="translate(84.921 391.944)" fill="#bddfb0"/>
      <path id="パス_281435" data-name="パス 281435" d="M7.349,0A7.349,7.349,0,1,1,0,7.349,7.349,7.349,0,0,1,7.349,0Z" transform="translate(338.052 313.555)" fill="#bddfb0"/>
      <path id="パス_281436" data-name="パス 281436" d="M7.349,0A7.349,7.349,0,1,1,0,7.349,7.349,7.349,0,0,1,7.349,0Z" transform="translate(338.052 391.944)" fill="#bddfb0"/>
      <path id="パス_281437" data-name="パス 281437" d="M7.349,0A7.349,7.349,0,1,1,0,7.349,7.349,7.349,0,0,1,7.349,0Z" transform="translate(211.486 117.583)" fill="#bddfb0"/>
      <path id="パス_281438" data-name="パス 281438" d="M7.349,0A7.349,7.349,0,1,1,0,7.349,7.349,7.349,0,0,1,7.349,0Z" transform="translate(464.617 117.583)" fill="#bddfb0"/>
      <path id="パス_281439" data-name="パス 281439" d="M7.349,0A7.349,7.349,0,1,1,0,7.349,7.349,7.349,0,0,1,7.349,0Z" transform="translate(211.486 313.555)" fill="#bddfb0"/>
      <path id="パス_281440" data-name="パス 281440" d="M7.349,0A7.349,7.349,0,1,1,0,7.349,7.349,7.349,0,0,1,7.349,0Z" transform="translate(211.486 391.944)" fill="#bddfb0"/>
      <path id="パス_281441" data-name="パス 281441" d="M7.349,0A7.349,7.349,0,1,1,0,7.349,7.349,7.349,0,0,1,7.349,0Z" transform="translate(464.617 313.555)" fill="#bddfb0"/>
      <path id="パス_281442" data-name="パス 281442" d="M7.349,0A7.349,7.349,0,1,1,0,7.349,7.349,7.349,0,0,1,7.349,0Z" transform="translate(464.617 391.944)" fill="#bddfb0"/>
      <path id="パス_281443" data-name="パス 281443" d="M7.349,0A7.349,7.349,0,1,1,0,7.349,7.349,7.349,0,0,1,7.349,0Z" transform="translate(20.413 117.583)" fill="#bddfb0"/>
      <path id="パス_281444" data-name="パス 281444" d="M7.349,0A7.349,7.349,0,1,1,0,7.349,7.349,7.349,0,0,1,7.349,0Z" transform="translate(273.545 117.583)" fill="#bddfb0"/>
      <path id="パス_281445" data-name="パス 281445" d="M7.349,0A7.349,7.349,0,1,1,0,7.349,7.349,7.349,0,0,1,7.349,0Z" transform="translate(20.413 313.555)" fill="#bddfb0"/>
      <path id="パス_281446" data-name="パス 281446" d="M7.349,0A7.349,7.349,0,1,1,0,7.349,7.349,7.349,0,0,1,7.349,0Z" transform="translate(20.413 391.944)" fill="#bddfb0"/>
      <path id="パス_281447" data-name="パス 281447" d="M7.349,0A7.349,7.349,0,1,1,0,7.349,7.349,7.349,0,0,1,7.349,0Z" transform="translate(273.545 313.555)" fill="#bddfb0"/>
      <path id="パス_281448" data-name="パス 281448" d="M7.349,0A7.349,7.349,0,1,1,0,7.349,7.349,7.349,0,0,1,7.349,0Z" transform="translate(273.545 391.944)" fill="#bddfb0"/>
      <path id="パス_281449" data-name="パス 281449" d="M7.349,0A7.349,7.349,0,1,1,0,7.349,7.349,7.349,0,0,1,7.349,0Z" transform="translate(146.979 117.583)" fill="#bddfb0"/>
      <path id="パス_281450" data-name="パス 281450" d="M7.349,0A7.349,7.349,0,1,1,0,7.349,7.349,7.349,0,0,1,7.349,0Z" transform="translate(400.11 117.583)" fill="#bddfb0"/>
      <path id="パス_281451" data-name="パス 281451" d="M7.349,0A7.349,7.349,0,1,1,0,7.349,7.349,7.349,0,0,1,7.349,0Z" transform="translate(146.979 313.555)" fill="#bddfb0"/>
      <path id="パス_281452" data-name="パス 281452" d="M7.349,0A7.349,7.349,0,1,1,0,7.349,7.349,7.349,0,0,1,7.349,0Z" transform="translate(146.979 391.944)" fill="#bddfb0"/>
      <path id="パス_281453" data-name="パス 281453" d="M7.349,0A7.349,7.349,0,1,1,0,7.349,7.349,7.349,0,0,1,7.349,0Z" transform="translate(400.11 313.555)" fill="#bddfb0"/>
      <path id="パス_281454" data-name="パス 281454" d="M7.349,0A7.349,7.349,0,1,1,0,7.349,7.349,7.349,0,0,1,7.349,0Z" transform="translate(400.11 391.944)" fill="#bddfb0"/>
      <path id="パス_281455" data-name="パス 281455" d="M7.349,0A7.349,7.349,0,1,1,0,7.349,7.349,7.349,0,0,1,7.349,0Z" transform="translate(70.224 58.791)" fill="#bddfb0"/>
      <path id="パス_281456" data-name="パス 281456" d="M7.349,0A7.349,7.349,0,1,1,0,7.349,7.349,7.349,0,0,1,7.349,0Z" transform="translate(323.354 58.791)" fill="#bddfb0"/>
      <path id="パス_281457" data-name="パス 281457" d="M7.349,0A7.349,7.349,0,1,1,0,7.349,7.349,7.349,0,0,1,7.349,0Z" transform="translate(70.224 254.764)" fill="#bddfb0"/>
      <path id="パス_281458" data-name="パス 281458" d="M7.349,0A7.349,7.349,0,1,1,0,7.349,7.349,7.349,0,0,1,7.349,0Z" transform="translate(323.354 254.764)" fill="#bddfb0"/>
      <path id="パス_281459" data-name="パス 281459" d="M7.349,0A7.349,7.349,0,1,1,0,7.349,7.349,7.349,0,0,1,7.349,0Z" transform="translate(196.789 58.791)" fill="#bddfb0"/>
      <path id="パス_281460" data-name="パス 281460" d="M7.349,0A7.349,7.349,0,1,1,0,7.349,7.349,7.349,0,0,1,7.349,0Z" transform="translate(449.919 58.791)" fill="#bddfb0"/>
      <path id="パス_281461" data-name="パス 281461" d="M7.349,0A7.349,7.349,0,1,1,0,7.349,7.349,7.349,0,0,1,7.349,0Z" transform="translate(196.789 254.764)" fill="#bddfb0"/>
      <path id="パス_281462" data-name="パス 281462" d="M7.349,0A7.349,7.349,0,1,1,0,7.349,7.349,7.349,0,0,1,7.349,0Z" transform="translate(449.919 254.764)" fill="#bddfb0"/>
      <path id="パス_281463" data-name="パス 281463" d="M7.349,0A7.349,7.349,0,1,1,0,7.349,7.349,7.349,0,0,1,7.349,0Z" transform="translate(5.716 58.791)" fill="#bddfb0"/>
      <path id="パス_281464" data-name="パス 281464" d="M7.349,0A7.349,7.349,0,1,1,0,7.349,7.349,7.349,0,0,1,7.349,0Z" transform="translate(258.846 58.791)" fill="#bddfb0"/>
      <path id="パス_281465" data-name="パス 281465" d="M7.349,0A7.349,7.349,0,1,1,0,7.349,7.349,7.349,0,0,1,7.349,0Z" transform="translate(5.716 254.764)" fill="#bddfb0"/>
      <path id="パス_281466" data-name="パス 281466" d="M7.349,0A7.349,7.349,0,1,1,0,7.349,7.349,7.349,0,0,1,7.349,0Z" transform="translate(258.846 254.764)" fill="#bddfb0"/>
      <path id="パス_281467" data-name="パス 281467" d="M7.349,0A7.349,7.349,0,1,1,0,7.349,7.349,7.349,0,0,1,7.349,0Z" transform="translate(132.281 58.791)" fill="#bddfb0"/>
      <path id="パス_281468" data-name="パス 281468" d="M7.349,0A7.349,7.349,0,1,1,0,7.349,7.349,7.349,0,0,1,7.349,0Z" transform="translate(385.411 58.791)" fill="#bddfb0"/>
      <path id="パス_281469" data-name="パス 281469" d="M7.349,0A7.349,7.349,0,1,1,0,7.349,7.349,7.349,0,0,1,7.349,0Z" transform="translate(132.281 254.764)" fill="#bddfb0"/>
      <path id="パス_281470" data-name="パス 281470" d="M7.349,0A7.349,7.349,0,1,1,0,7.349,7.349,7.349,0,0,1,7.349,0Z" transform="translate(385.411 254.764)" fill="#bddfb0"/>
      <path id="パス_281471" data-name="パス 281471" d="M7.349,0A7.349,7.349,0,1,1,0,7.349,7.349,7.349,0,0,1,7.349,0Z" transform="translate(84.921 156.778)" fill="#bddfb0"/>
      <path id="パス_281472" data-name="パス 281472" d="M7.349,0A7.349,7.349,0,1,1,0,7.349,7.349,7.349,0,0,1,7.349,0Z" transform="translate(338.052 156.778)" fill="#bddfb0"/>
      <path id="パス_281473" data-name="パス 281473" d="M7.349,0A7.349,7.349,0,1,1,0,7.349,7.349,7.349,0,0,1,7.349,0Z" transform="translate(84.921 352.75)" fill="#bddfb0"/>
      <path id="パス_281474" data-name="パス 281474" d="M7.349,0A7.349,7.349,0,1,1,0,7.349,7.349,7.349,0,0,1,7.349,0Z" transform="translate(84.921 431.139)" fill="#bddfb0"/>
      <path id="パス_281475" data-name="パス 281475" d="M7.349,0A7.349,7.349,0,1,1,0,7.349,7.349,7.349,0,0,1,7.349,0Z" transform="translate(338.052 352.75)" fill="#bddfb0"/>
      <path id="パス_281476" data-name="パス 281476" d="M7.349,0A7.349,7.349,0,1,1,0,7.349,7.349,7.349,0,0,1,7.349,0Z" transform="translate(338.052 431.139)" fill="#bddfb0"/>
      <path id="パス_281477" data-name="パス 281477" d="M7.349,0A7.349,7.349,0,1,1,0,7.349,7.349,7.349,0,0,1,7.349,0Z" transform="translate(211.486 156.778)" fill="#bddfb0"/>
      <path id="パス_281478" data-name="パス 281478" d="M7.349,0A7.349,7.349,0,1,1,0,7.349,7.349,7.349,0,0,1,7.349,0Z" transform="translate(464.617 156.778)" fill="#bddfb0"/>
      <path id="パス_281479" data-name="パス 281479" d="M7.349,0A7.349,7.349,0,1,1,0,7.349,7.349,7.349,0,0,1,7.349,0Z" transform="translate(211.486 352.75)" fill="#bddfb0"/>
      <path id="パス_281480" data-name="パス 281480" d="M7.349,0A7.349,7.349,0,1,1,0,7.349,7.349,7.349,0,0,1,7.349,0Z" transform="translate(211.486 431.139)" fill="#bddfb0"/>
      <path id="パス_281481" data-name="パス 281481" d="M7.349,0A7.349,7.349,0,1,1,0,7.349,7.349,7.349,0,0,1,7.349,0Z" transform="translate(464.617 352.75)" fill="#bddfb0"/>
      <path id="パス_281482" data-name="パス 281482" d="M7.349,0A7.349,7.349,0,1,1,0,7.349,7.349,7.349,0,0,1,7.349,0Z" transform="translate(464.617 431.139)" fill="#bddfb0"/>
      <path id="パス_281483" data-name="パス 281483" d="M7.349,0A7.349,7.349,0,1,1,0,7.349,7.349,7.349,0,0,1,7.349,0Z" transform="translate(20.413 156.778)" fill="#bddfb0"/>
      <path id="パス_281484" data-name="パス 281484" d="M7.349,0A7.349,7.349,0,1,1,0,7.349,7.349,7.349,0,0,1,7.349,0Z" transform="translate(273.545 156.778)" fill="#bddfb0"/>
      <path id="パス_281485" data-name="パス 281485" d="M7.349,0A7.349,7.349,0,1,1,0,7.349,7.349,7.349,0,0,1,7.349,0Z" transform="translate(20.413 352.75)" fill="#bddfb0"/>
      <path id="パス_281486" data-name="パス 281486" d="M7.349,0A7.349,7.349,0,1,1,0,7.349,7.349,7.349,0,0,1,7.349,0Z" transform="translate(20.413 431.139)" fill="#bddfb0"/>
      <path id="パス_281487" data-name="パス 281487" d="M7.349,0A7.349,7.349,0,1,1,0,7.349,7.349,7.349,0,0,1,7.349,0Z" transform="translate(273.545 352.75)" fill="#bddfb0"/>
      <path id="パス_281488" data-name="パス 281488" d="M7.349,0A7.349,7.349,0,1,1,0,7.349,7.349,7.349,0,0,1,7.349,0Z" transform="translate(273.545 431.139)" fill="#bddfb0"/>
      <path id="パス_281489" data-name="パス 281489" d="M7.349,0A7.349,7.349,0,1,1,0,7.349,7.349,7.349,0,0,1,7.349,0Z" transform="translate(146.979 156.778)" fill="#bddfb0"/>
      <path id="パス_281490" data-name="パス 281490" d="M7.349,0A7.349,7.349,0,1,1,0,7.349,7.349,7.349,0,0,1,7.349,0Z" transform="translate(400.11 156.778)" fill="#bddfb0"/>
      <path id="パス_281491" data-name="パス 281491" d="M7.349,0A7.349,7.349,0,1,1,0,7.349,7.349,7.349,0,0,1,7.349,0Z" transform="translate(146.979 352.75)" fill="#bddfb0"/>
      <path id="パス_281492" data-name="パス 281492" d="M7.349,0A7.349,7.349,0,1,1,0,7.349,7.349,7.349,0,0,1,7.349,0Z" transform="translate(146.979 431.139)" fill="#bddfb0"/>
      <path id="パス_281493" data-name="パス 281493" d="M7.349,0A7.349,7.349,0,1,1,0,7.349,7.349,7.349,0,0,1,7.349,0Z" transform="translate(400.11 352.75)" fill="#bddfb0"/>
      <path id="パス_281494" data-name="パス 281494" d="M7.349,0A7.349,7.349,0,1,1,0,7.349,7.349,7.349,0,0,1,7.349,0Z" transform="translate(400.11 431.139)" fill="#bddfb0"/>
      <path id="パス_281495" data-name="パス 281495" d="M7.349,0A7.349,7.349,0,1,1,0,7.349,7.349,7.349,0,0,1,7.349,0Z" transform="translate(55.525 78.389)" fill="#bddfb0"/>
      <path id="パス_281496" data-name="パス 281496" d="M7.349,0A7.349,7.349,0,1,1,0,7.349,7.349,7.349,0,0,1,7.349,0Z" transform="translate(308.655 78.389)" fill="#bddfb0"/>
      <path id="パス_281497" data-name="パス 281497" d="M7.349,0A7.349,7.349,0,1,1,0,7.349,7.349,7.349,0,0,1,7.349,0Z" transform="translate(55.525 274.361)" fill="#bddfb0"/>
      <path id="パス_281498" data-name="パス 281498" d="M7.349,0A7.349,7.349,0,1,1,0,7.349,7.349,7.349,0,0,1,7.349,0Z" transform="translate(308.655 274.361)" fill="#bddfb0"/>
      <path id="パス_281499" data-name="パス 281499" d="M7.349,0A7.349,7.349,0,1,1,0,7.349,7.349,7.349,0,0,1,7.349,0Z" transform="translate(182.09 78.389)" fill="#bddfb0"/>
      <path id="パス_281500" data-name="パス 281500" d="M7.349,0A7.349,7.349,0,1,1,0,7.349,7.349,7.349,0,0,1,7.349,0Z" transform="translate(435.222 78.389)" fill="#bddfb0"/>
      <path id="パス_281501" data-name="パス 281501" d="M7.349,0A7.349,7.349,0,1,1,0,7.349,7.349,7.349,0,0,1,7.349,0Z" transform="translate(182.09 274.361)" fill="#bddfb0"/>
      <path id="パス_281502" data-name="パス 281502" d="M7.349,0A7.349,7.349,0,1,1,0,7.349,7.349,7.349,0,0,1,7.349,0Z" transform="translate(435.222 274.361)" fill="#bddfb0"/>
      <path id="パス_281503" data-name="パス 281503" d="M7.349,0A7.349,7.349,0,1,1,0,7.349,7.349,7.349,0,0,1,7.349,0Z" transform="translate(70.224 176.375)" fill="#bddfb0"/>
      <path id="パス_281504" data-name="パス 281504" d="M7.349,0A7.349,7.349,0,1,1,0,7.349,7.349,7.349,0,0,1,7.349,0Z" transform="translate(323.354 176.375)" fill="#bddfb0"/>
      <path id="パス_281505" data-name="パス 281505" d="M7.349,0A7.349,7.349,0,1,1,0,7.349,7.349,7.349,0,0,1,7.349,0Z" transform="translate(70.224 372.347)" fill="#bddfb0"/>
      <path id="パス_281506" data-name="パス 281506" d="M7.349,0A7.349,7.349,0,1,1,0,7.349,7.349,7.349,0,0,1,7.349,0Z" transform="translate(70.224 450.736)" fill="#bddfb0"/>
      <path id="パス_281507" data-name="パス 281507" d="M7.349,0A7.349,7.349,0,1,1,0,7.349,7.349,7.349,0,0,1,7.349,0Z" transform="translate(323.354 372.347)" fill="#bddfb0"/>
      <path id="パス_281508" data-name="パス 281508" d="M7.349,0A7.349,7.349,0,1,1,0,7.349,7.349,7.349,0,0,1,7.349,0Z" transform="translate(323.354 450.736)" fill="#bddfb0"/>
      <path id="パス_281509" data-name="パス 281509" d="M7.349,0A7.349,7.349,0,1,1,0,7.349,7.349,7.349,0,0,1,7.349,0Z" transform="translate(196.789 176.375)" fill="#bddfb0"/>
      <path id="パス_281510" data-name="パス 281510" d="M7.349,0A7.349,7.349,0,1,1,0,7.349,7.349,7.349,0,0,1,7.349,0Z" transform="translate(449.919 176.375)" fill="#bddfb0"/>
      <path id="パス_281511" data-name="パス 281511" d="M7.349,0A7.349,7.349,0,1,1,0,7.349,7.349,7.349,0,0,1,7.349,0Z" transform="translate(196.789 372.347)" fill="#bddfb0"/>
      <path id="パス_281512" data-name="パス 281512" d="M7.349,0A7.349,7.349,0,1,1,0,7.349,7.349,7.349,0,0,1,7.349,0Z" transform="translate(196.789 450.736)" fill="#bddfb0"/>
      <path id="パス_281513" data-name="パス 281513" d="M7.349,0A7.349,7.349,0,1,1,0,7.349,7.349,7.349,0,0,1,7.349,0Z" transform="translate(449.919 372.347)" fill="#bddfb0"/>
      <path id="パス_281514" data-name="パス 281514" d="M7.349,0A7.349,7.349,0,1,1,0,7.349,7.349,7.349,0,0,1,7.349,0Z" transform="translate(449.919 450.736)" fill="#bddfb0"/>
      <path id="パス_281515" data-name="パス 281515" d="M7.349,0A7.349,7.349,0,1,1,0,7.349,7.349,7.349,0,0,1,7.349,0Z" transform="translate(5.716 176.375)" fill="#bddfb0"/>
      <path id="パス_281516" data-name="パス 281516" d="M7.349,0A7.349,7.349,0,1,1,0,7.349,7.349,7.349,0,0,1,7.349,0Z" transform="translate(258.846 176.375)" fill="#bddfb0"/>
      <path id="パス_281517" data-name="パス 281517" d="M7.349,0A7.349,7.349,0,1,1,0,7.349,7.349,7.349,0,0,1,7.349,0Z" transform="translate(5.716 372.347)" fill="#bddfb0"/>
      <path id="パス_281518" data-name="パス 281518" d="M7.349,0A7.349,7.349,0,1,1,0,7.349,7.349,7.349,0,0,1,7.349,0Z" transform="translate(5.716 450.736)" fill="#bddfb0"/>
      <path id="パス_281519" data-name="パス 281519" d="M7.349,0A7.349,7.349,0,1,1,0,7.349,7.349,7.349,0,0,1,7.349,0Z" transform="translate(258.846 372.347)" fill="#bddfb0"/>
      <path id="パス_281520" data-name="パス 281520" d="M7.349,0A7.349,7.349,0,1,1,0,7.349,7.349,7.349,0,0,1,7.349,0Z" transform="translate(258.846 450.736)" fill="#bddfb0"/>
      <path id="パス_281521" data-name="パス 281521" d="M7.349,0A7.349,7.349,0,1,1,0,7.349,7.349,7.349,0,0,1,7.349,0Z" transform="translate(132.281 176.375)" fill="#bddfb0"/>
      <path id="パス_281522" data-name="パス 281522" d="M7.349,0A7.349,7.349,0,1,1,0,7.349,7.349,7.349,0,0,1,7.349,0Z" transform="translate(385.411 176.375)" fill="#bddfb0"/>
      <path id="パス_281523" data-name="パス 281523" d="M7.349,0A7.349,7.349,0,1,1,0,7.349,7.349,7.349,0,0,1,7.349,0Z" transform="translate(132.281 372.347)" fill="#bddfb0"/>
      <path id="パス_281524" data-name="パス 281524" d="M7.349,0A7.349,7.349,0,1,1,0,7.349,7.349,7.349,0,0,1,7.349,0Z" transform="translate(132.281 450.736)" fill="#bddfb0"/>
      <path id="パス_281525" data-name="パス 281525" d="M7.349,0A7.349,7.349,0,1,1,0,7.349,7.349,7.349,0,0,1,7.349,0Z" transform="translate(385.411 372.347)" fill="#bddfb0"/>
      <path id="パス_281526" data-name="パス 281526" d="M7.349,0A7.349,7.349,0,1,1,0,7.349,7.349,7.349,0,0,1,7.349,0Z" transform="translate(385.411 450.736)" fill="#bddfb0"/>
      <path id="パス_281527" data-name="パス 281527" d="M7.349,0A7.349,7.349,0,1,1,0,7.349,7.349,7.349,0,0,1,7.349,0Z" transform="translate(57.159 39.194)" fill="#bddfb0"/>
      <path id="パス_281528" data-name="パス 281528" d="M7.349,0A7.349,7.349,0,1,1,0,7.349,7.349,7.349,0,0,1,7.349,0Z" transform="translate(310.289 39.194)" fill="#bddfb0"/>
      <path id="パス_281529" data-name="パス 281529" d="M7.349,0A7.349,7.349,0,1,1,0,7.349,7.349,7.349,0,0,1,7.349,0Z" transform="translate(57.159 235.167)" fill="#bddfb0"/>
      <path id="パス_281530" data-name="パス 281530" d="M7.349,0A7.349,7.349,0,1,1,0,7.349,7.349,7.349,0,0,1,7.349,0Z" transform="translate(310.289 235.167)" fill="#bddfb0"/>
      <path id="パス_281531" data-name="パス 281531" d="M7.349,0A7.349,7.349,0,1,1,0,7.349,7.349,7.349,0,0,1,7.349,0Z" transform="translate(183.724 39.194)" fill="#bddfb0"/>
      <path id="パス_281532" data-name="パス 281532" d="M7.349,0A7.349,7.349,0,1,1,0,7.349,7.349,7.349,0,0,1,7.349,0Z" transform="translate(436.854 39.194)" fill="#bddfb0"/>
      <path id="パス_281533" data-name="パス 281533" d="M7.349,0A7.349,7.349,0,1,1,0,7.349,7.349,7.349,0,0,1,7.349,0Z" transform="translate(183.724 235.167)" fill="#bddfb0"/>
      <path id="パス_281534" data-name="パス 281534" d="M7.349,0A7.349,7.349,0,1,1,0,7.349,7.349,7.349,0,0,1,7.349,0Z" transform="translate(436.854 235.167)" fill="#bddfb0"/>
      <path id="パス_281535" data-name="パス 281535" d="M7.349,0A7.349,7.349,0,1,1,0,7.349,7.349,7.349,0,0,1,7.349,0Z" transform="translate(71.856 137.181)" fill="#bddfb0"/>
      <path id="パス_281536" data-name="パス 281536" d="M7.349,0A7.349,7.349,0,1,1,0,7.349,7.349,7.349,0,0,1,7.349,0Z" transform="translate(324.988 137.181)" fill="#bddfb0"/>
      <path id="パス_281537" data-name="パス 281537" d="M7.349,0A7.349,7.349,0,1,1,0,7.349,7.349,7.349,0,0,1,7.349,0Z" transform="translate(71.856 333.152)" fill="#bddfb0"/>
      <path id="パス_281538" data-name="パス 281538" d="M7.349,0A7.349,7.349,0,1,1,0,7.349,7.349,7.349,0,0,1,7.349,0Z" transform="translate(71.856 411.542)" fill="#bddfb0"/>
      <path id="パス_281539" data-name="パス 281539" d="M7.349,0A7.349,7.349,0,1,1,0,7.349,7.349,7.349,0,0,1,7.349,0Z" transform="translate(324.988 333.152)" fill="#bddfb0"/>
      <path id="パス_281540" data-name="パス 281540" d="M7.349,0A7.349,7.349,0,1,1,0,7.349,7.349,7.349,0,0,1,7.349,0Z" transform="translate(324.988 411.542)" fill="#bddfb0"/>
      <path id="パス_281541" data-name="パス 281541" d="M7.349,0A7.349,7.349,0,1,1,0,7.349,7.349,7.349,0,0,1,7.349,0Z" transform="translate(198.421 137.181)" fill="#bddfb0"/>
      <path id="パス_281542" data-name="パス 281542" d="M7.349,0A7.349,7.349,0,1,1,0,7.349,7.349,7.349,0,0,1,7.349,0Z" transform="translate(451.553 137.181)" fill="#bddfb0"/>
      <path id="パス_281543" data-name="パス 281543" d="M7.349,0A7.349,7.349,0,1,1,0,7.349,7.349,7.349,0,0,1,7.349,0Z" transform="translate(198.421 333.152)" fill="#bddfb0"/>
      <path id="パス_281544" data-name="パス 281544" d="M7.349,0A7.349,7.349,0,1,1,0,7.349,7.349,7.349,0,0,1,7.349,0Z" transform="translate(198.421 411.542)" fill="#bddfb0"/>
      <path id="パス_281545" data-name="パス 281545" d="M7.349,0A7.349,7.349,0,1,1,0,7.349,7.349,7.349,0,0,1,7.349,0Z" transform="translate(451.553 333.152)" fill="#bddfb0"/>
      <path id="パス_281546" data-name="パス 281546" d="M7.349,0A7.349,7.349,0,1,1,0,7.349,7.349,7.349,0,0,1,7.349,0Z" transform="translate(451.553 411.542)" fill="#bddfb0"/>
      <path id="パス_281547" data-name="パス 281547" d="M7.349,0A7.349,7.349,0,1,1,0,7.349,7.349,7.349,0,0,1,7.349,0Z" transform="translate(7.349 137.181)" fill="#bddfb0"/>
      <path id="パス_281548" data-name="パス 281548" d="M7.349,0A7.349,7.349,0,1,1,0,7.349,7.349,7.349,0,0,1,7.349,0Z" transform="translate(260.48 137.181)" fill="#bddfb0"/>
      <path id="パス_281549" data-name="パス 281549" d="M7.349,0A7.349,7.349,0,1,1,0,7.349,7.349,7.349,0,0,1,7.349,0Z" transform="translate(7.349 333.152)" fill="#bddfb0"/>
      <path id="パス_281550" data-name="パス 281550" d="M7.349,0A7.349,7.349,0,1,1,0,7.349,7.349,7.349,0,0,1,7.349,0Z" transform="translate(7.349 411.542)" fill="#bddfb0"/>
      <path id="パス_281551" data-name="パス 281551" d="M7.349,0A7.349,7.349,0,1,1,0,7.349,7.349,7.349,0,0,1,7.349,0Z" transform="translate(260.48 333.152)" fill="#bddfb0"/>
      <path id="パス_281552" data-name="パス 281552" d="M7.349,0A7.349,7.349,0,1,1,0,7.349,7.349,7.349,0,0,1,7.349,0Z" transform="translate(260.48 411.542)" fill="#bddfb0"/>
      <path id="パス_281553" data-name="パス 281553" d="M7.349,0A7.349,7.349,0,1,1,0,7.349,7.349,7.349,0,0,1,7.349,0Z" transform="translate(133.914 137.181)" fill="#bddfb0"/>
      <path id="パス_281554" data-name="パス 281554" d="M7.349,0A7.349,7.349,0,1,1,0,7.349,7.349,7.349,0,0,1,7.349,0Z" transform="translate(387.045 137.181)" fill="#bddfb0"/>
      <path id="パス_281555" data-name="パス 281555" d="M7.349,0A7.349,7.349,0,1,1,0,7.349,7.349,7.349,0,0,1,7.349,0Z" transform="translate(133.914 333.152)" fill="#bddfb0"/>
      <path id="パス_281556" data-name="パス 281556" d="M7.349,0A7.349,7.349,0,1,1,0,7.349,7.349,7.349,0,0,1,7.349,0Z" transform="translate(133.914 411.542)" fill="#bddfb0"/>
      <path id="パス_281557" data-name="パス 281557" d="M7.349,0A7.349,7.349,0,1,1,0,7.349,7.349,7.349,0,0,1,7.349,0Z" transform="translate(387.045 333.152)" fill="#bddfb0"/>
      <path id="パス_281558" data-name="パス 281558" d="M7.349,0A7.349,7.349,0,1,1,0,7.349,7.349,7.349,0,0,1,7.349,0Z" transform="translate(387.045 411.542)" fill="#bddfb0"/>
      <path id="パス_281559" data-name="パス 281559" d="M7.349,0A7.349,7.349,0,1,1,0,7.349,7.349,7.349,0,0,1,7.349,0Z" transform="translate(76.756 0)" fill="#bddfb0"/>
      <path id="パス_281560" data-name="パス 281560" d="M7.349,0A7.349,7.349,0,1,1,0,7.349,7.349,7.349,0,0,1,7.349,0Z" transform="translate(329.886 0)" fill="#bddfb0"/>
      <path id="パス_281561" data-name="パス 281561" d="M7.349,0A7.349,7.349,0,1,1,0,7.349,7.349,7.349,0,0,1,7.349,0Z" transform="translate(76.756 195.972)" fill="#bddfb0"/>
      <path id="パス_281562" data-name="パス 281562" d="M7.349,0A7.349,7.349,0,1,1,0,7.349,7.349,7.349,0,0,1,7.349,0Z" transform="translate(329.886 195.972)" fill="#bddfb0"/>
      <path id="パス_281563" data-name="パス 281563" d="M7.349,0A7.349,7.349,0,1,1,0,7.349,7.349,7.349,0,0,1,7.349,0Z" transform="translate(203.321 0)" fill="#bddfb0"/>
      <path id="パス_281564" data-name="パス 281564" d="M7.349,0A7.349,7.349,0,1,1,0,7.349,7.349,7.349,0,0,1,7.349,0Z" transform="translate(456.451 0)" fill="#bddfb0"/>
      <path id="パス_281565" data-name="パス 281565" d="M7.349,0A7.349,7.349,0,1,1,0,7.349,7.349,7.349,0,0,1,7.349,0Z" transform="translate(203.321 195.972)" fill="#bddfb0"/>
      <path id="パス_281566" data-name="パス 281566" d="M7.349,0A7.349,7.349,0,1,1,0,7.349,7.349,7.349,0,0,1,7.349,0Z" transform="translate(456.451 195.972)" fill="#bddfb0"/>
      <path id="パス_281567" data-name="パス 281567" d="M7.349,0A7.349,7.349,0,1,1,0,7.349,7.349,7.349,0,0,1,7.349,0Z" transform="translate(12.248 0)" fill="#bddfb0"/>
      <path id="パス_281568" data-name="パス 281568" d="M7.349,0A7.349,7.349,0,1,1,0,7.349,7.349,7.349,0,0,1,7.349,0Z" transform="translate(265.379 0)" fill="#bddfb0"/>
      <path id="パス_281569" data-name="パス 281569" d="M7.349,0A7.349,7.349,0,1,1,0,7.349,7.349,7.349,0,0,1,7.349,0Z" transform="translate(12.248 195.972)" fill="#bddfb0"/>
      <path id="パス_281570" data-name="パス 281570" d="M7.349,0A7.349,7.349,0,1,1,0,7.349,7.349,7.349,0,0,1,7.349,0Z" transform="translate(265.379 195.972)" fill="#bddfb0"/>
      <path id="パス_281571" data-name="パス 281571" d="M7.349,0A7.349,7.349,0,1,1,0,7.349,7.349,7.349,0,0,1,7.349,0Z" transform="translate(138.814 0)" fill="#bddfb0"/>
      <path id="パス_281572" data-name="パス 281572" d="M7.349,0A7.349,7.349,0,1,1,0,7.349,7.349,7.349,0,0,1,7.349,0Z" transform="translate(391.944 0)" fill="#bddfb0"/>
      <path id="パス_281573" data-name="パス 281573" d="M7.349,0A7.349,7.349,0,1,1,0,7.349,7.349,7.349,0,0,1,7.349,0Z" transform="translate(138.814 195.972)" fill="#bddfb0"/>
      <path id="パス_281574" data-name="パス 281574" d="M7.349,0A7.349,7.349,0,1,1,0,7.349,7.349,7.349,0,0,1,7.349,0Z" transform="translate(391.944 195.972)" fill="#bddfb0"/>
      <path id="パス_281575" data-name="パス 281575" d="M7.349,0A7.349,7.349,0,1,1,0,7.349,7.349,7.349,0,0,1,7.349,0Z" transform="translate(91.453 97.986)" fill="#bddfb0"/>
      <path id="パス_281576" data-name="パス 281576" d="M7.349,0A7.349,7.349,0,1,1,0,7.349,7.349,7.349,0,0,1,7.349,0Z" transform="translate(344.585 97.986)" fill="#bddfb0"/>
      <path id="パス_281577" data-name="パス 281577" d="M7.349,0A7.349,7.349,0,1,1,0,7.349,7.349,7.349,0,0,1,7.349,0Z" transform="translate(91.453 293.958)" fill="#bddfb0"/>
      <path id="パス_281578" data-name="パス 281578" d="M7.349,0A7.349,7.349,0,1,1,0,7.349,7.349,7.349,0,0,1,7.349,0Z" transform="translate(344.585 293.958)" fill="#bddfb0"/>
      <path id="パス_281579" data-name="パス 281579" d="M7.349,0A7.349,7.349,0,1,1,0,7.349,7.349,7.349,0,0,1,7.349,0Z" transform="translate(218.018 97.986)" fill="#bddfb0"/>
      <path id="パス_281580" data-name="パス 281580" d="M7.349,0A7.349,7.349,0,1,1,0,7.349,7.349,7.349,0,0,1,7.349,0Z" transform="translate(471.15 97.986)" fill="#bddfb0"/>
      <path id="パス_281581" data-name="パス 281581" d="M7.349,0A7.349,7.349,0,1,1,0,7.349,7.349,7.349,0,0,1,7.349,0Z" transform="translate(218.018 293.958)" fill="#bddfb0"/>
      <path id="パス_281582" data-name="パス 281582" d="M7.349,0A7.349,7.349,0,1,1,0,7.349,7.349,7.349,0,0,1,7.349,0Z" transform="translate(471.15 293.958)" fill="#bddfb0"/>
      <path id="パス_281583" data-name="パス 281583" d="M7.349,0A7.349,7.349,0,1,1,0,7.349,7.349,7.349,0,0,1,7.349,0Z" transform="translate(26.946 97.986)" fill="#bddfb0"/>
      <path id="パス_281584" data-name="パス 281584" d="M7.349,0A7.349,7.349,0,1,1,0,7.349,7.349,7.349,0,0,1,7.349,0Z" transform="translate(280.077 97.986)" fill="#bddfb0"/>
      <path id="パス_281585" data-name="パス 281585" d="M7.349,0A7.349,7.349,0,1,1,0,7.349,7.349,7.349,0,0,1,7.349,0Z" transform="translate(26.946 293.958)" fill="#bddfb0"/>
      <path id="パス_281586" data-name="パス 281586" d="M7.349,0A7.349,7.349,0,1,1,0,7.349,7.349,7.349,0,0,1,7.349,0Z" transform="translate(280.077 293.958)" fill="#bddfb0"/>
      <path id="パス_281587" data-name="パス 281587" d="M7.349,0A7.349,7.349,0,1,1,0,7.349,7.349,7.349,0,0,1,7.349,0Z" transform="translate(153.511 97.986)" fill="#bddfb0"/>
      <path id="パス_281588" data-name="パス 281588" d="M7.349,0A7.349,7.349,0,1,1,0,7.349,7.349,7.349,0,0,1,7.349,0Z" transform="translate(406.642 97.986)" fill="#bddfb0"/>
      <path id="パス_281589" data-name="パス 281589" d="M7.349,0A7.349,7.349,0,1,1,0,7.349,7.349,7.349,0,0,1,7.349,0Z" transform="translate(153.511 293.958)" fill="#bddfb0"/>
      <path id="パス_281590" data-name="パス 281590" d="M7.349,0A7.349,7.349,0,1,1,0,7.349,7.349,7.349,0,0,1,7.349,0Z" transform="translate(406.642 293.958)" fill="#bddfb0"/>
      <path id="パス_281591" data-name="パス 281591" d="M7.349,0A7.349,7.349,0,1,1,0,7.349,7.349,7.349,0,0,1,7.349,0Z" transform="translate(91.453 19.597)" fill="#bddfb0"/>
      <path id="パス_281592" data-name="パス 281592" d="M7.349,0A7.349,7.349,0,1,1,0,7.349,7.349,7.349,0,0,1,7.349,0Z" transform="translate(344.585 19.597)" fill="#bddfb0"/>
      <path id="パス_281593" data-name="パス 281593" d="M7.349,0A7.349,7.349,0,1,1,0,7.349,7.349,7.349,0,0,1,7.349,0Z" transform="translate(91.453 215.569)" fill="#bddfb0"/>
      <path id="パス_281594" data-name="パス 281594" d="M7.349,0A7.349,7.349,0,1,1,0,7.349,7.349,7.349,0,0,1,7.349,0Z" transform="translate(344.585 215.569)" fill="#bddfb0"/>
      <path id="パス_281595" data-name="パス 281595" d="M7.349,0A7.349,7.349,0,1,1,0,7.349,7.349,7.349,0,0,1,7.349,0Z" transform="translate(218.018 19.597)" fill="#bddfb0"/>
      <path id="パス_281596" data-name="パス 281596" d="M7.349,0A7.349,7.349,0,1,1,0,7.349,7.349,7.349,0,0,1,7.349,0Z" transform="translate(471.15 19.597)" fill="#bddfb0"/>
      <path id="パス_281597" data-name="パス 281597" d="M7.349,0A7.349,7.349,0,1,1,0,7.349,7.349,7.349,0,0,1,7.349,0Z" transform="translate(218.018 215.569)" fill="#bddfb0"/>
      <path id="パス_281598" data-name="パス 281598" d="M7.349,0A7.349,7.349,0,1,1,0,7.349,7.349,7.349,0,0,1,7.349,0Z" transform="translate(471.15 215.569)" fill="#bddfb0"/>
      <path id="パス_281599" data-name="パス 281599" d="M7.349,0A7.349,7.349,0,1,1,0,7.349,7.349,7.349,0,0,1,7.349,0Z" transform="translate(26.946 19.597)" fill="#bddfb0"/>
      <path id="パス_281600" data-name="パス 281600" d="M7.349,0A7.349,7.349,0,1,1,0,7.349,7.349,7.349,0,0,1,7.349,0Z" transform="translate(280.077 19.597)" fill="#bddfb0"/>
      <path id="パス_281601" data-name="パス 281601" d="M7.349,0A7.349,7.349,0,1,1,0,7.349,7.349,7.349,0,0,1,7.349,0Z" transform="translate(26.946 215.569)" fill="#bddfb0"/>
      <path id="パス_281602" data-name="パス 281602" d="M7.349,0A7.349,7.349,0,1,1,0,7.349,7.349,7.349,0,0,1,7.349,0Z" transform="translate(280.077 215.569)" fill="#bddfb0"/>
      <path id="パス_281603" data-name="パス 281603" d="M7.349,0A7.349,7.349,0,1,1,0,7.349,7.349,7.349,0,0,1,7.349,0Z" transform="translate(153.511 19.597)" fill="#bddfb0"/>
      <path id="パス_281604" data-name="パス 281604" d="M7.349,0A7.349,7.349,0,1,1,0,7.349,7.349,7.349,0,0,1,7.349,0Z" transform="translate(406.642 19.597)" fill="#bddfb0"/>
      <path id="パス_281605" data-name="パス 281605" d="M7.349,0A7.349,7.349,0,1,1,0,7.349,7.349,7.349,0,0,1,7.349,0Z" transform="translate(153.511 215.569)" fill="#bddfb0"/>
      <path id="パス_281606" data-name="パス 281606" d="M7.349,0A7.349,7.349,0,1,1,0,7.349,7.349,7.349,0,0,1,7.349,0Z" transform="translate(406.642 215.569)" fill="#bddfb0"/>
      <path id="パス_281607" data-name="パス 281607" d="M7.349,0A7.349,7.349,0,1,1,0,7.349,7.349,7.349,0,0,1,7.349,0Z" transform="translate(106.152 117.583)" fill="#bddfb0"/>
      <path id="パス_281608" data-name="パス 281608" d="M7.349,0A7.349,7.349,0,1,1,0,7.349,7.349,7.349,0,0,1,7.349,0Z" transform="translate(359.282 117.583)" fill="#bddfb0"/>
      <path id="パス_281609" data-name="パス 281609" d="M7.349,0A7.349,7.349,0,1,1,0,7.349,7.349,7.349,0,0,1,7.349,0Z" transform="translate(106.152 313.555)" fill="#bddfb0"/>
      <path id="パス_281610" data-name="パス 281610" d="M7.349,0A7.349,7.349,0,1,1,0,7.349,7.349,7.349,0,0,1,7.349,0Z" transform="translate(106.152 391.944)" fill="#bddfb0"/>
      <path id="パス_281611" data-name="パス 281611" d="M7.349,0A7.349,7.349,0,1,1,0,7.349,7.349,7.349,0,0,1,7.349,0Z" transform="translate(359.282 313.555)" fill="#bddfb0"/>
      <path id="パス_281612" data-name="パス 281612" d="M7.349,0A7.349,7.349,0,1,1,0,7.349,7.349,7.349,0,0,1,7.349,0Z" transform="translate(359.282 391.944)" fill="#bddfb0"/>
      <path id="パス_281613" data-name="パス 281613" d="M7.349,0A7.349,7.349,0,1,1,0,7.349,7.349,7.349,0,0,1,7.349,0Z" transform="translate(232.717 117.583)" fill="#bddfb0"/>
      <path id="パス_281614" data-name="パス 281614" d="M7.349,0A7.349,7.349,0,1,1,0,7.349,7.349,7.349,0,0,1,7.349,0Z" transform="translate(485.847 117.583)" fill="#bddfb0"/>
      <path id="パス_281615" data-name="パス 281615" d="M7.349,0A7.349,7.349,0,1,1,0,7.349,7.349,7.349,0,0,1,7.349,0Z" transform="translate(232.717 313.555)" fill="#bddfb0"/>
      <path id="パス_281616" data-name="パス 281616" d="M7.349,0A7.349,7.349,0,1,1,0,7.349,7.349,7.349,0,0,1,7.349,0Z" transform="translate(232.717 391.944)" fill="#bddfb0"/>
      <path id="パス_281617" data-name="パス 281617" d="M7.349,0A7.349,7.349,0,1,1,0,7.349,7.349,7.349,0,0,1,7.349,0Z" transform="translate(485.847 313.555)" fill="#bddfb0"/>
      <path id="パス_281618" data-name="パス 281618" d="M7.349,0A7.349,7.349,0,1,1,0,7.349,7.349,7.349,0,0,1,7.349,0Z" transform="translate(485.847 391.944)" fill="#bddfb0"/>
      <path id="パス_281619" data-name="パス 281619" d="M7.349,0A7.349,7.349,0,1,1,0,7.349,7.349,7.349,0,0,1,7.349,0Z" transform="translate(41.644 117.583)" fill="#bddfb0"/>
      <path id="パス_281620" data-name="パス 281620" d="M7.349,0A7.349,7.349,0,1,1,0,7.349,7.349,7.349,0,0,1,7.349,0Z" transform="translate(294.774 117.583)" fill="#bddfb0"/>
      <path id="パス_281621" data-name="パス 281621" d="M7.349,0A7.349,7.349,0,1,1,0,7.349,7.349,7.349,0,0,1,7.349,0Z" transform="translate(41.644 313.555)" fill="#bddfb0"/>
      <path id="パス_281622" data-name="パス 281622" d="M7.349,0A7.349,7.349,0,1,1,0,7.349,7.349,7.349,0,0,1,7.349,0Z" transform="translate(41.644 391.944)" fill="#bddfb0"/>
      <path id="パス_281623" data-name="パス 281623" d="M7.349,0A7.349,7.349,0,1,1,0,7.349,7.349,7.349,0,0,1,7.349,0Z" transform="translate(294.774 313.555)" fill="#bddfb0"/>
      <path id="パス_281624" data-name="パス 281624" d="M7.349,0A7.349,7.349,0,1,1,0,7.349,7.349,7.349,0,0,1,7.349,0Z" transform="translate(294.774 391.944)" fill="#bddfb0"/>
      <path id="パス_281625" data-name="パス 281625" d="M7.349,0A7.349,7.349,0,1,1,0,7.349,7.349,7.349,0,0,1,7.349,0Z" transform="translate(168.209 117.583)" fill="#bddfb0"/>
      <path id="パス_281626" data-name="パス 281626" d="M7.349,0A7.349,7.349,0,1,1,0,7.349,7.349,7.349,0,0,1,7.349,0Z" transform="translate(421.34 117.583)" fill="#bddfb0"/>
      <path id="パス_281627" data-name="パス 281627" d="M7.349,0A7.349,7.349,0,1,1,0,7.349,7.349,7.349,0,0,1,7.349,0Z" transform="translate(168.209 313.555)" fill="#bddfb0"/>
      <path id="パス_281628" data-name="パス 281628" d="M7.349,0A7.349,7.349,0,1,1,0,7.349,7.349,7.349,0,0,1,7.349,0Z" transform="translate(168.209 391.944)" fill="#bddfb0"/>
      <path id="パス_281629" data-name="パス 281629" d="M7.349,0A7.349,7.349,0,1,1,0,7.349,7.349,7.349,0,0,1,7.349,0Z" transform="translate(421.34 313.555)" fill="#bddfb0"/>
      <path id="パス_281630" data-name="パス 281630" d="M7.349,0A7.349,7.349,0,1,1,0,7.349,7.349,7.349,0,0,1,7.349,0Z" transform="translate(421.34 391.944)" fill="#bddfb0"/>
      <path id="パス_281631" data-name="パス 281631" d="M7.349,0A7.349,7.349,0,1,1,0,7.349,7.349,7.349,0,0,1,7.349,0Z" transform="translate(91.453 58.791)" fill="#bddfb0"/>
      <path id="パス_281632" data-name="パス 281632" d="M7.349,0A7.349,7.349,0,1,1,0,7.349,7.349,7.349,0,0,1,7.349,0Z" transform="translate(344.585 58.791)" fill="#bddfb0"/>
      <path id="パス_281633" data-name="パス 281633" d="M7.349,0A7.349,7.349,0,1,1,0,7.349,7.349,7.349,0,0,1,7.349,0Z" transform="translate(91.453 254.764)" fill="#bddfb0"/>
      <path id="パス_281634" data-name="パス 281634" d="M7.349,0A7.349,7.349,0,1,1,0,7.349,7.349,7.349,0,0,1,7.349,0Z" transform="translate(344.585 254.764)" fill="#bddfb0"/>
      <path id="パス_281635" data-name="パス 281635" d="M7.349,0A7.349,7.349,0,1,1,0,7.349,7.349,7.349,0,0,1,7.349,0Z" transform="translate(218.018 58.791)" fill="#bddfb0"/>
      <path id="パス_281636" data-name="パス 281636" d="M7.349,0A7.349,7.349,0,1,1,0,7.349,7.349,7.349,0,0,1,7.349,0Z" transform="translate(471.15 58.791)" fill="#bddfb0"/>
      <path id="パス_281637" data-name="パス 281637" d="M7.349,0A7.349,7.349,0,1,1,0,7.349,7.349,7.349,0,0,1,7.349,0Z" transform="translate(218.018 254.764)" fill="#bddfb0"/>
      <path id="パス_281638" data-name="パス 281638" d="M7.349,0A7.349,7.349,0,1,1,0,7.349,7.349,7.349,0,0,1,7.349,0Z" transform="translate(471.15 254.764)" fill="#bddfb0"/>
      <path id="パス_281639" data-name="パス 281639" d="M7.349,0A7.349,7.349,0,1,1,0,7.349,7.349,7.349,0,0,1,7.349,0Z" transform="translate(26.946 58.791)" fill="#bddfb0"/>
      <path id="パス_281640" data-name="パス 281640" d="M7.349,0A7.349,7.349,0,1,1,0,7.349,7.349,7.349,0,0,1,7.349,0Z" transform="translate(280.077 58.791)" fill="#bddfb0"/>
      <path id="パス_281641" data-name="パス 281641" d="M7.349,0A7.349,7.349,0,1,1,0,7.349,7.349,7.349,0,0,1,7.349,0Z" transform="translate(26.946 254.764)" fill="#bddfb0"/>
      <path id="パス_281642" data-name="パス 281642" d="M7.349,0A7.349,7.349,0,1,1,0,7.349,7.349,7.349,0,0,1,7.349,0Z" transform="translate(280.077 254.764)" fill="#bddfb0"/>
      <path id="パス_281643" data-name="パス 281643" d="M7.349,0A7.349,7.349,0,1,1,0,7.349,7.349,7.349,0,0,1,7.349,0Z" transform="translate(153.511 58.791)" fill="#bddfb0"/>
      <path id="パス_281644" data-name="パス 281644" d="M7.349,0A7.349,7.349,0,1,1,0,7.349,7.349,7.349,0,0,1,7.349,0Z" transform="translate(406.642 58.791)" fill="#bddfb0"/>
      <path id="パス_281645" data-name="パス 281645" d="M7.349,0A7.349,7.349,0,1,1,0,7.349,7.349,7.349,0,0,1,7.349,0Z" transform="translate(153.511 254.764)" fill="#bddfb0"/>
      <path id="パス_281646" data-name="パス 281646" d="M7.349,0A7.349,7.349,0,1,1,0,7.349,7.349,7.349,0,0,1,7.349,0Z" transform="translate(406.642 254.764)" fill="#bddfb0"/>
      <path id="パス_281647" data-name="パス 281647" d="M7.349,0A7.349,7.349,0,1,1,0,7.349,7.349,7.349,0,0,1,7.349,0Z" transform="translate(106.152 156.778)" fill="#bddfb0"/>
      <path id="パス_281648" data-name="パス 281648" d="M7.349,0A7.349,7.349,0,1,1,0,7.349,7.349,7.349,0,0,1,7.349,0Z" transform="translate(359.282 156.778)" fill="#bddfb0"/>
      <path id="パス_281649" data-name="パス 281649" d="M7.349,0A7.349,7.349,0,1,1,0,7.349,7.349,7.349,0,0,1,7.349,0Z" transform="translate(106.152 352.75)" fill="#bddfb0"/>
      <path id="パス_281650" data-name="パス 281650" d="M7.349,0A7.349,7.349,0,1,1,0,7.349,7.349,7.349,0,0,1,7.349,0Z" transform="translate(106.152 431.139)" fill="#bddfb0"/>
      <path id="パス_281651" data-name="パス 281651" d="M7.349,0A7.349,7.349,0,1,1,0,7.349,7.349,7.349,0,0,1,7.349,0Z" transform="translate(359.282 352.75)" fill="#bddfb0"/>
      <path id="パス_281652" data-name="パス 281652" d="M7.349,0A7.349,7.349,0,1,1,0,7.349,7.349,7.349,0,0,1,7.349,0Z" transform="translate(359.282 431.139)" fill="#bddfb0"/>
      <path id="パス_281653" data-name="パス 281653" d="M7.349,0A7.349,7.349,0,1,1,0,7.349,7.349,7.349,0,0,1,7.349,0Z" transform="translate(232.717 156.778)" fill="#bddfb0"/>
      <path id="パス_281654" data-name="パス 281654" d="M7.349,0A7.349,7.349,0,1,1,0,7.349,7.349,7.349,0,0,1,7.349,0Z" transform="translate(485.847 156.778)" fill="#bddfb0"/>
      <path id="パス_281655" data-name="パス 281655" d="M7.349,0A7.349,7.349,0,1,1,0,7.349,7.349,7.349,0,0,1,7.349,0Z" transform="translate(232.717 352.75)" fill="#bddfb0"/>
      <path id="パス_281656" data-name="パス 281656" d="M7.349,0A7.349,7.349,0,1,1,0,7.349,7.349,7.349,0,0,1,7.349,0Z" transform="translate(232.717 431.139)" fill="#bddfb0"/>
      <path id="パス_281657" data-name="パス 281657" d="M7.349,0A7.349,7.349,0,1,1,0,7.349,7.349,7.349,0,0,1,7.349,0Z" transform="translate(485.847 352.75)" fill="#bddfb0"/>
      <path id="パス_281658" data-name="パス 281658" d="M7.349,0A7.349,7.349,0,1,1,0,7.349,7.349,7.349,0,0,1,7.349,0Z" transform="translate(485.847 431.139)" fill="#bddfb0"/>
      <path id="パス_281659" data-name="パス 281659" d="M7.349,0A7.349,7.349,0,1,1,0,7.349,7.349,7.349,0,0,1,7.349,0Z" transform="translate(41.644 156.778)" fill="#bddfb0"/>
      <path id="パス_281660" data-name="パス 281660" d="M7.349,0A7.349,7.349,0,1,1,0,7.349,7.349,7.349,0,0,1,7.349,0Z" transform="translate(294.774 156.778)" fill="#bddfb0"/>
      <path id="パス_281661" data-name="パス 281661" d="M7.349,0A7.349,7.349,0,1,1,0,7.349,7.349,7.349,0,0,1,7.349,0Z" transform="translate(41.644 352.75)" fill="#bddfb0"/>
      <path id="パス_281662" data-name="パス 281662" d="M7.349,0A7.349,7.349,0,1,1,0,7.349,7.349,7.349,0,0,1,7.349,0Z" transform="translate(41.644 431.139)" fill="#bddfb0"/>
      <path id="パス_281663" data-name="パス 281663" d="M7.349,0A7.349,7.349,0,1,1,0,7.349,7.349,7.349,0,0,1,7.349,0Z" transform="translate(294.774 352.75)" fill="#bddfb0"/>
      <path id="パス_281664" data-name="パス 281664" d="M7.349,0A7.349,7.349,0,1,1,0,7.349,7.349,7.349,0,0,1,7.349,0Z" transform="translate(294.774 431.139)" fill="#bddfb0"/>
      <path id="パス_281665" data-name="パス 281665" d="M7.349,0A7.349,7.349,0,1,1,0,7.349,7.349,7.349,0,0,1,7.349,0Z" transform="translate(168.209 156.778)" fill="#bddfb0"/>
      <path id="パス_281666" data-name="パス 281666" d="M7.349,0A7.349,7.349,0,1,1,0,7.349,7.349,7.349,0,0,1,7.349,0Z" transform="translate(421.34 156.778)" fill="#bddfb0"/>
      <path id="パス_281667" data-name="パス 281667" d="M7.349,0A7.349,7.349,0,1,1,0,7.349,7.349,7.349,0,0,1,7.349,0Z" transform="translate(168.209 352.75)" fill="#bddfb0"/>
      <path id="パス_281668" data-name="パス 281668" d="M7.349,0A7.349,7.349,0,1,1,0,7.349,7.349,7.349,0,0,1,7.349,0Z" transform="translate(168.209 431.139)" fill="#bddfb0"/>
      <path id="パス_281669" data-name="パス 281669" d="M7.349,0A7.349,7.349,0,1,1,0,7.349,7.349,7.349,0,0,1,7.349,0Z" transform="translate(421.34 352.75)" fill="#bddfb0"/>
      <path id="パス_281670" data-name="パス 281670" d="M7.349,0A7.349,7.349,0,1,1,0,7.349,7.349,7.349,0,0,1,7.349,0Z" transform="translate(421.34 431.139)" fill="#bddfb0"/>
      <path id="パス_281671" data-name="パス 281671" d="M7.349,0A7.349,7.349,0,1,1,0,7.349,7.349,7.349,0,0,1,7.349,0Z" transform="translate(76.756 78.389)" fill="#bddfb0"/>
      <path id="パス_281672" data-name="パス 281672" d="M7.349,0A7.349,7.349,0,1,1,0,7.349,7.349,7.349,0,0,1,7.349,0Z" transform="translate(329.886 78.389)" fill="#bddfb0"/>
      <path id="パス_281673" data-name="パス 281673" d="M7.349,0A7.349,7.349,0,1,1,0,7.349,7.349,7.349,0,0,1,7.349,0Z" transform="translate(76.756 274.361)" fill="#bddfb0"/>
      <path id="パス_281674" data-name="パス 281674" d="M7.349,0A7.349,7.349,0,1,1,0,7.349,7.349,7.349,0,0,1,7.349,0Z" transform="translate(329.886 274.361)" fill="#bddfb0"/>
      <path id="パス_281675" data-name="パス 281675" d="M7.349,0A7.349,7.349,0,1,1,0,7.349,7.349,7.349,0,0,1,7.349,0Z" transform="translate(203.321 78.389)" fill="#bddfb0"/>
      <path id="パス_281676" data-name="パス 281676" d="M7.349,0A7.349,7.349,0,1,1,0,7.349,7.349,7.349,0,0,1,7.349,0Z" transform="translate(456.451 78.389)" fill="#bddfb0"/>
      <path id="パス_281677" data-name="パス 281677" d="M7.349,0A7.349,7.349,0,1,1,0,7.349,7.349,7.349,0,0,1,7.349,0Z" transform="translate(203.321 274.361)" fill="#bddfb0"/>
      <path id="パス_281678" data-name="パス 281678" d="M7.349,0A7.349,7.349,0,1,1,0,7.349,7.349,7.349,0,0,1,7.349,0Z" transform="translate(456.451 274.361)" fill="#bddfb0"/>
      <path id="パス_281679" data-name="パス 281679" d="M7.349,0A7.349,7.349,0,1,1,0,7.349,7.349,7.349,0,0,1,7.349,0Z" transform="translate(12.248 78.389)" fill="#bddfb0"/>
      <path id="パス_281680" data-name="パス 281680" d="M7.349,0A7.349,7.349,0,1,1,0,7.349,7.349,7.349,0,0,1,7.349,0Z" transform="translate(265.379 78.389)" fill="#bddfb0"/>
      <path id="パス_281681" data-name="パス 281681" d="M7.349,0A7.349,7.349,0,1,1,0,7.349,7.349,7.349,0,0,1,7.349,0Z" transform="translate(12.248 274.361)" fill="#bddfb0"/>
      <path id="パス_281682" data-name="パス 281682" d="M7.349,0A7.349,7.349,0,1,1,0,7.349,7.349,7.349,0,0,1,7.349,0Z" transform="translate(265.379 274.361)" fill="#bddfb0"/>
      <path id="パス_281683" data-name="パス 281683" d="M7.349,0A7.349,7.349,0,1,1,0,7.349,7.349,7.349,0,0,1,7.349,0Z" transform="translate(138.814 78.389)" fill="#bddfb0"/>
      <path id="パス_281684" data-name="パス 281684" d="M7.349,0A7.349,7.349,0,1,1,0,7.349,7.349,7.349,0,0,1,7.349,0Z" transform="translate(391.944 78.389)" fill="#bddfb0"/>
      <path id="パス_281685" data-name="パス 281685" d="M7.349,0A7.349,7.349,0,1,1,0,7.349,7.349,7.349,0,0,1,7.349,0Z" transform="translate(138.814 274.361)" fill="#bddfb0"/>
      <path id="パス_281686" data-name="パス 281686" d="M7.349,0A7.349,7.349,0,1,1,0,7.349,7.349,7.349,0,0,1,7.349,0Z" transform="translate(391.944 274.361)" fill="#bddfb0"/>
      <path id="パス_281687" data-name="パス 281687" d="M7.349,0A7.349,7.349,0,1,1,0,7.349,7.349,7.349,0,0,1,7.349,0Z" transform="translate(91.453 176.375)" fill="#bddfb0"/>
      <path id="パス_281688" data-name="パス 281688" d="M7.349,0A7.349,7.349,0,1,1,0,7.349,7.349,7.349,0,0,1,7.349,0Z" transform="translate(344.585 176.375)" fill="#bddfb0"/>
      <path id="パス_281689" data-name="パス 281689" d="M7.349,0A7.349,7.349,0,1,1,0,7.349,7.349,7.349,0,0,1,7.349,0Z" transform="translate(91.453 372.347)" fill="#bddfb0"/>
      <path id="パス_281690" data-name="パス 281690" d="M7.349,0A7.349,7.349,0,1,1,0,7.349,7.349,7.349,0,0,1,7.349,0Z" transform="translate(91.453 450.736)" fill="#bddfb0"/>
      <path id="パス_281691" data-name="パス 281691" d="M7.349,0A7.349,7.349,0,1,1,0,7.349,7.349,7.349,0,0,1,7.349,0Z" transform="translate(344.585 372.347)" fill="#bddfb0"/>
      <path id="パス_281692" data-name="パス 281692" d="M7.349,0A7.349,7.349,0,1,1,0,7.349,7.349,7.349,0,0,1,7.349,0Z" transform="translate(344.585 450.736)" fill="#bddfb0"/>
      <path id="パス_281693" data-name="パス 281693" d="M7.349,0A7.349,7.349,0,1,1,0,7.349,7.349,7.349,0,0,1,7.349,0Z" transform="translate(218.018 176.375)" fill="#bddfb0"/>
      <path id="パス_281694" data-name="パス 281694" d="M7.349,0A7.349,7.349,0,1,1,0,7.349,7.349,7.349,0,0,1,7.349,0Z" transform="translate(471.15 176.375)" fill="#bddfb0"/>
      <path id="パス_281695" data-name="パス 281695" d="M7.349,0A7.349,7.349,0,1,1,0,7.349,7.349,7.349,0,0,1,7.349,0Z" transform="translate(218.018 372.347)" fill="#bddfb0"/>
      <path id="パス_281696" data-name="パス 281696" d="M7.349,0A7.349,7.349,0,1,1,0,7.349,7.349,7.349,0,0,1,7.349,0Z" transform="translate(218.018 450.736)" fill="#bddfb0"/>
      <path id="パス_281697" data-name="パス 281697" d="M7.349,0A7.349,7.349,0,1,1,0,7.349,7.349,7.349,0,0,1,7.349,0Z" transform="translate(471.15 372.347)" fill="#bddfb0"/>
      <path id="パス_281698" data-name="パス 281698" d="M7.349,0A7.349,7.349,0,1,1,0,7.349,7.349,7.349,0,0,1,7.349,0Z" transform="translate(471.15 450.736)" fill="#bddfb0"/>
      <path id="パス_281699" data-name="パス 281699" d="M7.349,0A7.349,7.349,0,1,1,0,7.349,7.349,7.349,0,0,1,7.349,0Z" transform="translate(26.946 176.375)" fill="#bddfb0"/>
      <path id="パス_281700" data-name="パス 281700" d="M7.349,0A7.349,7.349,0,1,1,0,7.349,7.349,7.349,0,0,1,7.349,0Z" transform="translate(280.077 176.375)" fill="#bddfb0"/>
      <path id="パス_281701" data-name="パス 281701" d="M7.349,0A7.349,7.349,0,1,1,0,7.349,7.349,7.349,0,0,1,7.349,0Z" transform="translate(26.946 372.347)" fill="#bddfb0"/>
      <path id="パス_281702" data-name="パス 281702" d="M7.349,0A7.349,7.349,0,1,1,0,7.349,7.349,7.349,0,0,1,7.349,0Z" transform="translate(26.946 450.736)" fill="#bddfb0"/>
      <path id="パス_281703" data-name="パス 281703" d="M7.349,0A7.349,7.349,0,1,1,0,7.349,7.349,7.349,0,0,1,7.349,0Z" transform="translate(280.077 372.347)" fill="#bddfb0"/>
      <path id="パス_281704" data-name="パス 281704" d="M7.349,0A7.349,7.349,0,1,1,0,7.349,7.349,7.349,0,0,1,7.349,0Z" transform="translate(280.077 450.736)" fill="#bddfb0"/>
      <path id="パス_281705" data-name="パス 281705" d="M7.349,0A7.349,7.349,0,1,1,0,7.349,7.349,7.349,0,0,1,7.349,0Z" transform="translate(153.511 176.375)" fill="#bddfb0"/>
      <path id="パス_281706" data-name="パス 281706" d="M7.349,0A7.349,7.349,0,1,1,0,7.349,7.349,7.349,0,0,1,7.349,0Z" transform="translate(406.642 176.375)" fill="#bddfb0"/>
      <path id="パス_281707" data-name="パス 281707" d="M7.349,0A7.349,7.349,0,1,1,0,7.349,7.349,7.349,0,0,1,7.349,0Z" transform="translate(153.511 372.347)" fill="#bddfb0"/>
      <path id="パス_281708" data-name="パス 281708" d="M7.349,0A7.349,7.349,0,1,1,0,7.349,7.349,7.349,0,0,1,7.349,0Z" transform="translate(153.511 450.736)" fill="#bddfb0"/>
      <path id="パス_281709" data-name="パス 281709" d="M7.349,0A7.349,7.349,0,1,1,0,7.349,7.349,7.349,0,0,1,7.349,0Z" transform="translate(406.642 372.347)" fill="#bddfb0"/>
      <path id="パス_281710" data-name="パス 281710" d="M7.349,0A7.349,7.349,0,1,1,0,7.349,7.349,7.349,0,0,1,7.349,0Z" transform="translate(406.642 450.736)" fill="#bddfb0"/>
      <path id="パス_281711" data-name="パス 281711" d="M7.349,0A7.349,7.349,0,1,1,0,7.349,7.349,7.349,0,0,1,7.349,0Z" transform="translate(78.389 39.194)" fill="#bddfb0"/>
      <path id="パス_281712" data-name="パス 281712" d="M7.349,0A7.349,7.349,0,1,1,0,7.349,7.349,7.349,0,0,1,7.349,0Z" transform="translate(331.52 39.194)" fill="#bddfb0"/>
      <path id="パス_281713" data-name="パス 281713" d="M7.349,0A7.349,7.349,0,1,1,0,7.349,7.349,7.349,0,0,1,7.349,0Z" transform="translate(78.389 235.167)" fill="#bddfb0"/>
      <path id="パス_281714" data-name="パス 281714" d="M7.349,0A7.349,7.349,0,1,1,0,7.349,7.349,7.349,0,0,1,7.349,0Z" transform="translate(331.52 235.167)" fill="#bddfb0"/>
      <path id="パス_281715" data-name="パス 281715" d="M7.349,0A7.349,7.349,0,1,1,0,7.349,7.349,7.349,0,0,1,7.349,0Z" transform="translate(204.954 39.194)" fill="#bddfb0"/>
      <path id="パス_281716" data-name="パス 281716" d="M7.349,0A7.349,7.349,0,1,1,0,7.349,7.349,7.349,0,0,1,7.349,0Z" transform="translate(458.085 39.194)" fill="#bddfb0"/>
      <path id="パス_281717" data-name="パス 281717" d="M7.349,0A7.349,7.349,0,1,1,0,7.349,7.349,7.349,0,0,1,7.349,0Z" transform="translate(204.954 235.167)" fill="#bddfb0"/>
      <path id="パス_281718" data-name="パス 281718" d="M7.349,0A7.349,7.349,0,1,1,0,7.349,7.349,7.349,0,0,1,7.349,0Z" transform="translate(458.085 235.167)" fill="#bddfb0"/>
      <path id="パス_281719" data-name="パス 281719" d="M7.349,0A7.349,7.349,0,1,1,0,7.349,7.349,7.349,0,0,1,7.349,0Z" transform="translate(13.881 39.194)" fill="#bddfb0"/>
      <path id="パス_281720" data-name="パス 281720" d="M7.349,0A7.349,7.349,0,1,1,0,7.349,7.349,7.349,0,0,1,7.349,0Z" transform="translate(267.012 39.194)" fill="#bddfb0"/>
      <path id="パス_281721" data-name="パス 281721" d="M7.349,0A7.349,7.349,0,1,1,0,7.349,7.349,7.349,0,0,1,7.349,0Z" transform="translate(13.881 235.167)" fill="#bddfb0"/>
      <path id="パス_281722" data-name="パス 281722" d="M7.349,0A7.349,7.349,0,1,1,0,7.349,7.349,7.349,0,0,1,7.349,0Z" transform="translate(267.012 235.167)" fill="#bddfb0"/>
      <path id="パス_281723" data-name="パス 281723" d="M7.349,0A7.349,7.349,0,1,1,0,7.349,7.349,7.349,0,0,1,7.349,0Z" transform="translate(140.446 39.194)" fill="#bddfb0"/>
      <path id="パス_281724" data-name="パス 281724" d="M7.349,0A7.349,7.349,0,1,1,0,7.349,7.349,7.349,0,0,1,7.349,0Z" transform="translate(393.578 39.194)" fill="#bddfb0"/>
      <path id="パス_281725" data-name="パス 281725" d="M7.349,0A7.349,7.349,0,1,1,0,7.349,7.349,7.349,0,0,1,7.349,0Z" transform="translate(140.446 235.167)" fill="#bddfb0"/>
      <path id="パス_281726" data-name="パス 281726" d="M7.349,0A7.349,7.349,0,1,1,0,7.349,7.349,7.349,0,0,1,7.349,0Z" transform="translate(393.578 235.167)" fill="#bddfb0"/>
      <path id="パス_281727" data-name="パス 281727" d="M7.349,0A7.349,7.349,0,1,1,0,7.349,7.349,7.349,0,0,1,7.349,0Z" transform="translate(93.087 137.181)" fill="#bddfb0"/>
      <path id="パス_281728" data-name="パス 281728" d="M7.349,0A7.349,7.349,0,1,1,0,7.349,7.349,7.349,0,0,1,7.349,0Z" transform="translate(346.217 137.181)" fill="#bddfb0"/>
      <path id="パス_281729" data-name="パス 281729" d="M7.349,0A7.349,7.349,0,1,1,0,7.349,7.349,7.349,0,0,1,7.349,0Z" transform="translate(93.087 333.152)" fill="#bddfb0"/>
      <path id="パス_281730" data-name="パス 281730" d="M7.349,0A7.349,7.349,0,1,1,0,7.349,7.349,7.349,0,0,1,7.349,0Z" transform="translate(93.087 411.542)" fill="#bddfb0"/>
      <path id="パス_281731" data-name="パス 281731" d="M7.349,0A7.349,7.349,0,1,1,0,7.349,7.349,7.349,0,0,1,7.349,0Z" transform="translate(346.217 333.152)" fill="#bddfb0"/>
      <path id="パス_281732" data-name="パス 281732" d="M7.349,0A7.349,7.349,0,1,1,0,7.349,7.349,7.349,0,0,1,7.349,0Z" transform="translate(346.217 411.542)" fill="#bddfb0"/>
      <path id="パス_281733" data-name="パス 281733" d="M7.349,0A7.349,7.349,0,1,1,0,7.349,7.349,7.349,0,0,1,7.349,0Z" transform="translate(219.652 137.181)" fill="#bddfb0"/>
      <path id="パス_281734" data-name="パス 281734" d="M7.349,0A7.349,7.349,0,1,1,0,7.349,7.349,7.349,0,0,1,7.349,0Z" transform="translate(472.782 137.181)" fill="#bddfb0"/>
      <path id="パス_281735" data-name="パス 281735" d="M7.349,0A7.349,7.349,0,1,1,0,7.349,7.349,7.349,0,0,1,7.349,0Z" transform="translate(219.652 333.152)" fill="#bddfb0"/>
      <path id="パス_281736" data-name="パス 281736" d="M7.349,0A7.349,7.349,0,1,1,0,7.349,7.349,7.349,0,0,1,7.349,0Z" transform="translate(219.652 411.542)" fill="#bddfb0"/>
      <path id="パス_281737" data-name="パス 281737" d="M7.349,0A7.349,7.349,0,1,1,0,7.349,7.349,7.349,0,0,1,7.349,0Z" transform="translate(472.782 333.152)" fill="#bddfb0"/>
      <path id="パス_281738" data-name="パス 281738" d="M7.349,0A7.349,7.349,0,1,1,0,7.349,7.349,7.349,0,0,1,7.349,0Z" transform="translate(472.782 411.542)" fill="#bddfb0"/>
      <path id="パス_281739" data-name="パス 281739" d="M7.349,0A7.349,7.349,0,1,1,0,7.349,7.349,7.349,0,0,1,7.349,0Z" transform="translate(28.579 137.181)" fill="#bddfb0"/>
      <path id="パス_281740" data-name="パス 281740" d="M7.349,0A7.349,7.349,0,1,1,0,7.349,7.349,7.349,0,0,1,7.349,0Z" transform="translate(281.71 137.181)" fill="#bddfb0"/>
      <path id="パス_281741" data-name="パス 281741" d="M7.349,0A7.349,7.349,0,1,1,0,7.349,7.349,7.349,0,0,1,7.349,0Z" transform="translate(28.579 333.152)" fill="#bddfb0"/>
      <path id="パス_281742" data-name="パス 281742" d="M7.349,0A7.349,7.349,0,1,1,0,7.349,7.349,7.349,0,0,1,7.349,0Z" transform="translate(28.579 411.542)" fill="#bddfb0"/>
      <path id="パス_281743" data-name="パス 281743" d="M7.349,0A7.349,7.349,0,1,1,0,7.349,7.349,7.349,0,0,1,7.349,0Z" transform="translate(281.71 333.152)" fill="#bddfb0"/>
      <path id="パス_281744" data-name="パス 281744" d="M7.349,0A7.349,7.349,0,1,1,0,7.349,7.349,7.349,0,0,1,7.349,0Z" transform="translate(281.71 411.542)" fill="#bddfb0"/>
      <path id="パス_281745" data-name="パス 281745" d="M7.349,0A7.349,7.349,0,1,1,0,7.349,7.349,7.349,0,0,1,7.349,0Z" transform="translate(155.145 137.181)" fill="#bddfb0"/>
      <path id="パス_281746" data-name="パス 281746" d="M7.349,0A7.349,7.349,0,1,1,0,7.349,7.349,7.349,0,0,1,7.349,0Z" transform="translate(408.275 137.181)" fill="#bddfb0"/>
      <path id="パス_281747" data-name="パス 281747" d="M7.349,0A7.349,7.349,0,1,1,0,7.349,7.349,7.349,0,0,1,7.349,0Z" transform="translate(155.145 333.152)" fill="#bddfb0"/>
      <path id="パス_281748" data-name="パス 281748" d="M7.349,0A7.349,7.349,0,1,1,0,7.349,7.349,7.349,0,0,1,7.349,0Z" transform="translate(155.145 411.542)" fill="#bddfb0"/>
      <path id="パス_281749" data-name="パス 281749" d="M7.349,0A7.349,7.349,0,1,1,0,7.349,7.349,7.349,0,0,1,7.349,0Z" transform="translate(408.275 333.152)" fill="#bddfb0"/>
      <path id="パス_281750" data-name="パス 281750" d="M7.349,0A7.349,7.349,0,1,1,0,7.349,7.349,7.349,0,0,1,7.349,0Z" transform="translate(408.275 411.542)" fill="#bddfb0"/>
      <path id="パス_281751" data-name="パス 281751" d="M7.349,0A7.349,7.349,0,1,1,0,7.349,7.349,7.349,0,0,1,7.349,0Z" transform="translate(97.169 0)" fill="#bddfb0"/>
      <path id="パス_281752" data-name="パス 281752" d="M7.349,0A7.349,7.349,0,1,1,0,7.349,7.349,7.349,0,0,1,7.349,0Z" transform="translate(350.3 0)" fill="#bddfb0"/>
      <path id="パス_281753" data-name="パス 281753" d="M7.349,0A7.349,7.349,0,1,1,0,7.349,7.349,7.349,0,0,1,7.349,0Z" transform="translate(97.169 195.972)" fill="#bddfb0"/>
      <path id="パス_281754" data-name="パス 281754" d="M7.349,0A7.349,7.349,0,1,1,0,7.349,7.349,7.349,0,0,1,7.349,0Z" transform="translate(350.3 195.972)" fill="#bddfb0"/>
      <path id="パス_281755" data-name="パス 281755" d="M7.349,0A7.349,7.349,0,1,1,0,7.349,7.349,7.349,0,0,1,7.349,0Z" transform="translate(223.735 0)" fill="#bddfb0"/>
      <path id="パス_281756" data-name="パス 281756" d="M7.349,0A7.349,7.349,0,1,1,0,7.349,7.349,7.349,0,0,1,7.349,0Z" transform="translate(476.866 0)" fill="#bddfb0"/>
      <path id="パス_281757" data-name="パス 281757" d="M7.349,0A7.349,7.349,0,1,1,0,7.349,7.349,7.349,0,0,1,7.349,0Z" transform="translate(223.735 195.972)" fill="#bddfb0"/>
      <path id="パス_281758" data-name="パス 281758" d="M7.349,0A7.349,7.349,0,1,1,0,7.349,7.349,7.349,0,0,1,7.349,0Z" transform="translate(476.866 195.972)" fill="#bddfb0"/>
      <path id="パス_281759" data-name="パス 281759" d="M7.349,0A7.349,7.349,0,1,1,0,7.349,7.349,7.349,0,0,1,7.349,0Z" transform="translate(117.583 0)" fill="#bddfb0"/>
      <path id="パス_281760" data-name="パス 281760" d="M7.349,0A7.349,7.349,0,1,1,0,7.349,7.349,7.349,0,0,1,7.349,0Z" transform="translate(370.714 0)" fill="#bddfb0"/>
      <path id="パス_281761" data-name="パス 281761" d="M7.349,0A7.349,7.349,0,1,1,0,7.349,7.349,7.349,0,0,1,7.349,0Z" transform="translate(117.583 195.972)" fill="#bddfb0"/>
      <path id="パス_281762" data-name="パス 281762" d="M7.349,0A7.349,7.349,0,1,1,0,7.349,7.349,7.349,0,0,1,7.349,0Z" transform="translate(370.714 195.972)" fill="#bddfb0"/>
      <path id="パス_281763" data-name="パス 281763" d="M7.349,0A7.349,7.349,0,1,1,0,7.349,7.349,7.349,0,0,1,7.349,0Z" transform="translate(244.149 0)" fill="#bddfb0"/>
      <path id="パス_281764" data-name="パス 281764" d="M7.349,0A7.349,7.349,0,1,1,0,7.349,7.349,7.349,0,0,1,7.349,0Z" transform="translate(497.279 0)" fill="#bddfb0"/>
      <path id="パス_281765" data-name="パス 281765" d="M7.349,0A7.349,7.349,0,1,1,0,7.349,7.349,7.349,0,0,1,7.349,0Z" transform="translate(244.149 195.972)" fill="#bddfb0"/>
      <path id="パス_281766" data-name="パス 281766" d="M7.349,0A7.349,7.349,0,1,1,0,7.349,7.349,7.349,0,0,1,7.349,0Z" transform="translate(497.279 195.972)" fill="#bddfb0"/>
      <path id="パス_281767" data-name="パス 281767" d="M7.349,0A7.349,7.349,0,1,1,0,7.349,7.349,7.349,0,0,1,7.349,0Z" transform="translate(117.583 39.194)" fill="#bddfb0"/>
      <path id="パス_281768" data-name="パス 281768" d="M7.349,0A7.349,7.349,0,1,1,0,7.349,7.349,7.349,0,0,1,7.349,0Z" transform="translate(370.714 39.194)" fill="#bddfb0"/>
      <path id="パス_281769" data-name="パス 281769" d="M7.349,0A7.349,7.349,0,1,1,0,7.349,7.349,7.349,0,0,1,7.349,0Z" transform="translate(117.583 235.167)" fill="#bddfb0"/>
      <path id="パス_281770" data-name="パス 281770" d="M7.349,0A7.349,7.349,0,1,1,0,7.349,7.349,7.349,0,0,1,7.349,0Z" transform="translate(370.714 235.167)" fill="#bddfb0"/>
      <path id="パス_281771" data-name="パス 281771" d="M7.349,0A7.349,7.349,0,1,1,0,7.349,7.349,7.349,0,0,1,7.349,0Z" transform="translate(244.149 39.194)" fill="#bddfb0"/>
      <path id="パス_281772" data-name="パス 281772" d="M7.349,0A7.349,7.349,0,1,1,0,7.349,7.349,7.349,0,0,1,7.349,0Z" transform="translate(497.279 39.194)" fill="#bddfb0"/>
      <path id="パス_281773" data-name="パス 281773" d="M7.349,0A7.349,7.349,0,1,1,0,7.349,7.349,7.349,0,0,1,7.349,0Z" transform="translate(244.149 235.167)" fill="#bddfb0"/>
      <path id="パス_281774" data-name="パス 281774" d="M7.349,0A7.349,7.349,0,1,1,0,7.349,7.349,7.349,0,0,1,7.349,0Z" transform="translate(497.279 235.167)" fill="#bddfb0"/>
      <path id="パス_281775" data-name="パス 281775" d="M7.349,0A7.349,7.349,0,1,1,0,7.349,7.349,7.349,0,0,1,7.349,0Z" transform="translate(117.583 78.389)" fill="#bddfb0"/>
      <path id="パス_281776" data-name="パス 281776" d="M7.349,0A7.349,7.349,0,1,1,0,7.349,7.349,7.349,0,0,1,7.349,0Z" transform="translate(370.714 78.389)" fill="#bddfb0"/>
      <path id="パス_281777" data-name="パス 281777" d="M7.349,0A7.349,7.349,0,1,1,0,7.349,7.349,7.349,0,0,1,7.349,0Z" transform="translate(117.583 274.361)" fill="#bddfb0"/>
      <path id="パス_281778" data-name="パス 281778" d="M7.349,0A7.349,7.349,0,1,1,0,7.349,7.349,7.349,0,0,1,7.349,0Z" transform="translate(370.714 274.361)" fill="#bddfb0"/>
      <path id="パス_281779" data-name="パス 281779" d="M7.349,0A7.349,7.349,0,1,1,0,7.349,7.349,7.349,0,0,1,7.349,0Z" transform="translate(244.149 78.389)" fill="#bddfb0"/>
      <path id="パス_281780" data-name="パス 281780" d="M7.349,0A7.349,7.349,0,1,1,0,7.349,7.349,7.349,0,0,1,7.349,0Z" transform="translate(497.279 78.389)" fill="#bddfb0"/>
      <path id="パス_281781" data-name="パス 281781" d="M7.349,0A7.349,7.349,0,1,1,0,7.349,7.349,7.349,0,0,1,7.349,0Z" transform="translate(244.149 274.361)" fill="#bddfb0"/>
      <path id="パス_281782" data-name="パス 281782" d="M7.349,0A7.349,7.349,0,1,1,0,7.349,7.349,7.349,0,0,1,7.349,0Z" transform="translate(497.279 274.361)" fill="#bddfb0"/>
      <path id="パス_281783" data-name="パス 281783" d="M7.349,0A7.349,7.349,0,1,1,0,7.349,7.349,7.349,0,0,1,7.349,0Z" transform="translate(32.662 0)" fill="#bddfb0"/>
      <path id="パス_281784" data-name="パス 281784" d="M7.349,0A7.349,7.349,0,1,1,0,7.349,7.349,7.349,0,0,1,7.349,0Z" transform="translate(285.792 0)" fill="#bddfb0"/>
      <path id="パス_281785" data-name="パス 281785" d="M7.349,0A7.349,7.349,0,1,1,0,7.349,7.349,7.349,0,0,1,7.349,0Z" transform="translate(32.662 195.972)" fill="#bddfb0"/>
      <path id="パス_281786" data-name="パス 281786" d="M7.349,0A7.349,7.349,0,1,1,0,7.349,7.349,7.349,0,0,1,7.349,0Z" transform="translate(285.792 195.972)" fill="#bddfb0"/>
      <path id="パス_281787" data-name="パス 281787" d="M7.349,0A7.349,7.349,0,1,1,0,7.349,7.349,7.349,0,0,1,7.349,0Z" transform="translate(159.227 0)" fill="#bddfb0"/>
      <path id="パス_281788" data-name="パス 281788" d="M7.349,0A7.349,7.349,0,1,1,0,7.349,7.349,7.349,0,0,1,7.349,0Z" transform="translate(412.358 0)" fill="#bddfb0"/>
      <path id="パス_281789" data-name="パス 281789" d="M7.349,0A7.349,7.349,0,1,1,0,7.349,7.349,7.349,0,0,1,7.349,0Z" transform="translate(159.227 195.972)" fill="#bddfb0"/>
      <path id="パス_281790" data-name="パス 281790" d="M7.349,0A7.349,7.349,0,1,1,0,7.349,7.349,7.349,0,0,1,7.349,0Z" transform="translate(412.358 195.972)" fill="#bddfb0"/>
      <path id="パス_281791" data-name="パス 281791" d="M7.349,0A7.349,7.349,0,1,1,0,7.349,7.349,7.349,0,0,1,7.349,0Z" transform="translate(111.868 97.986)" fill="#bddfb0"/>
      <path id="パス_281792" data-name="パス 281792" d="M7.349,0A7.349,7.349,0,1,1,0,7.349,7.349,7.349,0,0,1,7.349,0Z" transform="translate(364.998 97.986)" fill="#bddfb0"/>
      <path id="パス_281793" data-name="パス 281793" d="M7.349,0A7.349,7.349,0,1,1,0,7.349,7.349,7.349,0,0,1,7.349,0Z" transform="translate(111.868 293.958)" fill="#bddfb0"/>
      <path id="パス_281794" data-name="パス 281794" d="M7.349,0A7.349,7.349,0,1,1,0,7.349,7.349,7.349,0,0,1,7.349,0Z" transform="translate(364.998 293.958)" fill="#bddfb0"/>
      <path id="パス_281795" data-name="パス 281795" d="M7.349,0A7.349,7.349,0,1,1,0,7.349,7.349,7.349,0,0,1,7.349,0Z" transform="translate(238.433 97.986)" fill="#bddfb0"/>
      <path id="パス_281796" data-name="パス 281796" d="M7.349,0A7.349,7.349,0,1,1,0,7.349,7.349,7.349,0,0,1,7.349,0Z" transform="translate(491.563 97.986)" fill="#bddfb0"/>
      <path id="パス_281797" data-name="パス 281797" d="M7.349,0A7.349,7.349,0,1,1,0,7.349,7.349,7.349,0,0,1,7.349,0Z" transform="translate(238.433 293.958)" fill="#bddfb0"/>
      <path id="パス_281798" data-name="パス 281798" d="M7.349,0A7.349,7.349,0,1,1,0,7.349,7.349,7.349,0,0,1,7.349,0Z" transform="translate(491.563 293.958)" fill="#bddfb0"/>
      <path id="パス_281799" data-name="パス 281799" d="M7.349,0A7.349,7.349,0,1,1,0,7.349,7.349,7.349,0,0,1,7.349,0Z" transform="translate(47.36 97.986)" fill="#bddfb0"/>
      <path id="パス_281800" data-name="パス 281800" d="M7.349,0A7.349,7.349,0,1,1,0,7.349,7.349,7.349,0,0,1,7.349,0Z" transform="translate(300.491 97.986)" fill="#bddfb0"/>
      <path id="パス_281801" data-name="パス 281801" d="M7.349,0A7.349,7.349,0,1,1,0,7.349,7.349,7.349,0,0,1,7.349,0Z" transform="translate(47.36 293.958)" fill="#bddfb0"/>
      <path id="パス_281802" data-name="パス 281802" d="M7.349,0A7.349,7.349,0,1,1,0,7.349,7.349,7.349,0,0,1,7.349,0Z" transform="translate(300.491 293.958)" fill="#bddfb0"/>
      <path id="パス_281803" data-name="パス 281803" d="M7.349,0A7.349,7.349,0,1,1,0,7.349,7.349,7.349,0,0,1,7.349,0Z" transform="translate(173.925 97.986)" fill="#bddfb0"/>
      <path id="パス_281804" data-name="パス 281804" d="M7.349,0A7.349,7.349,0,1,1,0,7.349,7.349,7.349,0,0,1,7.349,0Z" transform="translate(427.056 97.986)" fill="#bddfb0"/>
      <path id="パス_281805" data-name="パス 281805" d="M7.349,0A7.349,7.349,0,1,1,0,7.349,7.349,7.349,0,0,1,7.349,0Z" transform="translate(173.925 293.958)" fill="#bddfb0"/>
      <path id="パス_281806" data-name="パス 281806" d="M7.349,0A7.349,7.349,0,1,1,0,7.349,7.349,7.349,0,0,1,7.349,0Z" transform="translate(427.056 293.958)" fill="#bddfb0"/>
      <path id="パス_281807" data-name="パス 281807" d="M7.349,0A7.349,7.349,0,1,1,0,7.349,7.349,7.349,0,0,1,7.349,0Z" transform="translate(111.868 19.597)" fill="#bddfb0"/>
      <path id="パス_281808" data-name="パス 281808" d="M7.349,0A7.349,7.349,0,1,1,0,7.349,7.349,7.349,0,0,1,7.349,0Z" transform="translate(364.998 19.597)" fill="#bddfb0"/>
      <path id="パス_281809" data-name="パス 281809" d="M7.349,0A7.349,7.349,0,1,1,0,7.349,7.349,7.349,0,0,1,7.349,0Z" transform="translate(111.868 215.569)" fill="#bddfb0"/>
      <path id="パス_281810" data-name="パス 281810" d="M7.349,0A7.349,7.349,0,1,1,0,7.349,7.349,7.349,0,0,1,7.349,0Z" transform="translate(364.998 215.569)" fill="#bddfb0"/>
      <path id="パス_281811" data-name="パス 281811" d="M7.349,0A7.349,7.349,0,1,1,0,7.349,7.349,7.349,0,0,1,7.349,0Z" transform="translate(238.433 19.597)" fill="#bddfb0"/>
      <path id="パス_281812" data-name="パス 281812" d="M7.349,0A7.349,7.349,0,1,1,0,7.349,7.349,7.349,0,0,1,7.349,0Z" transform="translate(491.563 19.597)" fill="#bddfb0"/>
      <path id="パス_281813" data-name="パス 281813" d="M7.349,0A7.349,7.349,0,1,1,0,7.349,7.349,7.349,0,0,1,7.349,0Z" transform="translate(238.433 215.569)" fill="#bddfb0"/>
      <path id="パス_281814" data-name="パス 281814" d="M7.349,0A7.349,7.349,0,1,1,0,7.349,7.349,7.349,0,0,1,7.349,0Z" transform="translate(491.563 215.569)" fill="#bddfb0"/>
      <path id="パス_281815" data-name="パス 281815" d="M7.349,0A7.349,7.349,0,1,1,0,7.349,7.349,7.349,0,0,1,7.349,0Z" transform="translate(47.36 19.597)" fill="#bddfb0"/>
      <path id="パス_281816" data-name="パス 281816" d="M7.349,0A7.349,7.349,0,1,1,0,7.349,7.349,7.349,0,0,1,7.349,0Z" transform="translate(300.491 19.597)" fill="#bddfb0"/>
      <path id="パス_281817" data-name="パス 281817" d="M7.349,0A7.349,7.349,0,1,1,0,7.349,7.349,7.349,0,0,1,7.349,0Z" transform="translate(47.36 215.569)" fill="#bddfb0"/>
      <path id="パス_281818" data-name="パス 281818" d="M7.349,0A7.349,7.349,0,1,1,0,7.349,7.349,7.349,0,0,1,7.349,0Z" transform="translate(300.491 215.569)" fill="#bddfb0"/>
      <path id="パス_281819" data-name="パス 281819" d="M7.349,0A7.349,7.349,0,1,1,0,7.349,7.349,7.349,0,0,1,7.349,0Z" transform="translate(173.925 19.597)" fill="#bddfb0"/>
      <path id="パス_281820" data-name="パス 281820" d="M7.349,0A7.349,7.349,0,1,1,0,7.349,7.349,7.349,0,0,1,7.349,0Z" transform="translate(427.056 19.597)" fill="#bddfb0"/>
      <path id="パス_281821" data-name="パス 281821" d="M7.349,0A7.349,7.349,0,1,1,0,7.349,7.349,7.349,0,0,1,7.349,0Z" transform="translate(173.925 215.569)" fill="#bddfb0"/>
      <path id="パス_281822" data-name="パス 281822" d="M7.349,0A7.349,7.349,0,1,1,0,7.349,7.349,7.349,0,0,1,7.349,0Z" transform="translate(427.056 215.569)" fill="#bddfb0"/>
      <path id="パス_281823" data-name="パス 281823" d="M7.349,0A7.349,7.349,0,1,1,0,7.349,7.349,7.349,0,0,1,7.349,0Z" transform="translate(0 117.583)" fill="#bddfb0"/>
      <path id="パス_281824" data-name="パス 281824" d="M7.349,0A7.349,7.349,0,1,1,0,7.349,7.349,7.349,0,0,1,7.349,0Z" transform="translate(253.13 117.583)" fill="#bddfb0"/>
      <path id="パス_281825" data-name="パス 281825" d="M7.349,0A7.349,7.349,0,1,1,0,7.349,7.349,7.349,0,0,1,7.349,0Z" transform="translate(0 313.555)" fill="#bddfb0"/>
      <path id="パス_281826" data-name="パス 281826" d="M7.349,0A7.349,7.349,0,1,1,0,7.349,7.349,7.349,0,0,1,7.349,0Z" transform="translate(0 391.944)" fill="#bddfb0"/>
      <path id="パス_281827" data-name="パス 281827" d="M7.349,0A7.349,7.349,0,1,1,0,7.349,7.349,7.349,0,0,1,7.349,0Z" transform="translate(253.13 313.555)" fill="#bddfb0"/>
      <path id="パス_281828" data-name="パス 281828" d="M7.349,0A7.349,7.349,0,1,1,0,7.349,7.349,7.349,0,0,1,7.349,0Z" transform="translate(253.13 391.944)" fill="#bddfb0"/>
      <path id="パス_281829" data-name="パス 281829" d="M7.349,0A7.349,7.349,0,1,1,0,7.349,7.349,7.349,0,0,1,7.349,0Z" transform="translate(126.565 117.583)" fill="#bddfb0"/>
      <path id="パス_281830" data-name="パス 281830" d="M7.349,0A7.349,7.349,0,1,1,0,7.349,7.349,7.349,0,0,1,7.349,0Z" transform="translate(379.695 117.583)" fill="#bddfb0"/>
      <path id="パス_281831" data-name="パス 281831" d="M7.349,0A7.349,7.349,0,1,1,0,7.349,7.349,7.349,0,0,1,7.349,0Z" transform="translate(126.565 313.555)" fill="#bddfb0"/>
      <path id="パス_281832" data-name="パス 281832" d="M7.349,0A7.349,7.349,0,1,1,0,7.349,7.349,7.349,0,0,1,7.349,0Z" transform="translate(126.565 391.944)" fill="#bddfb0"/>
      <path id="パス_281833" data-name="パス 281833" d="M7.349,0A7.349,7.349,0,1,1,0,7.349,7.349,7.349,0,0,1,7.349,0Z" transform="translate(379.695 313.555)" fill="#bddfb0"/>
      <path id="パス_281834" data-name="パス 281834" d="M7.349,0A7.349,7.349,0,1,1,0,7.349,7.349,7.349,0,0,1,7.349,0Z" transform="translate(379.695 391.944)" fill="#bddfb0"/>
      <path id="パス_281835" data-name="パス 281835" d="M7.349,0A7.349,7.349,0,1,1,0,7.349,7.349,7.349,0,0,1,7.349,0Z" transform="translate(62.058 117.583)" fill="#bddfb0"/>
      <path id="パス_281836" data-name="パス 281836" d="M7.349,0A7.349,7.349,0,1,1,0,7.349,7.349,7.349,0,0,1,7.349,0Z" transform="translate(315.189 117.583)" fill="#bddfb0"/>
      <path id="パス_281837" data-name="パス 281837" d="M7.349,0A7.349,7.349,0,1,1,0,7.349,7.349,7.349,0,0,1,7.349,0Z" transform="translate(62.058 313.555)" fill="#bddfb0"/>
      <path id="パス_281838" data-name="パス 281838" d="M7.349,0A7.349,7.349,0,1,1,0,7.349,7.349,7.349,0,0,1,7.349,0Z" transform="translate(62.058 391.944)" fill="#bddfb0"/>
      <path id="パス_281839" data-name="パス 281839" d="M7.349,0A7.349,7.349,0,1,1,0,7.349,7.349,7.349,0,0,1,7.349,0Z" transform="translate(315.189 313.555)" fill="#bddfb0"/>
      <path id="パス_281840" data-name="パス 281840" d="M7.349,0A7.349,7.349,0,1,1,0,7.349,7.349,7.349,0,0,1,7.349,0Z" transform="translate(315.189 391.944)" fill="#bddfb0"/>
      <path id="パス_281841" data-name="パス 281841" d="M7.349,0A7.349,7.349,0,1,1,0,7.349,7.349,7.349,0,0,1,7.349,0Z" transform="translate(188.623 117.583)" fill="#bddfb0"/>
      <path id="パス_281842" data-name="パス 281842" d="M7.349,0A7.349,7.349,0,1,1,0,7.349,7.349,7.349,0,0,1,7.349,0Z" transform="translate(441.754 117.583)" fill="#bddfb0"/>
      <path id="パス_281843" data-name="パス 281843" d="M7.349,0A7.349,7.349,0,1,1,0,7.349,7.349,7.349,0,0,1,7.349,0Z" transform="translate(188.623 313.555)" fill="#bddfb0"/>
      <path id="パス_281844" data-name="パス 281844" d="M7.349,0A7.349,7.349,0,1,1,0,7.349,7.349,7.349,0,0,1,7.349,0Z" transform="translate(188.623 391.944)" fill="#bddfb0"/>
      <path id="パス_281845" data-name="パス 281845" d="M7.349,0A7.349,7.349,0,1,1,0,7.349,7.349,7.349,0,0,1,7.349,0Z" transform="translate(441.754 313.555)" fill="#bddfb0"/>
      <path id="パス_281846" data-name="パス 281846" d="M7.349,0A7.349,7.349,0,1,1,0,7.349,7.349,7.349,0,0,1,7.349,0Z" transform="translate(441.754 391.944)" fill="#bddfb0"/>
      <path id="パス_281847" data-name="パス 281847" d="M7.349,0A7.349,7.349,0,1,1,0,7.349,7.349,7.349,0,0,1,7.349,0Z" transform="translate(111.868 58.791)" fill="#bddfb0"/>
      <path id="パス_281848" data-name="パス 281848" d="M7.349,0A7.349,7.349,0,1,1,0,7.349,7.349,7.349,0,0,1,7.349,0Z" transform="translate(364.998 58.791)" fill="#bddfb0"/>
      <path id="パス_281849" data-name="パス 281849" d="M7.349,0A7.349,7.349,0,1,1,0,7.349,7.349,7.349,0,0,1,7.349,0Z" transform="translate(111.868 254.764)" fill="#bddfb0"/>
      <path id="パス_281850" data-name="パス 281850" d="M7.349,0A7.349,7.349,0,1,1,0,7.349,7.349,7.349,0,0,1,7.349,0Z" transform="translate(364.998 254.764)" fill="#bddfb0"/>
      <path id="パス_281851" data-name="パス 281851" d="M7.349,0A7.349,7.349,0,1,1,0,7.349,7.349,7.349,0,0,1,7.349,0Z" transform="translate(238.433 58.791)" fill="#bddfb0"/>
      <path id="パス_281852" data-name="パス 281852" d="M7.349,0A7.349,7.349,0,1,1,0,7.349,7.349,7.349,0,0,1,7.349,0Z" transform="translate(491.563 58.791)" fill="#bddfb0"/>
      <path id="パス_281853" data-name="パス 281853" d="M7.349,0A7.349,7.349,0,1,1,0,7.349,7.349,7.349,0,0,1,7.349,0Z" transform="translate(238.433 254.764)" fill="#bddfb0"/>
      <path id="パス_281854" data-name="パス 281854" d="M7.349,0A7.349,7.349,0,1,1,0,7.349,7.349,7.349,0,0,1,7.349,0Z" transform="translate(491.563 254.764)" fill="#bddfb0"/>
      <path id="パス_281855" data-name="パス 281855" d="M7.349,0A7.349,7.349,0,1,1,0,7.349,7.349,7.349,0,0,1,7.349,0Z" transform="translate(47.36 58.791)" fill="#bddfb0"/>
      <path id="パス_281856" data-name="パス 281856" d="M7.349,0A7.349,7.349,0,1,1,0,7.349,7.349,7.349,0,0,1,7.349,0Z" transform="translate(300.491 58.791)" fill="#bddfb0"/>
      <path id="パス_281857" data-name="パス 281857" d="M7.349,0A7.349,7.349,0,1,1,0,7.349,7.349,7.349,0,0,1,7.349,0Z" transform="translate(47.36 254.764)" fill="#bddfb0"/>
      <path id="パス_281858" data-name="パス 281858" d="M7.349,0A7.349,7.349,0,1,1,0,7.349,7.349,7.349,0,0,1,7.349,0Z" transform="translate(300.491 254.764)" fill="#bddfb0"/>
      <path id="パス_281859" data-name="パス 281859" d="M7.349,0A7.349,7.349,0,1,1,0,7.349,7.349,7.349,0,0,1,7.349,0Z" transform="translate(173.925 58.791)" fill="#bddfb0"/>
      <path id="パス_281860" data-name="パス 281860" d="M7.349,0A7.349,7.349,0,1,1,0,7.349,7.349,7.349,0,0,1,7.349,0Z" transform="translate(427.056 58.791)" fill="#bddfb0"/>
      <path id="パス_281861" data-name="パス 281861" d="M7.349,0A7.349,7.349,0,1,1,0,7.349,7.349,7.349,0,0,1,7.349,0Z" transform="translate(173.925 254.764)" fill="#bddfb0"/>
      <path id="パス_281862" data-name="パス 281862" d="M7.349,0A7.349,7.349,0,1,1,0,7.349,7.349,7.349,0,0,1,7.349,0Z" transform="translate(427.056 254.764)" fill="#bddfb0"/>
      <path id="パス_281863" data-name="パス 281863" d="M7.349,0A7.349,7.349,0,1,1,0,7.349,7.349,7.349,0,0,1,7.349,0Z" transform="translate(0 156.778)" fill="#bddfb0"/>
      <path id="パス_281864" data-name="パス 281864" d="M7.349,0A7.349,7.349,0,1,1,0,7.349,7.349,7.349,0,0,1,7.349,0Z" transform="translate(253.13 156.778)" fill="#bddfb0"/>
      <path id="パス_281865" data-name="パス 281865" d="M7.349,0A7.349,7.349,0,1,1,0,7.349,7.349,7.349,0,0,1,7.349,0Z" transform="translate(0 352.75)" fill="#bddfb0"/>
      <path id="パス_281866" data-name="パス 281866" d="M7.349,0A7.349,7.349,0,1,1,0,7.349,7.349,7.349,0,0,1,7.349,0Z" transform="translate(0 431.139)" fill="#bddfb0"/>
      <path id="パス_281867" data-name="パス 281867" d="M7.349,0A7.349,7.349,0,1,1,0,7.349,7.349,7.349,0,0,1,7.349,0Z" transform="translate(253.13 352.75)" fill="#bddfb0"/>
      <path id="パス_281868" data-name="パス 281868" d="M7.349,0A7.349,7.349,0,1,1,0,7.349,7.349,7.349,0,0,1,7.349,0Z" transform="translate(253.13 431.139)" fill="#bddfb0"/>
      <path id="パス_281869" data-name="パス 281869" d="M7.349,0A7.349,7.349,0,1,1,0,7.349,7.349,7.349,0,0,1,7.349,0Z" transform="translate(126.565 156.778)" fill="#bddfb0"/>
      <path id="パス_281870" data-name="パス 281870" d="M7.349,0A7.349,7.349,0,1,1,0,7.349,7.349,7.349,0,0,1,7.349,0Z" transform="translate(379.695 156.778)" fill="#bddfb0"/>
      <path id="パス_281871" data-name="パス 281871" d="M7.349,0A7.349,7.349,0,1,1,0,7.349,7.349,7.349,0,0,1,7.349,0Z" transform="translate(126.565 352.75)" fill="#bddfb0"/>
      <path id="パス_281872" data-name="パス 281872" d="M7.349,0A7.349,7.349,0,1,1,0,7.349,7.349,7.349,0,0,1,7.349,0Z" transform="translate(126.565 431.139)" fill="#bddfb0"/>
      <path id="パス_281873" data-name="パス 281873" d="M7.349,0A7.349,7.349,0,1,1,0,7.349,7.349,7.349,0,0,1,7.349,0Z" transform="translate(379.695 352.75)" fill="#bddfb0"/>
      <path id="パス_281874" data-name="パス 281874" d="M7.349,0A7.349,7.349,0,1,1,0,7.349,7.349,7.349,0,0,1,7.349,0Z" transform="translate(379.695 431.139)" fill="#bddfb0"/>
      <path id="パス_281875" data-name="パス 281875" d="M7.349,0A7.349,7.349,0,1,1,0,7.349,7.349,7.349,0,0,1,7.349,0Z" transform="translate(62.058 156.778)" fill="#bddfb0"/>
      <path id="パス_281876" data-name="パス 281876" d="M7.349,0A7.349,7.349,0,1,1,0,7.349,7.349,7.349,0,0,1,7.349,0Z" transform="translate(315.189 156.778)" fill="#bddfb0"/>
      <path id="パス_281877" data-name="パス 281877" d="M7.349,0A7.349,7.349,0,1,1,0,7.349,7.349,7.349,0,0,1,7.349,0Z" transform="translate(62.058 352.75)" fill="#bddfb0"/>
      <path id="パス_281878" data-name="パス 281878" d="M7.349,0A7.349,7.349,0,1,1,0,7.349,7.349,7.349,0,0,1,7.349,0Z" transform="translate(62.058 431.139)" fill="#bddfb0"/>
      <path id="パス_281879" data-name="パス 281879" d="M7.349,0A7.349,7.349,0,1,1,0,7.349,7.349,7.349,0,0,1,7.349,0Z" transform="translate(315.189 352.75)" fill="#bddfb0"/>
      <path id="パス_281880" data-name="パス 281880" d="M7.349,0A7.349,7.349,0,1,1,0,7.349,7.349,7.349,0,0,1,7.349,0Z" transform="translate(315.189 431.139)" fill="#bddfb0"/>
      <path id="パス_281881" data-name="パス 281881" d="M7.349,0A7.349,7.349,0,1,1,0,7.349,7.349,7.349,0,0,1,7.349,0Z" transform="translate(188.623 156.778)" fill="#bddfb0"/>
      <path id="パス_281882" data-name="パス 281882" d="M7.349,0A7.349,7.349,0,1,1,0,7.349,7.349,7.349,0,0,1,7.349,0Z" transform="translate(441.754 156.778)" fill="#bddfb0"/>
      <path id="パス_281883" data-name="パス 281883" d="M7.349,0A7.349,7.349,0,1,1,0,7.349,7.349,7.349,0,0,1,7.349,0Z" transform="translate(188.623 352.75)" fill="#bddfb0"/>
      <path id="パス_281884" data-name="パス 281884" d="M7.349,0A7.349,7.349,0,1,1,0,7.349,7.349,7.349,0,0,1,7.349,0Z" transform="translate(188.623 431.139)" fill="#bddfb0"/>
      <path id="パス_281885" data-name="パス 281885" d="M7.349,0A7.349,7.349,0,1,1,0,7.349,7.349,7.349,0,0,1,7.349,0Z" transform="translate(441.754 352.75)" fill="#bddfb0"/>
      <path id="パス_281886" data-name="パス 281886" d="M7.349,0A7.349,7.349,0,1,1,0,7.349,7.349,7.349,0,0,1,7.349,0Z" transform="translate(441.754 431.139)" fill="#bddfb0"/>
      <path id="パス_281887" data-name="パス 281887" d="M7.349,0A7.349,7.349,0,1,1,0,7.349,7.349,7.349,0,0,1,7.349,0Z" transform="translate(97.169 78.389)" fill="#bddfb0"/>
      <path id="パス_281888" data-name="パス 281888" d="M7.349,0A7.349,7.349,0,1,1,0,7.349,7.349,7.349,0,0,1,7.349,0Z" transform="translate(350.3 78.389)" fill="#bddfb0"/>
      <path id="パス_281889" data-name="パス 281889" d="M7.349,0A7.349,7.349,0,1,1,0,7.349,7.349,7.349,0,0,1,7.349,0Z" transform="translate(97.169 274.361)" fill="#bddfb0"/>
      <path id="パス_281890" data-name="パス 281890" d="M7.349,0A7.349,7.349,0,1,1,0,7.349,7.349,7.349,0,0,1,7.349,0Z" transform="translate(350.3 274.361)" fill="#bddfb0"/>
      <path id="パス_281891" data-name="パス 281891" d="M7.349,0A7.349,7.349,0,1,1,0,7.349,7.349,7.349,0,0,1,7.349,0Z" transform="translate(223.735 78.389)" fill="#bddfb0"/>
      <path id="パス_281892" data-name="パス 281892" d="M7.349,0A7.349,7.349,0,1,1,0,7.349,7.349,7.349,0,0,1,7.349,0Z" transform="translate(476.866 78.389)" fill="#bddfb0"/>
      <path id="パス_281893" data-name="パス 281893" d="M7.349,0A7.349,7.349,0,1,1,0,7.349,7.349,7.349,0,0,1,7.349,0Z" transform="translate(223.735 274.361)" fill="#bddfb0"/>
      <path id="パス_281894" data-name="パス 281894" d="M7.349,0A7.349,7.349,0,1,1,0,7.349,7.349,7.349,0,0,1,7.349,0Z" transform="translate(476.866 274.361)" fill="#bddfb0"/>
      <path id="パス_281895" data-name="パス 281895" d="M7.349,0A7.349,7.349,0,1,1,0,7.349,7.349,7.349,0,0,1,7.349,0Z" transform="translate(32.662 78.389)" fill="#bddfb0"/>
      <path id="パス_281896" data-name="パス 281896" d="M7.349,0A7.349,7.349,0,1,1,0,7.349,7.349,7.349,0,0,1,7.349,0Z" transform="translate(285.792 78.389)" fill="#bddfb0"/>
      <path id="パス_281897" data-name="パス 281897" d="M7.349,0A7.349,7.349,0,1,1,0,7.349,7.349,7.349,0,0,1,7.349,0Z" transform="translate(32.662 274.361)" fill="#bddfb0"/>
      <path id="パス_281898" data-name="パス 281898" d="M7.349,0A7.349,7.349,0,1,1,0,7.349,7.349,7.349,0,0,1,7.349,0Z" transform="translate(285.792 274.361)" fill="#bddfb0"/>
      <path id="パス_281899" data-name="パス 281899" d="M7.349,0A7.349,7.349,0,1,1,0,7.349,7.349,7.349,0,0,1,7.349,0Z" transform="translate(159.227 78.389)" fill="#bddfb0"/>
      <path id="パス_281900" data-name="パス 281900" d="M7.349,0A7.349,7.349,0,1,1,0,7.349,7.349,7.349,0,0,1,7.349,0Z" transform="translate(412.358 78.389)" fill="#bddfb0"/>
      <path id="パス_281901" data-name="パス 281901" d="M7.349,0A7.349,7.349,0,1,1,0,7.349,7.349,7.349,0,0,1,7.349,0Z" transform="translate(159.227 274.361)" fill="#bddfb0"/>
      <path id="パス_281902" data-name="パス 281902" d="M7.349,0A7.349,7.349,0,1,1,0,7.349,7.349,7.349,0,0,1,7.349,0Z" transform="translate(412.358 274.361)" fill="#bddfb0"/>
      <path id="パス_281903" data-name="パス 281903" d="M7.349,0A7.349,7.349,0,1,1,0,7.349,7.349,7.349,0,0,1,7.349,0Z" transform="translate(111.868 176.375)" fill="#bddfb0"/>
      <path id="パス_281904" data-name="パス 281904" d="M7.349,0A7.349,7.349,0,1,1,0,7.349,7.349,7.349,0,0,1,7.349,0Z" transform="translate(364.998 176.375)" fill="#bddfb0"/>
      <path id="パス_281905" data-name="パス 281905" d="M7.349,0A7.349,7.349,0,1,1,0,7.349,7.349,7.349,0,0,1,7.349,0Z" transform="translate(111.868 372.347)" fill="#bddfb0"/>
      <path id="パス_281906" data-name="パス 281906" d="M7.349,0A7.349,7.349,0,1,1,0,7.349,7.349,7.349,0,0,1,7.349,0Z" transform="translate(111.868 450.736)" fill="#bddfb0"/>
      <path id="パス_281907" data-name="パス 281907" d="M7.349,0A7.349,7.349,0,1,1,0,7.349,7.349,7.349,0,0,1,7.349,0Z" transform="translate(364.998 372.347)" fill="#bddfb0"/>
      <path id="パス_281908" data-name="パス 281908" d="M7.349,0A7.349,7.349,0,1,1,0,7.349,7.349,7.349,0,0,1,7.349,0Z" transform="translate(364.998 450.736)" fill="#bddfb0"/>
      <path id="パス_281909" data-name="パス 281909" d="M7.349,0A7.349,7.349,0,1,1,0,7.349,7.349,7.349,0,0,1,7.349,0Z" transform="translate(238.433 176.375)" fill="#bddfb0"/>
      <path id="パス_281910" data-name="パス 281910" d="M7.349,0A7.349,7.349,0,1,1,0,7.349,7.349,7.349,0,0,1,7.349,0Z" transform="translate(491.563 176.375)" fill="#bddfb0"/>
      <path id="パス_281911" data-name="パス 281911" d="M7.349,0A7.349,7.349,0,1,1,0,7.349,7.349,7.349,0,0,1,7.349,0Z" transform="translate(238.433 372.347)" fill="#bddfb0"/>
      <path id="パス_281912" data-name="パス 281912" d="M7.349,0A7.349,7.349,0,1,1,0,7.349,7.349,7.349,0,0,1,7.349,0Z" transform="translate(238.433 450.736)" fill="#bddfb0"/>
      <path id="パス_281913" data-name="パス 281913" d="M7.349,0A7.349,7.349,0,1,1,0,7.349,7.349,7.349,0,0,1,7.349,0Z" transform="translate(491.563 372.347)" fill="#bddfb0"/>
      <path id="パス_281914" data-name="パス 281914" d="M7.349,0A7.349,7.349,0,1,1,0,7.349,7.349,7.349,0,0,1,7.349,0Z" transform="translate(491.563 450.736)" fill="#bddfb0"/>
      <path id="パス_281915" data-name="パス 281915" d="M7.349,0A7.349,7.349,0,1,1,0,7.349,7.349,7.349,0,0,1,7.349,0Z" transform="translate(47.36 176.375)" fill="#bddfb0"/>
      <path id="パス_281916" data-name="パス 281916" d="M7.349,0A7.349,7.349,0,1,1,0,7.349,7.349,7.349,0,0,1,7.349,0Z" transform="translate(300.491 176.375)" fill="#bddfb0"/>
      <path id="パス_281917" data-name="パス 281917" d="M7.349,0A7.349,7.349,0,1,1,0,7.349,7.349,7.349,0,0,1,7.349,0Z" transform="translate(47.36 372.347)" fill="#bddfb0"/>
      <path id="パス_281918" data-name="パス 281918" d="M7.349,0A7.349,7.349,0,1,1,0,7.349,7.349,7.349,0,0,1,7.349,0Z" transform="translate(47.36 450.736)" fill="#bddfb0"/>
      <path id="パス_281919" data-name="パス 281919" d="M7.349,0A7.349,7.349,0,1,1,0,7.349,7.349,7.349,0,0,1,7.349,0Z" transform="translate(300.491 372.347)" fill="#bddfb0"/>
      <path id="パス_281920" data-name="パス 281920" d="M7.349,0A7.349,7.349,0,1,1,0,7.349,7.349,7.349,0,0,1,7.349,0Z" transform="translate(300.491 450.736)" fill="#bddfb0"/>
      <path id="パス_281921" data-name="パス 281921" d="M7.349,0A7.349,7.349,0,1,1,0,7.349,7.349,7.349,0,0,1,7.349,0Z" transform="translate(173.925 176.375)" fill="#bddfb0"/>
      <path id="パス_281922" data-name="パス 281922" d="M7.349,0A7.349,7.349,0,1,1,0,7.349,7.349,7.349,0,0,1,7.349,0Z" transform="translate(427.056 176.375)" fill="#bddfb0"/>
      <path id="パス_281923" data-name="パス 281923" d="M7.349,0A7.349,7.349,0,1,1,0,7.349,7.349,7.349,0,0,1,7.349,0Z" transform="translate(173.925 372.347)" fill="#bddfb0"/>
      <path id="パス_281924" data-name="パス 281924" d="M7.349,0A7.349,7.349,0,1,1,0,7.349,7.349,7.349,0,0,1,7.349,0Z" transform="translate(173.925 450.736)" fill="#bddfb0"/>
      <path id="パス_281925" data-name="パス 281925" d="M7.349,0A7.349,7.349,0,1,1,0,7.349,7.349,7.349,0,0,1,7.349,0Z" transform="translate(427.056 372.347)" fill="#bddfb0"/>
      <path id="パス_281926" data-name="パス 281926" d="M7.349,0A7.349,7.349,0,1,1,0,7.349,7.349,7.349,0,0,1,7.349,0Z" transform="translate(427.056 450.736)" fill="#bddfb0"/>
      <path id="パス_281927" data-name="パス 281927" d="M7.349,0A7.349,7.349,0,1,1,0,7.349,7.349,7.349,0,0,1,7.349,0Z" transform="translate(98.803 39.194)" fill="#bddfb0"/>
      <path id="パス_281928" data-name="パス 281928" d="M7.349,0A7.349,7.349,0,1,1,0,7.349,7.349,7.349,0,0,1,7.349,0Z" transform="translate(351.933 39.194)" fill="#bddfb0"/>
      <path id="パス_281929" data-name="パス 281929" d="M7.349,0A7.349,7.349,0,1,1,0,7.349,7.349,7.349,0,0,1,7.349,0Z" transform="translate(98.803 235.167)" fill="#bddfb0"/>
      <path id="パス_281930" data-name="パス 281930" d="M7.349,0A7.349,7.349,0,1,1,0,7.349,7.349,7.349,0,0,1,7.349,0Z" transform="translate(351.933 235.167)" fill="#bddfb0"/>
      <path id="パス_281931" data-name="パス 281931" d="M7.349,0A7.349,7.349,0,1,1,0,7.349,7.349,7.349,0,0,1,7.349,0Z" transform="translate(225.368 39.194)" fill="#bddfb0"/>
      <path id="パス_281932" data-name="パス 281932" d="M7.349,0A7.349,7.349,0,1,1,0,7.349,7.349,7.349,0,0,1,7.349,0Z" transform="translate(478.498 39.194)" fill="#bddfb0"/>
      <path id="パス_281933" data-name="パス 281933" d="M7.349,0A7.349,7.349,0,1,1,0,7.349,7.349,7.349,0,0,1,7.349,0Z" transform="translate(225.368 235.167)" fill="#bddfb0"/>
      <path id="パス_281934" data-name="パス 281934" d="M7.349,0A7.349,7.349,0,1,1,0,7.349,7.349,7.349,0,0,1,7.349,0Z" transform="translate(478.498 235.167)" fill="#bddfb0"/>
      <path id="パス_281935" data-name="パス 281935" d="M7.349,0A7.349,7.349,0,1,1,0,7.349,7.349,7.349,0,0,1,7.349,0Z" transform="translate(34.296 39.194)" fill="#bddfb0"/>
      <path id="パス_281936" data-name="パス 281936" d="M7.349,0A7.349,7.349,0,1,1,0,7.349,7.349,7.349,0,0,1,7.349,0Z" transform="translate(287.426 39.194)" fill="#bddfb0"/>
      <path id="パス_281937" data-name="パス 281937" d="M7.349,0A7.349,7.349,0,1,1,0,7.349,7.349,7.349,0,0,1,7.349,0Z" transform="translate(34.296 235.167)" fill="#bddfb0"/>
      <path id="パス_281938" data-name="パス 281938" d="M7.349,0A7.349,7.349,0,1,1,0,7.349,7.349,7.349,0,0,1,7.349,0Z" transform="translate(287.426 235.167)" fill="#bddfb0"/>
      <path id="パス_281939" data-name="パス 281939" d="M7.349,0A7.349,7.349,0,1,1,0,7.349,7.349,7.349,0,0,1,7.349,0Z" transform="translate(160.861 39.194)" fill="#bddfb0"/>
      <path id="パス_281940" data-name="パス 281940" d="M7.349,0A7.349,7.349,0,1,1,0,7.349,7.349,7.349,0,0,1,7.349,0Z" transform="translate(413.991 39.194)" fill="#bddfb0"/>
      <path id="パス_281941" data-name="パス 281941" d="M7.349,0A7.349,7.349,0,1,1,0,7.349,7.349,7.349,0,0,1,7.349,0Z" transform="translate(160.861 235.167)" fill="#bddfb0"/>
      <path id="パス_281942" data-name="パス 281942" d="M7.349,0A7.349,7.349,0,1,1,0,7.349,7.349,7.349,0,0,1,7.349,0Z" transform="translate(413.991 235.167)" fill="#bddfb0"/>
      <path id="パス_281943" data-name="パス 281943" d="M7.349,0A7.349,7.349,0,1,1,0,7.349,7.349,7.349,0,0,1,7.349,0Z" transform="translate(113.5 137.181)" fill="#bddfb0"/>
      <path id="パス_281944" data-name="パス 281944" d="M7.349,0A7.349,7.349,0,1,1,0,7.349,7.349,7.349,0,0,1,7.349,0Z" transform="translate(366.631 137.181)" fill="#bddfb0"/>
      <path id="パス_281945" data-name="パス 281945" d="M7.349,0A7.349,7.349,0,1,1,0,7.349,7.349,7.349,0,0,1,7.349,0Z" transform="translate(113.5 333.152)" fill="#bddfb0"/>
      <path id="パス_281946" data-name="パス 281946" d="M7.349,0A7.349,7.349,0,1,1,0,7.349,7.349,7.349,0,0,1,7.349,0Z" transform="translate(113.5 411.542)" fill="#bddfb0"/>
      <path id="パス_281947" data-name="パス 281947" d="M7.349,0A7.349,7.349,0,1,1,0,7.349,7.349,7.349,0,0,1,7.349,0Z" transform="translate(366.631 333.152)" fill="#bddfb0"/>
      <path id="パス_281948" data-name="パス 281948" d="M7.349,0A7.349,7.349,0,1,1,0,7.349,7.349,7.349,0,0,1,7.349,0Z" transform="translate(366.631 411.542)" fill="#bddfb0"/>
      <path id="パス_281949" data-name="パス 281949" d="M7.349,0A7.349,7.349,0,1,1,0,7.349,7.349,7.349,0,0,1,7.349,0Z" transform="translate(240.066 137.181)" fill="#bddfb0"/>
      <path id="パス_281950" data-name="パス 281950" d="M7.349,0A7.349,7.349,0,1,1,0,7.349,7.349,7.349,0,0,1,7.349,0Z" transform="translate(493.197 137.181)" fill="#bddfb0"/>
      <path id="パス_281951" data-name="パス 281951" d="M7.349,0A7.349,7.349,0,1,1,0,7.349,7.349,7.349,0,0,1,7.349,0Z" transform="translate(240.066 333.152)" fill="#bddfb0"/>
      <path id="パス_281952" data-name="パス 281952" d="M7.349,0A7.349,7.349,0,1,1,0,7.349,7.349,7.349,0,0,1,7.349,0Z" transform="translate(240.066 411.542)" fill="#bddfb0"/>
      <path id="パス_281953" data-name="パス 281953" d="M7.349,0A7.349,7.349,0,1,1,0,7.349,7.349,7.349,0,0,1,7.349,0Z" transform="translate(493.197 333.152)" fill="#bddfb0"/>
      <path id="パス_281954" data-name="パス 281954" d="M7.349,0A7.349,7.349,0,1,1,0,7.349,7.349,7.349,0,0,1,7.349,0Z" transform="translate(493.197 411.542)" fill="#bddfb0"/>
      <path id="パス_281955" data-name="パス 281955" d="M7.349,0A7.349,7.349,0,1,1,0,7.349,7.349,7.349,0,0,1,7.349,0Z" transform="translate(48.993 137.181)" fill="#bddfb0"/>
      <path id="パス_281956" data-name="パス 281956" d="M7.349,0A7.349,7.349,0,1,1,0,7.349,7.349,7.349,0,0,1,7.349,0Z" transform="translate(302.123 137.181)" fill="#bddfb0"/>
      <path id="パス_281957" data-name="パス 281957" d="M7.349,0A7.349,7.349,0,1,1,0,7.349,7.349,7.349,0,0,1,7.349,0Z" transform="translate(48.993 333.152)" fill="#bddfb0"/>
      <path id="パス_281958" data-name="パス 281958" d="M7.349,0A7.349,7.349,0,1,1,0,7.349,7.349,7.349,0,0,1,7.349,0Z" transform="translate(48.993 411.542)" fill="#bddfb0"/>
      <path id="パス_281959" data-name="パス 281959" d="M7.349,0A7.349,7.349,0,1,1,0,7.349,7.349,7.349,0,0,1,7.349,0Z" transform="translate(302.123 333.152)" fill="#bddfb0"/>
      <path id="パス_281960" data-name="パス 281960" d="M7.349,0A7.349,7.349,0,1,1,0,7.349,7.349,7.349,0,0,1,7.349,0Z" transform="translate(302.123 411.542)" fill="#bddfb0"/>
      <path id="パス_281961" data-name="パス 281961" d="M7.349,0A7.349,7.349,0,1,1,0,7.349,7.349,7.349,0,0,1,7.349,0Z" transform="translate(175.558 137.181)" fill="#bddfb0"/>
      <path id="パス_281962" data-name="パス 281962" d="M7.349,0A7.349,7.349,0,1,1,0,7.349,7.349,7.349,0,0,1,7.349,0Z" transform="translate(428.689 137.181)" fill="#bddfb0"/>
      <path id="パス_281963" data-name="パス 281963" d="M7.349,0A7.349,7.349,0,1,1,0,7.349,7.349,7.349,0,0,1,7.349,0Z" transform="translate(175.558 333.152)" fill="#bddfb0"/>
      <path id="パス_281964" data-name="パス 281964" d="M7.349,0A7.349,7.349,0,1,1,0,7.349,7.349,7.349,0,0,1,7.349,0Z" transform="translate(175.558 411.542)" fill="#bddfb0"/>
      <path id="パス_281965" data-name="パス 281965" d="M7.349,0A7.349,7.349,0,1,1,0,7.349,7.349,7.349,0,0,1,7.349,0Z" transform="translate(428.689 333.152)" fill="#bddfb0"/>
      <path id="パス_281966" data-name="パス 281966" d="M7.349,0A7.349,7.349,0,1,1,0,7.349,7.349,7.349,0,0,1,7.349,0Z" transform="translate(428.689 411.542)" fill="#bddfb0"/>
    </g>
  </g>
</svg>
