<svg xmlns="http://www.w3.org/2000/svg" xmlns:xlink="http://www.w3.org/1999/xlink" width="324.163" height="287.957" viewBox="0 0 324.163 287.957">
  <defs>
    <clipPath id="clip-path">
      <path id="パス_281390" data-name="パス 281390" d="M204.747,0a35.111,35.111,0,0,1,30.037,16.93l55.571,91.812a35.111,35.111,0,0,1,0,36.361l-55.571,91.812a35.111,35.111,0,0,1-30.037,16.93H90.682a35.111,35.111,0,0,1-30.037-16.93L5.074,145.1a35.111,35.111,0,0,1,0-36.361L60.645,16.93A35.111,35.111,0,0,1,90.682,0Z" transform="translate(-12079.895 -3491.253) rotate(-7)" fill="#bddfb0" opacity="0.2"/>
    </clipPath>
  </defs>
  <g id="hexagon_07" transform="translate(12079.895 3527.257)" opacity="0.74" clip-path="url(#clip-path)">
    <g id="グループ_123244" data-name="グループ 123244" transform="translate(-12154.527 -3615.995)" opacity="0.7">
      <path id="パス_280814" data-name="パス 280814" d="M7.349,0A7.349,7.349,0,1,1,0,7.349,7.349,7.349,0,0,1,7.349,0Z" transform="translate(55.525 0)" fill="#dad8a8"/>
      <path id="パス_280815" data-name="パス 280815" d="M7.349,0A7.349,7.349,0,1,1,0,7.349,7.349,7.349,0,0,1,7.349,0Z" transform="translate(308.655 0)" fill="#dad8a8"/>
      <path id="パス_280816" data-name="パス 280816" d="M7.349,0A7.349,7.349,0,1,1,0,7.349,7.349,7.349,0,0,1,7.349,0Z" transform="translate(55.525 195.972)" fill="#dad8a8"/>
      <path id="パス_280817" data-name="パス 280817" d="M7.349,0A7.349,7.349,0,1,1,0,7.349,7.349,7.349,0,0,1,7.349,0Z" transform="translate(308.655 195.972)" fill="#dad8a8"/>
      <path id="パス_280818" data-name="パス 280818" d="M7.349,0A7.349,7.349,0,1,1,0,7.349,7.349,7.349,0,0,1,7.349,0Z" transform="translate(182.09 0)" fill="#dad8a8"/>
      <path id="パス_280819" data-name="パス 280819" d="M7.349,0A7.349,7.349,0,1,1,0,7.349,7.349,7.349,0,0,1,7.349,0Z" transform="translate(435.222 0)" fill="#dad8a8"/>
      <path id="パス_280820" data-name="パス 280820" d="M7.349,0A7.349,7.349,0,1,1,0,7.349,7.349,7.349,0,0,1,7.349,0Z" transform="translate(182.09 195.972)" fill="#dad8a8"/>
      <path id="パス_280821" data-name="パス 280821" d="M7.349,0A7.349,7.349,0,1,1,0,7.349,7.349,7.349,0,0,1,7.349,0Z" transform="translate(435.222 195.972)" fill="#dad8a8"/>
      <path id="パス_280822" data-name="パス 280822" d="M7.349,0A7.349,7.349,0,1,1,0,7.349,7.349,7.349,0,0,1,7.349,0Z" transform="translate(70.224 97.986)" fill="#dad8a8"/>
      <path id="パス_280823" data-name="パス 280823" d="M7.349,0A7.349,7.349,0,1,1,0,7.349,7.349,7.349,0,0,1,7.349,0Z" transform="translate(323.354 97.986)" fill="#dad8a8"/>
      <path id="パス_280824" data-name="パス 280824" d="M7.349,0A7.349,7.349,0,1,1,0,7.349,7.349,7.349,0,0,1,7.349,0Z" transform="translate(70.224 293.958)" fill="#dad8a8"/>
      <path id="パス_280825" data-name="パス 280825" d="M7.349,0A7.349,7.349,0,1,1,0,7.349,7.349,7.349,0,0,1,7.349,0Z" transform="translate(323.354 293.958)" fill="#dad8a8"/>
      <path id="パス_280826" data-name="パス 280826" d="M7.349,0A7.349,7.349,0,1,1,0,7.349,7.349,7.349,0,0,1,7.349,0Z" transform="translate(196.789 97.986)" fill="#dad8a8"/>
      <path id="パス_280827" data-name="パス 280827" d="M7.349,0A7.349,7.349,0,1,1,0,7.349,7.349,7.349,0,0,1,7.349,0Z" transform="translate(449.919 97.986)" fill="#dad8a8"/>
      <path id="パス_280828" data-name="パス 280828" d="M7.349,0A7.349,7.349,0,1,1,0,7.349,7.349,7.349,0,0,1,7.349,0Z" transform="translate(196.789 293.958)" fill="#dad8a8"/>
      <path id="パス_280829" data-name="パス 280829" d="M7.349,0A7.349,7.349,0,1,1,0,7.349,7.349,7.349,0,0,1,7.349,0Z" transform="translate(449.919 293.958)" fill="#dad8a8"/>
      <path id="パス_280830" data-name="パス 280830" d="M7.349,0A7.349,7.349,0,1,1,0,7.349,7.349,7.349,0,0,1,7.349,0Z" transform="translate(5.716 97.986)" fill="#dad8a8"/>
      <path id="パス_280831" data-name="パス 280831" d="M7.349,0A7.349,7.349,0,1,1,0,7.349,7.349,7.349,0,0,1,7.349,0Z" transform="translate(258.846 97.986)" fill="#dad8a8"/>
      <path id="パス_280832" data-name="パス 280832" d="M7.349,0A7.349,7.349,0,1,1,0,7.349,7.349,7.349,0,0,1,7.349,0Z" transform="translate(5.716 293.958)" fill="#dad8a8"/>
      <path id="パス_280833" data-name="パス 280833" d="M7.349,0A7.349,7.349,0,1,1,0,7.349,7.349,7.349,0,0,1,7.349,0Z" transform="translate(258.846 293.958)" fill="#dad8a8"/>
      <path id="パス_280834" data-name="パス 280834" d="M7.349,0A7.349,7.349,0,1,1,0,7.349,7.349,7.349,0,0,1,7.349,0Z" transform="translate(132.281 97.986)" fill="#dad8a8"/>
      <path id="パス_280835" data-name="パス 280835" d="M7.349,0A7.349,7.349,0,1,1,0,7.349,7.349,7.349,0,0,1,7.349,0Z" transform="translate(385.411 97.986)" fill="#dad8a8"/>
      <path id="パス_280836" data-name="パス 280836" d="M7.349,0A7.349,7.349,0,1,1,0,7.349,7.349,7.349,0,0,1,7.349,0Z" transform="translate(132.281 293.958)" fill="#dad8a8"/>
      <path id="パス_280837" data-name="パス 280837" d="M7.349,0A7.349,7.349,0,1,1,0,7.349,7.349,7.349,0,0,1,7.349,0Z" transform="translate(385.411 293.958)" fill="#dad8a8"/>
      <path id="パス_280838" data-name="パス 280838" d="M7.349,0A7.349,7.349,0,1,1,0,7.349,7.349,7.349,0,0,1,7.349,0Z" transform="translate(70.224 19.597)" fill="#dad8a8"/>
      <path id="パス_280839" data-name="パス 280839" d="M7.349,0A7.349,7.349,0,1,1,0,7.349,7.349,7.349,0,0,1,7.349,0Z" transform="translate(323.354 19.597)" fill="#dad8a8"/>
      <path id="パス_280840" data-name="パス 280840" d="M7.349,0A7.349,7.349,0,1,1,0,7.349,7.349,7.349,0,0,1,7.349,0Z" transform="translate(70.224 215.569)" fill="#dad8a8"/>
      <path id="パス_280841" data-name="パス 280841" d="M7.349,0A7.349,7.349,0,1,1,0,7.349,7.349,7.349,0,0,1,7.349,0Z" transform="translate(323.354 215.569)" fill="#dad8a8"/>
      <path id="パス_280842" data-name="パス 280842" d="M7.349,0A7.349,7.349,0,1,1,0,7.349,7.349,7.349,0,0,1,7.349,0Z" transform="translate(196.789 19.597)" fill="#dad8a8"/>
      <path id="パス_280843" data-name="パス 280843" d="M7.349,0A7.349,7.349,0,1,1,0,7.349,7.349,7.349,0,0,1,7.349,0Z" transform="translate(449.919 19.597)" fill="#dad8a8"/>
      <path id="パス_280844" data-name="パス 280844" d="M7.349,0A7.349,7.349,0,1,1,0,7.349,7.349,7.349,0,0,1,7.349,0Z" transform="translate(196.789 215.569)" fill="#dad8a8"/>
      <path id="パス_280845" data-name="パス 280845" d="M7.349,0A7.349,7.349,0,1,1,0,7.349,7.349,7.349,0,0,1,7.349,0Z" transform="translate(449.919 215.569)" fill="#dad8a8"/>
      <path id="パス_280846" data-name="パス 280846" d="M7.349,0A7.349,7.349,0,1,1,0,7.349,7.349,7.349,0,0,1,7.349,0Z" transform="translate(5.716 19.597)" fill="#dad8a8"/>
      <path id="パス_280847" data-name="パス 280847" d="M7.349,0A7.349,7.349,0,1,1,0,7.349,7.349,7.349,0,0,1,7.349,0Z" transform="translate(258.846 19.597)" fill="#dad8a8"/>
      <path id="パス_280848" data-name="パス 280848" d="M7.349,0A7.349,7.349,0,1,1,0,7.349,7.349,7.349,0,0,1,7.349,0Z" transform="translate(5.716 215.569)" fill="#dad8a8"/>
      <path id="パス_280849" data-name="パス 280849" d="M7.349,0A7.349,7.349,0,1,1,0,7.349,7.349,7.349,0,0,1,7.349,0Z" transform="translate(258.846 215.569)" fill="#dad8a8"/>
      <path id="パス_280850" data-name="パス 280850" d="M7.349,0A7.349,7.349,0,1,1,0,7.349,7.349,7.349,0,0,1,7.349,0Z" transform="translate(132.281 19.597)" fill="#dad8a8"/>
      <path id="パス_280851" data-name="パス 280851" d="M7.349,0A7.349,7.349,0,1,1,0,7.349,7.349,7.349,0,0,1,7.349,0Z" transform="translate(385.411 19.597)" fill="#dad8a8"/>
      <path id="パス_280852" data-name="パス 280852" d="M7.349,0A7.349,7.349,0,1,1,0,7.349,7.349,7.349,0,0,1,7.349,0Z" transform="translate(132.281 215.569)" fill="#dad8a8"/>
      <path id="パス_280853" data-name="パス 280853" d="M7.349,0A7.349,7.349,0,1,1,0,7.349,7.349,7.349,0,0,1,7.349,0Z" transform="translate(385.411 215.569)" fill="#dad8a8"/>
      <path id="パス_280854" data-name="パス 280854" d="M7.349,0A7.349,7.349,0,1,1,0,7.349,7.349,7.349,0,0,1,7.349,0Z" transform="translate(84.921 117.583)" fill="#dad8a8"/>
      <path id="パス_280855" data-name="パス 280855" d="M7.349,0A7.349,7.349,0,1,1,0,7.349,7.349,7.349,0,0,1,7.349,0Z" transform="translate(338.052 117.583)" fill="#dad8a8"/>
      <path id="パス_280856" data-name="パス 280856" d="M7.349,0A7.349,7.349,0,1,1,0,7.349,7.349,7.349,0,0,1,7.349,0Z" transform="translate(84.921 313.555)" fill="#dad8a8"/>
      <path id="パス_280857" data-name="パス 280857" d="M7.349,0A7.349,7.349,0,1,1,0,7.349,7.349,7.349,0,0,1,7.349,0Z" transform="translate(84.921 391.944)" fill="#dad8a8"/>
      <path id="パス_280858" data-name="パス 280858" d="M7.349,0A7.349,7.349,0,1,1,0,7.349,7.349,7.349,0,0,1,7.349,0Z" transform="translate(338.052 313.555)" fill="#dad8a8"/>
      <path id="パス_280859" data-name="パス 280859" d="M7.349,0A7.349,7.349,0,1,1,0,7.349,7.349,7.349,0,0,1,7.349,0Z" transform="translate(338.052 391.944)" fill="#dad8a8"/>
      <path id="パス_280860" data-name="パス 280860" d="M7.349,0A7.349,7.349,0,1,1,0,7.349,7.349,7.349,0,0,1,7.349,0Z" transform="translate(211.486 117.583)" fill="#dad8a8"/>
      <path id="パス_280861" data-name="パス 280861" d="M7.349,0A7.349,7.349,0,1,1,0,7.349,7.349,7.349,0,0,1,7.349,0Z" transform="translate(464.617 117.583)" fill="#dad8a8"/>
      <path id="パス_280862" data-name="パス 280862" d="M7.349,0A7.349,7.349,0,1,1,0,7.349,7.349,7.349,0,0,1,7.349,0Z" transform="translate(211.486 313.555)" fill="#dad8a8"/>
      <path id="パス_280863" data-name="パス 280863" d="M7.349,0A7.349,7.349,0,1,1,0,7.349,7.349,7.349,0,0,1,7.349,0Z" transform="translate(211.486 391.944)" fill="#dad8a8"/>
      <path id="パス_280864" data-name="パス 280864" d="M7.349,0A7.349,7.349,0,1,1,0,7.349,7.349,7.349,0,0,1,7.349,0Z" transform="translate(464.617 313.555)" fill="#dad8a8"/>
      <path id="パス_280865" data-name="パス 280865" d="M7.349,0A7.349,7.349,0,1,1,0,7.349,7.349,7.349,0,0,1,7.349,0Z" transform="translate(464.617 391.944)" fill="#dad8a8"/>
      <path id="パス_280866" data-name="パス 280866" d="M7.349,0A7.349,7.349,0,1,1,0,7.349,7.349,7.349,0,0,1,7.349,0Z" transform="translate(20.413 117.583)" fill="#dad8a8"/>
      <path id="パス_280867" data-name="パス 280867" d="M7.349,0A7.349,7.349,0,1,1,0,7.349,7.349,7.349,0,0,1,7.349,0Z" transform="translate(273.545 117.583)" fill="#dad8a8"/>
      <path id="パス_280868" data-name="パス 280868" d="M7.349,0A7.349,7.349,0,1,1,0,7.349,7.349,7.349,0,0,1,7.349,0Z" transform="translate(20.413 313.555)" fill="#dad8a8"/>
      <path id="パス_280869" data-name="パス 280869" d="M7.349,0A7.349,7.349,0,1,1,0,7.349,7.349,7.349,0,0,1,7.349,0Z" transform="translate(20.413 391.944)" fill="#dad8a8"/>
      <path id="パス_280870" data-name="パス 280870" d="M7.349,0A7.349,7.349,0,1,1,0,7.349,7.349,7.349,0,0,1,7.349,0Z" transform="translate(273.545 313.555)" fill="#dad8a8"/>
      <path id="パス_280871" data-name="パス 280871" d="M7.349,0A7.349,7.349,0,1,1,0,7.349,7.349,7.349,0,0,1,7.349,0Z" transform="translate(273.545 391.944)" fill="#dad8a8"/>
      <path id="パス_280872" data-name="パス 280872" d="M7.349,0A7.349,7.349,0,1,1,0,7.349,7.349,7.349,0,0,1,7.349,0Z" transform="translate(146.979 117.583)" fill="#dad8a8"/>
      <path id="パス_280873" data-name="パス 280873" d="M7.349,0A7.349,7.349,0,1,1,0,7.349,7.349,7.349,0,0,1,7.349,0Z" transform="translate(400.11 117.583)" fill="#dad8a8"/>
      <path id="パス_280874" data-name="パス 280874" d="M7.349,0A7.349,7.349,0,1,1,0,7.349,7.349,7.349,0,0,1,7.349,0Z" transform="translate(146.979 313.555)" fill="#dad8a8"/>
      <path id="パス_280875" data-name="パス 280875" d="M7.349,0A7.349,7.349,0,1,1,0,7.349,7.349,7.349,0,0,1,7.349,0Z" transform="translate(146.979 391.944)" fill="#dad8a8"/>
      <path id="パス_280876" data-name="パス 280876" d="M7.349,0A7.349,7.349,0,1,1,0,7.349,7.349,7.349,0,0,1,7.349,0Z" transform="translate(400.11 313.555)" fill="#dad8a8"/>
      <path id="パス_280877" data-name="パス 280877" d="M7.349,0A7.349,7.349,0,1,1,0,7.349,7.349,7.349,0,0,1,7.349,0Z" transform="translate(400.11 391.944)" fill="#dad8a8"/>
      <path id="パス_280878" data-name="パス 280878" d="M7.349,0A7.349,7.349,0,1,1,0,7.349,7.349,7.349,0,0,1,7.349,0Z" transform="translate(70.224 58.791)" fill="#dad8a8"/>
      <path id="パス_280879" data-name="パス 280879" d="M7.349,0A7.349,7.349,0,1,1,0,7.349,7.349,7.349,0,0,1,7.349,0Z" transform="translate(323.354 58.791)" fill="#dad8a8"/>
      <path id="パス_280880" data-name="パス 280880" d="M7.349,0A7.349,7.349,0,1,1,0,7.349,7.349,7.349,0,0,1,7.349,0Z" transform="translate(70.224 254.764)" fill="#dad8a8"/>
      <path id="パス_280881" data-name="パス 280881" d="M7.349,0A7.349,7.349,0,1,1,0,7.349,7.349,7.349,0,0,1,7.349,0Z" transform="translate(323.354 254.764)" fill="#dad8a8"/>
      <path id="パス_280882" data-name="パス 280882" d="M7.349,0A7.349,7.349,0,1,1,0,7.349,7.349,7.349,0,0,1,7.349,0Z" transform="translate(196.789 58.791)" fill="#dad8a8"/>
      <path id="パス_280883" data-name="パス 280883" d="M7.349,0A7.349,7.349,0,1,1,0,7.349,7.349,7.349,0,0,1,7.349,0Z" transform="translate(449.919 58.791)" fill="#dad8a8"/>
      <path id="パス_280884" data-name="パス 280884" d="M7.349,0A7.349,7.349,0,1,1,0,7.349,7.349,7.349,0,0,1,7.349,0Z" transform="translate(196.789 254.764)" fill="#dad8a8"/>
      <path id="パス_280885" data-name="パス 280885" d="M7.349,0A7.349,7.349,0,1,1,0,7.349,7.349,7.349,0,0,1,7.349,0Z" transform="translate(449.919 254.764)" fill="#dad8a8"/>
      <path id="パス_280886" data-name="パス 280886" d="M7.349,0A7.349,7.349,0,1,1,0,7.349,7.349,7.349,0,0,1,7.349,0Z" transform="translate(5.716 58.791)" fill="#dad8a8"/>
      <path id="パス_280887" data-name="パス 280887" d="M7.349,0A7.349,7.349,0,1,1,0,7.349,7.349,7.349,0,0,1,7.349,0Z" transform="translate(258.846 58.791)" fill="#dad8a8"/>
      <path id="パス_280888" data-name="パス 280888" d="M7.349,0A7.349,7.349,0,1,1,0,7.349,7.349,7.349,0,0,1,7.349,0Z" transform="translate(5.716 254.764)" fill="#dad8a8"/>
      <path id="パス_280889" data-name="パス 280889" d="M7.349,0A7.349,7.349,0,1,1,0,7.349,7.349,7.349,0,0,1,7.349,0Z" transform="translate(258.846 254.764)" fill="#dad8a8"/>
      <path id="パス_280890" data-name="パス 280890" d="M7.349,0A7.349,7.349,0,1,1,0,7.349,7.349,7.349,0,0,1,7.349,0Z" transform="translate(132.281 58.791)" fill="#dad8a8"/>
      <path id="パス_280891" data-name="パス 280891" d="M7.349,0A7.349,7.349,0,1,1,0,7.349,7.349,7.349,0,0,1,7.349,0Z" transform="translate(385.411 58.791)" fill="#dad8a8"/>
      <path id="パス_280892" data-name="パス 280892" d="M7.349,0A7.349,7.349,0,1,1,0,7.349,7.349,7.349,0,0,1,7.349,0Z" transform="translate(132.281 254.764)" fill="#dad8a8"/>
      <path id="パス_280893" data-name="パス 280893" d="M7.349,0A7.349,7.349,0,1,1,0,7.349,7.349,7.349,0,0,1,7.349,0Z" transform="translate(385.411 254.764)" fill="#dad8a8"/>
      <path id="パス_280894" data-name="パス 280894" d="M7.349,0A7.349,7.349,0,1,1,0,7.349,7.349,7.349,0,0,1,7.349,0Z" transform="translate(84.921 156.778)" fill="#dad8a8"/>
      <path id="パス_280895" data-name="パス 280895" d="M7.349,0A7.349,7.349,0,1,1,0,7.349,7.349,7.349,0,0,1,7.349,0Z" transform="translate(338.052 156.778)" fill="#dad8a8"/>
      <path id="パス_280896" data-name="パス 280896" d="M7.349,0A7.349,7.349,0,1,1,0,7.349,7.349,7.349,0,0,1,7.349,0Z" transform="translate(84.921 352.75)" fill="#dad8a8"/>
      <path id="パス_280897" data-name="パス 280897" d="M7.349,0A7.349,7.349,0,1,1,0,7.349,7.349,7.349,0,0,1,7.349,0Z" transform="translate(84.921 431.139)" fill="#dad8a8"/>
      <path id="パス_280898" data-name="パス 280898" d="M7.349,0A7.349,7.349,0,1,1,0,7.349,7.349,7.349,0,0,1,7.349,0Z" transform="translate(338.052 352.75)" fill="#dad8a8"/>
      <path id="パス_280899" data-name="パス 280899" d="M7.349,0A7.349,7.349,0,1,1,0,7.349,7.349,7.349,0,0,1,7.349,0Z" transform="translate(338.052 431.139)" fill="#dad8a8"/>
      <path id="パス_280900" data-name="パス 280900" d="M7.349,0A7.349,7.349,0,1,1,0,7.349,7.349,7.349,0,0,1,7.349,0Z" transform="translate(211.486 156.778)" fill="#dad8a8"/>
      <path id="パス_280901" data-name="パス 280901" d="M7.349,0A7.349,7.349,0,1,1,0,7.349,7.349,7.349,0,0,1,7.349,0Z" transform="translate(464.617 156.778)" fill="#dad8a8"/>
      <path id="パス_280902" data-name="パス 280902" d="M7.349,0A7.349,7.349,0,1,1,0,7.349,7.349,7.349,0,0,1,7.349,0Z" transform="translate(211.486 352.75)" fill="#dad8a8"/>
      <path id="パス_280903" data-name="パス 280903" d="M7.349,0A7.349,7.349,0,1,1,0,7.349,7.349,7.349,0,0,1,7.349,0Z" transform="translate(211.486 431.139)" fill="#dad8a8"/>
      <path id="パス_280904" data-name="パス 280904" d="M7.349,0A7.349,7.349,0,1,1,0,7.349,7.349,7.349,0,0,1,7.349,0Z" transform="translate(464.617 352.75)" fill="#dad8a8"/>
      <path id="パス_280905" data-name="パス 280905" d="M7.349,0A7.349,7.349,0,1,1,0,7.349,7.349,7.349,0,0,1,7.349,0Z" transform="translate(464.617 431.139)" fill="#dad8a8"/>
      <path id="パス_280906" data-name="パス 280906" d="M7.349,0A7.349,7.349,0,1,1,0,7.349,7.349,7.349,0,0,1,7.349,0Z" transform="translate(20.413 156.778)" fill="#dad8a8"/>
      <path id="パス_280907" data-name="パス 280907" d="M7.349,0A7.349,7.349,0,1,1,0,7.349,7.349,7.349,0,0,1,7.349,0Z" transform="translate(273.545 156.778)" fill="#dad8a8"/>
      <path id="パス_280908" data-name="パス 280908" d="M7.349,0A7.349,7.349,0,1,1,0,7.349,7.349,7.349,0,0,1,7.349,0Z" transform="translate(20.413 352.75)" fill="#dad8a8"/>
      <path id="パス_280909" data-name="パス 280909" d="M7.349,0A7.349,7.349,0,1,1,0,7.349,7.349,7.349,0,0,1,7.349,0Z" transform="translate(20.413 431.139)" fill="#dad8a8"/>
      <path id="パス_280910" data-name="パス 280910" d="M7.349,0A7.349,7.349,0,1,1,0,7.349,7.349,7.349,0,0,1,7.349,0Z" transform="translate(273.545 352.75)" fill="#dad8a8"/>
      <path id="パス_280911" data-name="パス 280911" d="M7.349,0A7.349,7.349,0,1,1,0,7.349,7.349,7.349,0,0,1,7.349,0Z" transform="translate(273.545 431.139)" fill="#dad8a8"/>
      <path id="パス_280912" data-name="パス 280912" d="M7.349,0A7.349,7.349,0,1,1,0,7.349,7.349,7.349,0,0,1,7.349,0Z" transform="translate(146.979 156.778)" fill="#dad8a8"/>
      <path id="パス_280913" data-name="パス 280913" d="M7.349,0A7.349,7.349,0,1,1,0,7.349,7.349,7.349,0,0,1,7.349,0Z" transform="translate(400.11 156.778)" fill="#dad8a8"/>
      <path id="パス_280914" data-name="パス 280914" d="M7.349,0A7.349,7.349,0,1,1,0,7.349,7.349,7.349,0,0,1,7.349,0Z" transform="translate(146.979 352.75)" fill="#dad8a8"/>
      <path id="パス_280915" data-name="パス 280915" d="M7.349,0A7.349,7.349,0,1,1,0,7.349,7.349,7.349,0,0,1,7.349,0Z" transform="translate(146.979 431.139)" fill="#dad8a8"/>
      <path id="パス_280916" data-name="パス 280916" d="M7.349,0A7.349,7.349,0,1,1,0,7.349,7.349,7.349,0,0,1,7.349,0Z" transform="translate(400.11 352.75)" fill="#dad8a8"/>
      <path id="パス_280917" data-name="パス 280917" d="M7.349,0A7.349,7.349,0,1,1,0,7.349,7.349,7.349,0,0,1,7.349,0Z" transform="translate(400.11 431.139)" fill="#dad8a8"/>
      <path id="パス_280918" data-name="パス 280918" d="M7.349,0A7.349,7.349,0,1,1,0,7.349,7.349,7.349,0,0,1,7.349,0Z" transform="translate(55.525 78.389)" fill="#dad8a8"/>
      <path id="パス_280919" data-name="パス 280919" d="M7.349,0A7.349,7.349,0,1,1,0,7.349,7.349,7.349,0,0,1,7.349,0Z" transform="translate(308.655 78.389)" fill="#dad8a8"/>
      <path id="パス_280920" data-name="パス 280920" d="M7.349,0A7.349,7.349,0,1,1,0,7.349,7.349,7.349,0,0,1,7.349,0Z" transform="translate(55.525 274.361)" fill="#dad8a8"/>
      <path id="パス_280921" data-name="パス 280921" d="M7.349,0A7.349,7.349,0,1,1,0,7.349,7.349,7.349,0,0,1,7.349,0Z" transform="translate(308.655 274.361)" fill="#dad8a8"/>
      <path id="パス_280922" data-name="パス 280922" d="M7.349,0A7.349,7.349,0,1,1,0,7.349,7.349,7.349,0,0,1,7.349,0Z" transform="translate(182.09 78.389)" fill="#dad8a8"/>
      <path id="パス_280923" data-name="パス 280923" d="M7.349,0A7.349,7.349,0,1,1,0,7.349,7.349,7.349,0,0,1,7.349,0Z" transform="translate(435.222 78.389)" fill="#dad8a8"/>
      <path id="パス_280924" data-name="パス 280924" d="M7.349,0A7.349,7.349,0,1,1,0,7.349,7.349,7.349,0,0,1,7.349,0Z" transform="translate(182.09 274.361)" fill="#dad8a8"/>
      <path id="パス_280925" data-name="パス 280925" d="M7.349,0A7.349,7.349,0,1,1,0,7.349,7.349,7.349,0,0,1,7.349,0Z" transform="translate(435.222 274.361)" fill="#dad8a8"/>
      <path id="パス_280926" data-name="パス 280926" d="M7.349,0A7.349,7.349,0,1,1,0,7.349,7.349,7.349,0,0,1,7.349,0Z" transform="translate(70.224 176.375)" fill="#dad8a8"/>
      <path id="パス_280927" data-name="パス 280927" d="M7.349,0A7.349,7.349,0,1,1,0,7.349,7.349,7.349,0,0,1,7.349,0Z" transform="translate(323.354 176.375)" fill="#dad8a8"/>
      <path id="パス_280928" data-name="パス 280928" d="M7.349,0A7.349,7.349,0,1,1,0,7.349,7.349,7.349,0,0,1,7.349,0Z" transform="translate(70.224 372.347)" fill="#dad8a8"/>
      <path id="パス_280929" data-name="パス 280929" d="M7.349,0A7.349,7.349,0,1,1,0,7.349,7.349,7.349,0,0,1,7.349,0Z" transform="translate(70.224 450.736)" fill="#dad8a8"/>
      <path id="パス_280930" data-name="パス 280930" d="M7.349,0A7.349,7.349,0,1,1,0,7.349,7.349,7.349,0,0,1,7.349,0Z" transform="translate(323.354 372.347)" fill="#dad8a8"/>
      <path id="パス_280931" data-name="パス 280931" d="M7.349,0A7.349,7.349,0,1,1,0,7.349,7.349,7.349,0,0,1,7.349,0Z" transform="translate(323.354 450.736)" fill="#dad8a8"/>
      <path id="パス_280932" data-name="パス 280932" d="M7.349,0A7.349,7.349,0,1,1,0,7.349,7.349,7.349,0,0,1,7.349,0Z" transform="translate(196.789 176.375)" fill="#dad8a8"/>
      <path id="パス_280933" data-name="パス 280933" d="M7.349,0A7.349,7.349,0,1,1,0,7.349,7.349,7.349,0,0,1,7.349,0Z" transform="translate(449.919 176.375)" fill="#dad8a8"/>
      <path id="パス_280934" data-name="パス 280934" d="M7.349,0A7.349,7.349,0,1,1,0,7.349,7.349,7.349,0,0,1,7.349,0Z" transform="translate(196.789 372.347)" fill="#dad8a8"/>
      <path id="パス_280935" data-name="パス 280935" d="M7.349,0A7.349,7.349,0,1,1,0,7.349,7.349,7.349,0,0,1,7.349,0Z" transform="translate(196.789 450.736)" fill="#dad8a8"/>
      <path id="パス_280936" data-name="パス 280936" d="M7.349,0A7.349,7.349,0,1,1,0,7.349,7.349,7.349,0,0,1,7.349,0Z" transform="translate(449.919 372.347)" fill="#dad8a8"/>
      <path id="パス_280937" data-name="パス 280937" d="M7.349,0A7.349,7.349,0,1,1,0,7.349,7.349,7.349,0,0,1,7.349,0Z" transform="translate(449.919 450.736)" fill="#dad8a8"/>
      <path id="パス_280938" data-name="パス 280938" d="M7.349,0A7.349,7.349,0,1,1,0,7.349,7.349,7.349,0,0,1,7.349,0Z" transform="translate(5.716 176.375)" fill="#dad8a8"/>
      <path id="パス_280939" data-name="パス 280939" d="M7.349,0A7.349,7.349,0,1,1,0,7.349,7.349,7.349,0,0,1,7.349,0Z" transform="translate(258.846 176.375)" fill="#dad8a8"/>
      <path id="パス_280940" data-name="パス 280940" d="M7.349,0A7.349,7.349,0,1,1,0,7.349,7.349,7.349,0,0,1,7.349,0Z" transform="translate(5.716 372.347)" fill="#dad8a8"/>
      <path id="パス_280941" data-name="パス 280941" d="M7.349,0A7.349,7.349,0,1,1,0,7.349,7.349,7.349,0,0,1,7.349,0Z" transform="translate(5.716 450.736)" fill="#dad8a8"/>
      <path id="パス_280942" data-name="パス 280942" d="M7.349,0A7.349,7.349,0,1,1,0,7.349,7.349,7.349,0,0,1,7.349,0Z" transform="translate(258.846 372.347)" fill="#dad8a8"/>
      <path id="パス_280943" data-name="パス 280943" d="M7.349,0A7.349,7.349,0,1,1,0,7.349,7.349,7.349,0,0,1,7.349,0Z" transform="translate(258.846 450.736)" fill="#dad8a8"/>
      <path id="パス_280944" data-name="パス 280944" d="M7.349,0A7.349,7.349,0,1,1,0,7.349,7.349,7.349,0,0,1,7.349,0Z" transform="translate(132.281 176.375)" fill="#dad8a8"/>
      <path id="パス_280945" data-name="パス 280945" d="M7.349,0A7.349,7.349,0,1,1,0,7.349,7.349,7.349,0,0,1,7.349,0Z" transform="translate(385.411 176.375)" fill="#dad8a8"/>
      <path id="パス_280946" data-name="パス 280946" d="M7.349,0A7.349,7.349,0,1,1,0,7.349,7.349,7.349,0,0,1,7.349,0Z" transform="translate(132.281 372.347)" fill="#dad8a8"/>
      <path id="パス_280947" data-name="パス 280947" d="M7.349,0A7.349,7.349,0,1,1,0,7.349,7.349,7.349,0,0,1,7.349,0Z" transform="translate(132.281 450.736)" fill="#dad8a8"/>
      <path id="パス_280948" data-name="パス 280948" d="M7.349,0A7.349,7.349,0,1,1,0,7.349,7.349,7.349,0,0,1,7.349,0Z" transform="translate(385.411 372.347)" fill="#dad8a8"/>
      <path id="パス_280949" data-name="パス 280949" d="M7.349,0A7.349,7.349,0,1,1,0,7.349,7.349,7.349,0,0,1,7.349,0Z" transform="translate(385.411 450.736)" fill="#dad8a8"/>
      <path id="パス_280950" data-name="パス 280950" d="M7.349,0A7.349,7.349,0,1,1,0,7.349,7.349,7.349,0,0,1,7.349,0Z" transform="translate(57.159 39.194)" fill="#dad8a8"/>
      <path id="パス_280951" data-name="パス 280951" d="M7.349,0A7.349,7.349,0,1,1,0,7.349,7.349,7.349,0,0,1,7.349,0Z" transform="translate(310.289 39.194)" fill="#dad8a8"/>
      <path id="パス_280952" data-name="パス 280952" d="M7.349,0A7.349,7.349,0,1,1,0,7.349,7.349,7.349,0,0,1,7.349,0Z" transform="translate(57.159 235.167)" fill="#dad8a8"/>
      <path id="パス_280953" data-name="パス 280953" d="M7.349,0A7.349,7.349,0,1,1,0,7.349,7.349,7.349,0,0,1,7.349,0Z" transform="translate(310.289 235.167)" fill="#dad8a8"/>
      <path id="パス_280954" data-name="パス 280954" d="M7.349,0A7.349,7.349,0,1,1,0,7.349,7.349,7.349,0,0,1,7.349,0Z" transform="translate(183.724 39.194)" fill="#dad8a8"/>
      <path id="パス_280955" data-name="パス 280955" d="M7.349,0A7.349,7.349,0,1,1,0,7.349,7.349,7.349,0,0,1,7.349,0Z" transform="translate(436.854 39.194)" fill="#dad8a8"/>
      <path id="パス_280956" data-name="パス 280956" d="M7.349,0A7.349,7.349,0,1,1,0,7.349,7.349,7.349,0,0,1,7.349,0Z" transform="translate(183.724 235.167)" fill="#dad8a8"/>
      <path id="パス_280957" data-name="パス 280957" d="M7.349,0A7.349,7.349,0,1,1,0,7.349,7.349,7.349,0,0,1,7.349,0Z" transform="translate(436.854 235.167)" fill="#dad8a8"/>
      <path id="パス_280958" data-name="パス 280958" d="M7.349,0A7.349,7.349,0,1,1,0,7.349,7.349,7.349,0,0,1,7.349,0Z" transform="translate(71.856 137.181)" fill="#dad8a8"/>
      <path id="パス_280959" data-name="パス 280959" d="M7.349,0A7.349,7.349,0,1,1,0,7.349,7.349,7.349,0,0,1,7.349,0Z" transform="translate(324.988 137.181)" fill="#dad8a8"/>
      <path id="パス_280960" data-name="パス 280960" d="M7.349,0A7.349,7.349,0,1,1,0,7.349,7.349,7.349,0,0,1,7.349,0Z" transform="translate(71.856 333.152)" fill="#dad8a8"/>
      <path id="パス_280961" data-name="パス 280961" d="M7.349,0A7.349,7.349,0,1,1,0,7.349,7.349,7.349,0,0,1,7.349,0Z" transform="translate(71.856 411.542)" fill="#dad8a8"/>
      <path id="パス_280962" data-name="パス 280962" d="M7.349,0A7.349,7.349,0,1,1,0,7.349,7.349,7.349,0,0,1,7.349,0Z" transform="translate(324.988 333.152)" fill="#dad8a8"/>
      <path id="パス_280963" data-name="パス 280963" d="M7.349,0A7.349,7.349,0,1,1,0,7.349,7.349,7.349,0,0,1,7.349,0Z" transform="translate(324.988 411.542)" fill="#dad8a8"/>
      <path id="パス_280964" data-name="パス 280964" d="M7.349,0A7.349,7.349,0,1,1,0,7.349,7.349,7.349,0,0,1,7.349,0Z" transform="translate(198.421 137.181)" fill="#dad8a8"/>
      <path id="パス_280965" data-name="パス 280965" d="M7.349,0A7.349,7.349,0,1,1,0,7.349,7.349,7.349,0,0,1,7.349,0Z" transform="translate(451.553 137.181)" fill="#dad8a8"/>
      <path id="パス_280966" data-name="パス 280966" d="M7.349,0A7.349,7.349,0,1,1,0,7.349,7.349,7.349,0,0,1,7.349,0Z" transform="translate(198.421 333.152)" fill="#dad8a8"/>
      <path id="パス_280967" data-name="パス 280967" d="M7.349,0A7.349,7.349,0,1,1,0,7.349,7.349,7.349,0,0,1,7.349,0Z" transform="translate(198.421 411.542)" fill="#dad8a8"/>
      <path id="パス_280968" data-name="パス 280968" d="M7.349,0A7.349,7.349,0,1,1,0,7.349,7.349,7.349,0,0,1,7.349,0Z" transform="translate(451.553 333.152)" fill="#dad8a8"/>
      <path id="パス_280969" data-name="パス 280969" d="M7.349,0A7.349,7.349,0,1,1,0,7.349,7.349,7.349,0,0,1,7.349,0Z" transform="translate(451.553 411.542)" fill="#dad8a8"/>
      <path id="パス_280970" data-name="パス 280970" d="M7.349,0A7.349,7.349,0,1,1,0,7.349,7.349,7.349,0,0,1,7.349,0Z" transform="translate(7.349 137.181)" fill="#dad8a8"/>
      <path id="パス_280971" data-name="パス 280971" d="M7.349,0A7.349,7.349,0,1,1,0,7.349,7.349,7.349,0,0,1,7.349,0Z" transform="translate(260.48 137.181)" fill="#dad8a8"/>
      <path id="パス_280972" data-name="パス 280972" d="M7.349,0A7.349,7.349,0,1,1,0,7.349,7.349,7.349,0,0,1,7.349,0Z" transform="translate(7.349 333.152)" fill="#dad8a8"/>
      <path id="パス_280973" data-name="パス 280973" d="M7.349,0A7.349,7.349,0,1,1,0,7.349,7.349,7.349,0,0,1,7.349,0Z" transform="translate(7.349 411.542)" fill="#dad8a8"/>
      <path id="パス_280974" data-name="パス 280974" d="M7.349,0A7.349,7.349,0,1,1,0,7.349,7.349,7.349,0,0,1,7.349,0Z" transform="translate(260.48 333.152)" fill="#dad8a8"/>
      <path id="パス_280975" data-name="パス 280975" d="M7.349,0A7.349,7.349,0,1,1,0,7.349,7.349,7.349,0,0,1,7.349,0Z" transform="translate(260.48 411.542)" fill="#dad8a8"/>
      <path id="パス_280976" data-name="パス 280976" d="M7.349,0A7.349,7.349,0,1,1,0,7.349,7.349,7.349,0,0,1,7.349,0Z" transform="translate(133.914 137.181)" fill="#dad8a8"/>
      <path id="パス_280977" data-name="パス 280977" d="M7.349,0A7.349,7.349,0,1,1,0,7.349,7.349,7.349,0,0,1,7.349,0Z" transform="translate(387.045 137.181)" fill="#dad8a8"/>
      <path id="パス_280978" data-name="パス 280978" d="M7.349,0A7.349,7.349,0,1,1,0,7.349,7.349,7.349,0,0,1,7.349,0Z" transform="translate(133.914 333.152)" fill="#dad8a8"/>
      <path id="パス_280979" data-name="パス 280979" d="M7.349,0A7.349,7.349,0,1,1,0,7.349,7.349,7.349,0,0,1,7.349,0Z" transform="translate(133.914 411.542)" fill="#dad8a8"/>
      <path id="パス_280980" data-name="パス 280980" d="M7.349,0A7.349,7.349,0,1,1,0,7.349,7.349,7.349,0,0,1,7.349,0Z" transform="translate(387.045 333.152)" fill="#dad8a8"/>
      <path id="パス_280981" data-name="パス 280981" d="M7.349,0A7.349,7.349,0,1,1,0,7.349,7.349,7.349,0,0,1,7.349,0Z" transform="translate(387.045 411.542)" fill="#dad8a8"/>
      <path id="パス_280982" data-name="パス 280982" d="M7.349,0A7.349,7.349,0,1,1,0,7.349,7.349,7.349,0,0,1,7.349,0Z" transform="translate(76.756 0)" fill="#dad8a8"/>
      <path id="パス_280983" data-name="パス 280983" d="M7.349,0A7.349,7.349,0,1,1,0,7.349,7.349,7.349,0,0,1,7.349,0Z" transform="translate(329.886 0)" fill="#dad8a8"/>
      <path id="パス_280984" data-name="パス 280984" d="M7.349,0A7.349,7.349,0,1,1,0,7.349,7.349,7.349,0,0,1,7.349,0Z" transform="translate(76.756 195.972)" fill="#dad8a8"/>
      <path id="パス_280985" data-name="パス 280985" d="M7.349,0A7.349,7.349,0,1,1,0,7.349,7.349,7.349,0,0,1,7.349,0Z" transform="translate(329.886 195.972)" fill="#dad8a8"/>
      <path id="パス_280986" data-name="パス 280986" d="M7.349,0A7.349,7.349,0,1,1,0,7.349,7.349,7.349,0,0,1,7.349,0Z" transform="translate(203.321 0)" fill="#dad8a8"/>
      <path id="パス_280987" data-name="パス 280987" d="M7.349,0A7.349,7.349,0,1,1,0,7.349,7.349,7.349,0,0,1,7.349,0Z" transform="translate(456.451 0)" fill="#dad8a8"/>
      <path id="パス_280988" data-name="パス 280988" d="M7.349,0A7.349,7.349,0,1,1,0,7.349,7.349,7.349,0,0,1,7.349,0Z" transform="translate(203.321 195.972)" fill="#dad8a8"/>
      <path id="パス_280989" data-name="パス 280989" d="M7.349,0A7.349,7.349,0,1,1,0,7.349,7.349,7.349,0,0,1,7.349,0Z" transform="translate(456.451 195.972)" fill="#dad8a8"/>
      <path id="パス_280990" data-name="パス 280990" d="M7.349,0A7.349,7.349,0,1,1,0,7.349,7.349,7.349,0,0,1,7.349,0Z" transform="translate(12.248 0)" fill="#dad8a8"/>
      <path id="パス_280991" data-name="パス 280991" d="M7.349,0A7.349,7.349,0,1,1,0,7.349,7.349,7.349,0,0,1,7.349,0Z" transform="translate(265.379 0)" fill="#dad8a8"/>
      <path id="パス_280992" data-name="パス 280992" d="M7.349,0A7.349,7.349,0,1,1,0,7.349,7.349,7.349,0,0,1,7.349,0Z" transform="translate(12.248 195.972)" fill="#dad8a8"/>
      <path id="パス_280993" data-name="パス 280993" d="M7.349,0A7.349,7.349,0,1,1,0,7.349,7.349,7.349,0,0,1,7.349,0Z" transform="translate(265.379 195.972)" fill="#dad8a8"/>
      <path id="パス_280994" data-name="パス 280994" d="M7.349,0A7.349,7.349,0,1,1,0,7.349,7.349,7.349,0,0,1,7.349,0Z" transform="translate(138.814 0)" fill="#dad8a8"/>
      <path id="パス_280995" data-name="パス 280995" d="M7.349,0A7.349,7.349,0,1,1,0,7.349,7.349,7.349,0,0,1,7.349,0Z" transform="translate(391.944 0)" fill="#dad8a8"/>
      <path id="パス_280996" data-name="パス 280996" d="M7.349,0A7.349,7.349,0,1,1,0,7.349,7.349,7.349,0,0,1,7.349,0Z" transform="translate(138.814 195.972)" fill="#dad8a8"/>
      <path id="パス_280997" data-name="パス 280997" d="M7.349,0A7.349,7.349,0,1,1,0,7.349,7.349,7.349,0,0,1,7.349,0Z" transform="translate(391.944 195.972)" fill="#dad8a8"/>
      <path id="パス_280998" data-name="パス 280998" d="M7.349,0A7.349,7.349,0,1,1,0,7.349,7.349,7.349,0,0,1,7.349,0Z" transform="translate(91.453 97.986)" fill="#dad8a8"/>
      <path id="パス_280999" data-name="パス 280999" d="M7.349,0A7.349,7.349,0,1,1,0,7.349,7.349,7.349,0,0,1,7.349,0Z" transform="translate(344.585 97.986)" fill="#dad8a8"/>
      <path id="パス_281000" data-name="パス 281000" d="M7.349,0A7.349,7.349,0,1,1,0,7.349,7.349,7.349,0,0,1,7.349,0Z" transform="translate(91.453 293.958)" fill="#dad8a8"/>
      <path id="パス_281001" data-name="パス 281001" d="M7.349,0A7.349,7.349,0,1,1,0,7.349,7.349,7.349,0,0,1,7.349,0Z" transform="translate(344.585 293.958)" fill="#dad8a8"/>
      <path id="パス_281002" data-name="パス 281002" d="M7.349,0A7.349,7.349,0,1,1,0,7.349,7.349,7.349,0,0,1,7.349,0Z" transform="translate(218.018 97.986)" fill="#dad8a8"/>
      <path id="パス_281003" data-name="パス 281003" d="M7.349,0A7.349,7.349,0,1,1,0,7.349,7.349,7.349,0,0,1,7.349,0Z" transform="translate(471.15 97.986)" fill="#dad8a8"/>
      <path id="パス_281004" data-name="パス 281004" d="M7.349,0A7.349,7.349,0,1,1,0,7.349,7.349,7.349,0,0,1,7.349,0Z" transform="translate(218.018 293.958)" fill="#dad8a8"/>
      <path id="パス_281005" data-name="パス 281005" d="M7.349,0A7.349,7.349,0,1,1,0,7.349,7.349,7.349,0,0,1,7.349,0Z" transform="translate(471.15 293.958)" fill="#dad8a8"/>
      <path id="パス_281006" data-name="パス 281006" d="M7.349,0A7.349,7.349,0,1,1,0,7.349,7.349,7.349,0,0,1,7.349,0Z" transform="translate(26.946 97.986)" fill="#dad8a8"/>
      <path id="パス_281007" data-name="パス 281007" d="M7.349,0A7.349,7.349,0,1,1,0,7.349,7.349,7.349,0,0,1,7.349,0Z" transform="translate(280.077 97.986)" fill="#dad8a8"/>
      <path id="パス_281008" data-name="パス 281008" d="M7.349,0A7.349,7.349,0,1,1,0,7.349,7.349,7.349,0,0,1,7.349,0Z" transform="translate(26.946 293.958)" fill="#dad8a8"/>
      <path id="パス_281009" data-name="パス 281009" d="M7.349,0A7.349,7.349,0,1,1,0,7.349,7.349,7.349,0,0,1,7.349,0Z" transform="translate(280.077 293.958)" fill="#dad8a8"/>
      <path id="パス_281010" data-name="パス 281010" d="M7.349,0A7.349,7.349,0,1,1,0,7.349,7.349,7.349,0,0,1,7.349,0Z" transform="translate(153.511 97.986)" fill="#dad8a8"/>
      <path id="パス_281011" data-name="パス 281011" d="M7.349,0A7.349,7.349,0,1,1,0,7.349,7.349,7.349,0,0,1,7.349,0Z" transform="translate(406.642 97.986)" fill="#dad8a8"/>
      <path id="パス_281012" data-name="パス 281012" d="M7.349,0A7.349,7.349,0,1,1,0,7.349,7.349,7.349,0,0,1,7.349,0Z" transform="translate(153.511 293.958)" fill="#dad8a8"/>
      <path id="パス_281013" data-name="パス 281013" d="M7.349,0A7.349,7.349,0,1,1,0,7.349,7.349,7.349,0,0,1,7.349,0Z" transform="translate(406.642 293.958)" fill="#dad8a8"/>
      <path id="パス_281014" data-name="パス 281014" d="M7.349,0A7.349,7.349,0,1,1,0,7.349,7.349,7.349,0,0,1,7.349,0Z" transform="translate(91.453 19.597)" fill="#dad8a8"/>
      <path id="パス_281015" data-name="パス 281015" d="M7.349,0A7.349,7.349,0,1,1,0,7.349,7.349,7.349,0,0,1,7.349,0Z" transform="translate(344.585 19.597)" fill="#dad8a8"/>
      <path id="パス_281016" data-name="パス 281016" d="M7.349,0A7.349,7.349,0,1,1,0,7.349,7.349,7.349,0,0,1,7.349,0Z" transform="translate(91.453 215.569)" fill="#dad8a8"/>
      <path id="パス_281017" data-name="パス 281017" d="M7.349,0A7.349,7.349,0,1,1,0,7.349,7.349,7.349,0,0,1,7.349,0Z" transform="translate(344.585 215.569)" fill="#dad8a8"/>
      <path id="パス_281018" data-name="パス 281018" d="M7.349,0A7.349,7.349,0,1,1,0,7.349,7.349,7.349,0,0,1,7.349,0Z" transform="translate(218.018 19.597)" fill="#dad8a8"/>
      <path id="パス_281019" data-name="パス 281019" d="M7.349,0A7.349,7.349,0,1,1,0,7.349,7.349,7.349,0,0,1,7.349,0Z" transform="translate(471.15 19.597)" fill="#dad8a8"/>
      <path id="パス_281020" data-name="パス 281020" d="M7.349,0A7.349,7.349,0,1,1,0,7.349,7.349,7.349,0,0,1,7.349,0Z" transform="translate(218.018 215.569)" fill="#dad8a8"/>
      <path id="パス_281021" data-name="パス 281021" d="M7.349,0A7.349,7.349,0,1,1,0,7.349,7.349,7.349,0,0,1,7.349,0Z" transform="translate(471.15 215.569)" fill="#dad8a8"/>
      <path id="パス_281022" data-name="パス 281022" d="M7.349,0A7.349,7.349,0,1,1,0,7.349,7.349,7.349,0,0,1,7.349,0Z" transform="translate(26.946 19.597)" fill="#dad8a8"/>
      <path id="パス_281023" data-name="パス 281023" d="M7.349,0A7.349,7.349,0,1,1,0,7.349,7.349,7.349,0,0,1,7.349,0Z" transform="translate(280.077 19.597)" fill="#dad8a8"/>
      <path id="パス_281024" data-name="パス 281024" d="M7.349,0A7.349,7.349,0,1,1,0,7.349,7.349,7.349,0,0,1,7.349,0Z" transform="translate(26.946 215.569)" fill="#dad8a8"/>
      <path id="パス_281025" data-name="パス 281025" d="M7.349,0A7.349,7.349,0,1,1,0,7.349,7.349,7.349,0,0,1,7.349,0Z" transform="translate(280.077 215.569)" fill="#dad8a8"/>
      <path id="パス_281026" data-name="パス 281026" d="M7.349,0A7.349,7.349,0,1,1,0,7.349,7.349,7.349,0,0,1,7.349,0Z" transform="translate(153.511 19.597)" fill="#dad8a8"/>
      <path id="パス_281027" data-name="パス 281027" d="M7.349,0A7.349,7.349,0,1,1,0,7.349,7.349,7.349,0,0,1,7.349,0Z" transform="translate(406.642 19.597)" fill="#dad8a8"/>
      <path id="パス_281028" data-name="パス 281028" d="M7.349,0A7.349,7.349,0,1,1,0,7.349,7.349,7.349,0,0,1,7.349,0Z" transform="translate(153.511 215.569)" fill="#dad8a8"/>
      <path id="パス_281029" data-name="パス 281029" d="M7.349,0A7.349,7.349,0,1,1,0,7.349,7.349,7.349,0,0,1,7.349,0Z" transform="translate(406.642 215.569)" fill="#dad8a8"/>
      <path id="パス_281030" data-name="パス 281030" d="M7.349,0A7.349,7.349,0,1,1,0,7.349,7.349,7.349,0,0,1,7.349,0Z" transform="translate(106.152 117.583)" fill="#dad8a8"/>
      <path id="パス_281031" data-name="パス 281031" d="M7.349,0A7.349,7.349,0,1,1,0,7.349,7.349,7.349,0,0,1,7.349,0Z" transform="translate(359.282 117.583)" fill="#dad8a8"/>
      <path id="パス_281032" data-name="パス 281032" d="M7.349,0A7.349,7.349,0,1,1,0,7.349,7.349,7.349,0,0,1,7.349,0Z" transform="translate(106.152 313.555)" fill="#dad8a8"/>
      <path id="パス_281033" data-name="パス 281033" d="M7.349,0A7.349,7.349,0,1,1,0,7.349,7.349,7.349,0,0,1,7.349,0Z" transform="translate(106.152 391.944)" fill="#dad8a8"/>
      <path id="パス_281034" data-name="パス 281034" d="M7.349,0A7.349,7.349,0,1,1,0,7.349,7.349,7.349,0,0,1,7.349,0Z" transform="translate(359.282 313.555)" fill="#dad8a8"/>
      <path id="パス_281035" data-name="パス 281035" d="M7.349,0A7.349,7.349,0,1,1,0,7.349,7.349,7.349,0,0,1,7.349,0Z" transform="translate(359.282 391.944)" fill="#dad8a8"/>
      <path id="パス_281036" data-name="パス 281036" d="M7.349,0A7.349,7.349,0,1,1,0,7.349,7.349,7.349,0,0,1,7.349,0Z" transform="translate(232.717 117.583)" fill="#dad8a8"/>
      <path id="パス_281037" data-name="パス 281037" d="M7.349,0A7.349,7.349,0,1,1,0,7.349,7.349,7.349,0,0,1,7.349,0Z" transform="translate(485.847 117.583)" fill="#dad8a8"/>
      <path id="パス_281038" data-name="パス 281038" d="M7.349,0A7.349,7.349,0,1,1,0,7.349,7.349,7.349,0,0,1,7.349,0Z" transform="translate(232.717 313.555)" fill="#dad8a8"/>
      <path id="パス_281039" data-name="パス 281039" d="M7.349,0A7.349,7.349,0,1,1,0,7.349,7.349,7.349,0,0,1,7.349,0Z" transform="translate(232.717 391.944)" fill="#dad8a8"/>
      <path id="パス_281040" data-name="パス 281040" d="M7.349,0A7.349,7.349,0,1,1,0,7.349,7.349,7.349,0,0,1,7.349,0Z" transform="translate(485.847 313.555)" fill="#dad8a8"/>
      <path id="パス_281041" data-name="パス 281041" d="M7.349,0A7.349,7.349,0,1,1,0,7.349,7.349,7.349,0,0,1,7.349,0Z" transform="translate(485.847 391.944)" fill="#dad8a8"/>
      <path id="パス_281042" data-name="パス 281042" d="M7.349,0A7.349,7.349,0,1,1,0,7.349,7.349,7.349,0,0,1,7.349,0Z" transform="translate(41.644 117.583)" fill="#dad8a8"/>
      <path id="パス_281043" data-name="パス 281043" d="M7.349,0A7.349,7.349,0,1,1,0,7.349,7.349,7.349,0,0,1,7.349,0Z" transform="translate(294.774 117.583)" fill="#dad8a8"/>
      <path id="パス_281044" data-name="パス 281044" d="M7.349,0A7.349,7.349,0,1,1,0,7.349,7.349,7.349,0,0,1,7.349,0Z" transform="translate(41.644 313.555)" fill="#dad8a8"/>
      <path id="パス_281045" data-name="パス 281045" d="M7.349,0A7.349,7.349,0,1,1,0,7.349,7.349,7.349,0,0,1,7.349,0Z" transform="translate(41.644 391.944)" fill="#dad8a8"/>
      <path id="パス_281046" data-name="パス 281046" d="M7.349,0A7.349,7.349,0,1,1,0,7.349,7.349,7.349,0,0,1,7.349,0Z" transform="translate(294.774 313.555)" fill="#dad8a8"/>
      <path id="パス_281047" data-name="パス 281047" d="M7.349,0A7.349,7.349,0,1,1,0,7.349,7.349,7.349,0,0,1,7.349,0Z" transform="translate(294.774 391.944)" fill="#dad8a8"/>
      <path id="パス_281048" data-name="パス 281048" d="M7.349,0A7.349,7.349,0,1,1,0,7.349,7.349,7.349,0,0,1,7.349,0Z" transform="translate(168.209 117.583)" fill="#dad8a8"/>
      <path id="パス_281049" data-name="パス 281049" d="M7.349,0A7.349,7.349,0,1,1,0,7.349,7.349,7.349,0,0,1,7.349,0Z" transform="translate(421.34 117.583)" fill="#dad8a8"/>
      <path id="パス_281050" data-name="パス 281050" d="M7.349,0A7.349,7.349,0,1,1,0,7.349,7.349,7.349,0,0,1,7.349,0Z" transform="translate(168.209 313.555)" fill="#dad8a8"/>
      <path id="パス_281051" data-name="パス 281051" d="M7.349,0A7.349,7.349,0,1,1,0,7.349,7.349,7.349,0,0,1,7.349,0Z" transform="translate(168.209 391.944)" fill="#dad8a8"/>
      <path id="パス_281052" data-name="パス 281052" d="M7.349,0A7.349,7.349,0,1,1,0,7.349,7.349,7.349,0,0,1,7.349,0Z" transform="translate(421.34 313.555)" fill="#dad8a8"/>
      <path id="パス_281053" data-name="パス 281053" d="M7.349,0A7.349,7.349,0,1,1,0,7.349,7.349,7.349,0,0,1,7.349,0Z" transform="translate(421.34 391.944)" fill="#dad8a8"/>
      <path id="パス_281054" data-name="パス 281054" d="M7.349,0A7.349,7.349,0,1,1,0,7.349,7.349,7.349,0,0,1,7.349,0Z" transform="translate(91.453 58.791)" fill="#dad8a8"/>
      <path id="パス_281055" data-name="パス 281055" d="M7.349,0A7.349,7.349,0,1,1,0,7.349,7.349,7.349,0,0,1,7.349,0Z" transform="translate(344.585 58.791)" fill="#dad8a8"/>
      <path id="パス_281056" data-name="パス 281056" d="M7.349,0A7.349,7.349,0,1,1,0,7.349,7.349,7.349,0,0,1,7.349,0Z" transform="translate(91.453 254.764)" fill="#dad8a8"/>
      <path id="パス_281057" data-name="パス 281057" d="M7.349,0A7.349,7.349,0,1,1,0,7.349,7.349,7.349,0,0,1,7.349,0Z" transform="translate(344.585 254.764)" fill="#dad8a8"/>
      <path id="パス_281058" data-name="パス 281058" d="M7.349,0A7.349,7.349,0,1,1,0,7.349,7.349,7.349,0,0,1,7.349,0Z" transform="translate(218.018 58.791)" fill="#dad8a8"/>
      <path id="パス_281059" data-name="パス 281059" d="M7.349,0A7.349,7.349,0,1,1,0,7.349,7.349,7.349,0,0,1,7.349,0Z" transform="translate(471.15 58.791)" fill="#dad8a8"/>
      <path id="パス_281060" data-name="パス 281060" d="M7.349,0A7.349,7.349,0,1,1,0,7.349,7.349,7.349,0,0,1,7.349,0Z" transform="translate(218.018 254.764)" fill="#dad8a8"/>
      <path id="パス_281061" data-name="パス 281061" d="M7.349,0A7.349,7.349,0,1,1,0,7.349,7.349,7.349,0,0,1,7.349,0Z" transform="translate(471.15 254.764)" fill="#dad8a8"/>
      <path id="パス_281062" data-name="パス 281062" d="M7.349,0A7.349,7.349,0,1,1,0,7.349,7.349,7.349,0,0,1,7.349,0Z" transform="translate(26.946 58.791)" fill="#dad8a8"/>
      <path id="パス_281063" data-name="パス 281063" d="M7.349,0A7.349,7.349,0,1,1,0,7.349,7.349,7.349,0,0,1,7.349,0Z" transform="translate(280.077 58.791)" fill="#dad8a8"/>
      <path id="パス_281064" data-name="パス 281064" d="M7.349,0A7.349,7.349,0,1,1,0,7.349,7.349,7.349,0,0,1,7.349,0Z" transform="translate(26.946 254.764)" fill="#dad8a8"/>
      <path id="パス_281065" data-name="パス 281065" d="M7.349,0A7.349,7.349,0,1,1,0,7.349,7.349,7.349,0,0,1,7.349,0Z" transform="translate(280.077 254.764)" fill="#dad8a8"/>
      <path id="パス_281066" data-name="パス 281066" d="M7.349,0A7.349,7.349,0,1,1,0,7.349,7.349,7.349,0,0,1,7.349,0Z" transform="translate(153.511 58.791)" fill="#dad8a8"/>
      <path id="パス_281067" data-name="パス 281067" d="M7.349,0A7.349,7.349,0,1,1,0,7.349,7.349,7.349,0,0,1,7.349,0Z" transform="translate(406.642 58.791)" fill="#dad8a8"/>
      <path id="パス_281068" data-name="パス 281068" d="M7.349,0A7.349,7.349,0,1,1,0,7.349,7.349,7.349,0,0,1,7.349,0Z" transform="translate(153.511 254.764)" fill="#dad8a8"/>
      <path id="パス_281069" data-name="パス 281069" d="M7.349,0A7.349,7.349,0,1,1,0,7.349,7.349,7.349,0,0,1,7.349,0Z" transform="translate(406.642 254.764)" fill="#dad8a8"/>
      <path id="パス_281070" data-name="パス 281070" d="M7.349,0A7.349,7.349,0,1,1,0,7.349,7.349,7.349,0,0,1,7.349,0Z" transform="translate(106.152 156.778)" fill="#dad8a8"/>
      <path id="パス_281071" data-name="パス 281071" d="M7.349,0A7.349,7.349,0,1,1,0,7.349,7.349,7.349,0,0,1,7.349,0Z" transform="translate(359.282 156.778)" fill="#dad8a8"/>
      <path id="パス_281072" data-name="パス 281072" d="M7.349,0A7.349,7.349,0,1,1,0,7.349,7.349,7.349,0,0,1,7.349,0Z" transform="translate(106.152 352.75)" fill="#dad8a8"/>
      <path id="パス_281073" data-name="パス 281073" d="M7.349,0A7.349,7.349,0,1,1,0,7.349,7.349,7.349,0,0,1,7.349,0Z" transform="translate(106.152 431.139)" fill="#dad8a8"/>
      <path id="パス_281074" data-name="パス 281074" d="M7.349,0A7.349,7.349,0,1,1,0,7.349,7.349,7.349,0,0,1,7.349,0Z" transform="translate(359.282 352.75)" fill="#dad8a8"/>
      <path id="パス_281075" data-name="パス 281075" d="M7.349,0A7.349,7.349,0,1,1,0,7.349,7.349,7.349,0,0,1,7.349,0Z" transform="translate(359.282 431.139)" fill="#dad8a8"/>
      <path id="パス_281076" data-name="パス 281076" d="M7.349,0A7.349,7.349,0,1,1,0,7.349,7.349,7.349,0,0,1,7.349,0Z" transform="translate(232.717 156.778)" fill="#dad8a8"/>
      <path id="パス_281077" data-name="パス 281077" d="M7.349,0A7.349,7.349,0,1,1,0,7.349,7.349,7.349,0,0,1,7.349,0Z" transform="translate(485.847 156.778)" fill="#dad8a8"/>
      <path id="パス_281078" data-name="パス 281078" d="M7.349,0A7.349,7.349,0,1,1,0,7.349,7.349,7.349,0,0,1,7.349,0Z" transform="translate(232.717 352.75)" fill="#dad8a8"/>
      <path id="パス_281079" data-name="パス 281079" d="M7.349,0A7.349,7.349,0,1,1,0,7.349,7.349,7.349,0,0,1,7.349,0Z" transform="translate(232.717 431.139)" fill="#dad8a8"/>
      <path id="パス_281080" data-name="パス 281080" d="M7.349,0A7.349,7.349,0,1,1,0,7.349,7.349,7.349,0,0,1,7.349,0Z" transform="translate(485.847 352.75)" fill="#dad8a8"/>
      <path id="パス_281081" data-name="パス 281081" d="M7.349,0A7.349,7.349,0,1,1,0,7.349,7.349,7.349,0,0,1,7.349,0Z" transform="translate(485.847 431.139)" fill="#dad8a8"/>
      <path id="パス_281082" data-name="パス 281082" d="M7.349,0A7.349,7.349,0,1,1,0,7.349,7.349,7.349,0,0,1,7.349,0Z" transform="translate(41.644 156.778)" fill="#dad8a8"/>
      <path id="パス_281083" data-name="パス 281083" d="M7.349,0A7.349,7.349,0,1,1,0,7.349,7.349,7.349,0,0,1,7.349,0Z" transform="translate(294.774 156.778)" fill="#dad8a8"/>
      <path id="パス_281084" data-name="パス 281084" d="M7.349,0A7.349,7.349,0,1,1,0,7.349,7.349,7.349,0,0,1,7.349,0Z" transform="translate(41.644 352.75)" fill="#dad8a8"/>
      <path id="パス_281085" data-name="パス 281085" d="M7.349,0A7.349,7.349,0,1,1,0,7.349,7.349,7.349,0,0,1,7.349,0Z" transform="translate(41.644 431.139)" fill="#dad8a8"/>
      <path id="パス_281086" data-name="パス 281086" d="M7.349,0A7.349,7.349,0,1,1,0,7.349,7.349,7.349,0,0,1,7.349,0Z" transform="translate(294.774 352.75)" fill="#dad8a8"/>
      <path id="パス_281087" data-name="パス 281087" d="M7.349,0A7.349,7.349,0,1,1,0,7.349,7.349,7.349,0,0,1,7.349,0Z" transform="translate(294.774 431.139)" fill="#dad8a8"/>
      <path id="パス_281088" data-name="パス 281088" d="M7.349,0A7.349,7.349,0,1,1,0,7.349,7.349,7.349,0,0,1,7.349,0Z" transform="translate(168.209 156.778)" fill="#dad8a8"/>
      <path id="パス_281089" data-name="パス 281089" d="M7.349,0A7.349,7.349,0,1,1,0,7.349,7.349,7.349,0,0,1,7.349,0Z" transform="translate(421.34 156.778)" fill="#dad8a8"/>
      <path id="パス_281090" data-name="パス 281090" d="M7.349,0A7.349,7.349,0,1,1,0,7.349,7.349,7.349,0,0,1,7.349,0Z" transform="translate(168.209 352.75)" fill="#dad8a8"/>
      <path id="パス_281091" data-name="パス 281091" d="M7.349,0A7.349,7.349,0,1,1,0,7.349,7.349,7.349,0,0,1,7.349,0Z" transform="translate(168.209 431.139)" fill="#dad8a8"/>
      <path id="パス_281092" data-name="パス 281092" d="M7.349,0A7.349,7.349,0,1,1,0,7.349,7.349,7.349,0,0,1,7.349,0Z" transform="translate(421.34 352.75)" fill="#dad8a8"/>
      <path id="パス_281093" data-name="パス 281093" d="M7.349,0A7.349,7.349,0,1,1,0,7.349,7.349,7.349,0,0,1,7.349,0Z" transform="translate(421.34 431.139)" fill="#dad8a8"/>
      <path id="パス_281094" data-name="パス 281094" d="M7.349,0A7.349,7.349,0,1,1,0,7.349,7.349,7.349,0,0,1,7.349,0Z" transform="translate(76.756 78.389)" fill="#dad8a8"/>
      <path id="パス_281095" data-name="パス 281095" d="M7.349,0A7.349,7.349,0,1,1,0,7.349,7.349,7.349,0,0,1,7.349,0Z" transform="translate(329.886 78.389)" fill="#dad8a8"/>
      <path id="パス_281096" data-name="パス 281096" d="M7.349,0A7.349,7.349,0,1,1,0,7.349,7.349,7.349,0,0,1,7.349,0Z" transform="translate(76.756 274.361)" fill="#dad8a8"/>
      <path id="パス_281097" data-name="パス 281097" d="M7.349,0A7.349,7.349,0,1,1,0,7.349,7.349,7.349,0,0,1,7.349,0Z" transform="translate(329.886 274.361)" fill="#dad8a8"/>
      <path id="パス_281098" data-name="パス 281098" d="M7.349,0A7.349,7.349,0,1,1,0,7.349,7.349,7.349,0,0,1,7.349,0Z" transform="translate(203.321 78.389)" fill="#dad8a8"/>
      <path id="パス_281099" data-name="パス 281099" d="M7.349,0A7.349,7.349,0,1,1,0,7.349,7.349,7.349,0,0,1,7.349,0Z" transform="translate(456.451 78.389)" fill="#dad8a8"/>
      <path id="パス_281100" data-name="パス 281100" d="M7.349,0A7.349,7.349,0,1,1,0,7.349,7.349,7.349,0,0,1,7.349,0Z" transform="translate(203.321 274.361)" fill="#dad8a8"/>
      <path id="パス_281101" data-name="パス 281101" d="M7.349,0A7.349,7.349,0,1,1,0,7.349,7.349,7.349,0,0,1,7.349,0Z" transform="translate(456.451 274.361)" fill="#dad8a8"/>
      <path id="パス_281102" data-name="パス 281102" d="M7.349,0A7.349,7.349,0,1,1,0,7.349,7.349,7.349,0,0,1,7.349,0Z" transform="translate(12.248 78.389)" fill="#dad8a8"/>
      <path id="パス_281103" data-name="パス 281103" d="M7.349,0A7.349,7.349,0,1,1,0,7.349,7.349,7.349,0,0,1,7.349,0Z" transform="translate(265.379 78.389)" fill="#dad8a8"/>
      <path id="パス_281104" data-name="パス 281104" d="M7.349,0A7.349,7.349,0,1,1,0,7.349,7.349,7.349,0,0,1,7.349,0Z" transform="translate(12.248 274.361)" fill="#dad8a8"/>
      <path id="パス_281105" data-name="パス 281105" d="M7.349,0A7.349,7.349,0,1,1,0,7.349,7.349,7.349,0,0,1,7.349,0Z" transform="translate(265.379 274.361)" fill="#dad8a8"/>
      <path id="パス_281106" data-name="パス 281106" d="M7.349,0A7.349,7.349,0,1,1,0,7.349,7.349,7.349,0,0,1,7.349,0Z" transform="translate(138.814 78.389)" fill="#dad8a8"/>
      <path id="パス_281107" data-name="パス 281107" d="M7.349,0A7.349,7.349,0,1,1,0,7.349,7.349,7.349,0,0,1,7.349,0Z" transform="translate(391.944 78.389)" fill="#dad8a8"/>
      <path id="パス_281108" data-name="パス 281108" d="M7.349,0A7.349,7.349,0,1,1,0,7.349,7.349,7.349,0,0,1,7.349,0Z" transform="translate(138.814 274.361)" fill="#dad8a8"/>
      <path id="パス_281109" data-name="パス 281109" d="M7.349,0A7.349,7.349,0,1,1,0,7.349,7.349,7.349,0,0,1,7.349,0Z" transform="translate(391.944 274.361)" fill="#dad8a8"/>
      <path id="パス_281110" data-name="パス 281110" d="M7.349,0A7.349,7.349,0,1,1,0,7.349,7.349,7.349,0,0,1,7.349,0Z" transform="translate(91.453 176.375)" fill="#dad8a8"/>
      <path id="パス_281111" data-name="パス 281111" d="M7.349,0A7.349,7.349,0,1,1,0,7.349,7.349,7.349,0,0,1,7.349,0Z" transform="translate(344.585 176.375)" fill="#dad8a8"/>
      <path id="パス_281112" data-name="パス 281112" d="M7.349,0A7.349,7.349,0,1,1,0,7.349,7.349,7.349,0,0,1,7.349,0Z" transform="translate(91.453 372.347)" fill="#dad8a8"/>
      <path id="パス_281113" data-name="パス 281113" d="M7.349,0A7.349,7.349,0,1,1,0,7.349,7.349,7.349,0,0,1,7.349,0Z" transform="translate(91.453 450.736)" fill="#dad8a8"/>
      <path id="パス_281114" data-name="パス 281114" d="M7.349,0A7.349,7.349,0,1,1,0,7.349,7.349,7.349,0,0,1,7.349,0Z" transform="translate(344.585 372.347)" fill="#dad8a8"/>
      <path id="パス_281115" data-name="パス 281115" d="M7.349,0A7.349,7.349,0,1,1,0,7.349,7.349,7.349,0,0,1,7.349,0Z" transform="translate(344.585 450.736)" fill="#dad8a8"/>
      <path id="パス_281116" data-name="パス 281116" d="M7.349,0A7.349,7.349,0,1,1,0,7.349,7.349,7.349,0,0,1,7.349,0Z" transform="translate(218.018 176.375)" fill="#dad8a8"/>
      <path id="パス_281117" data-name="パス 281117" d="M7.349,0A7.349,7.349,0,1,1,0,7.349,7.349,7.349,0,0,1,7.349,0Z" transform="translate(471.15 176.375)" fill="#dad8a8"/>
      <path id="パス_281118" data-name="パス 281118" d="M7.349,0A7.349,7.349,0,1,1,0,7.349,7.349,7.349,0,0,1,7.349,0Z" transform="translate(218.018 372.347)" fill="#dad8a8"/>
      <path id="パス_281119" data-name="パス 281119" d="M7.349,0A7.349,7.349,0,1,1,0,7.349,7.349,7.349,0,0,1,7.349,0Z" transform="translate(218.018 450.736)" fill="#dad8a8"/>
      <path id="パス_281120" data-name="パス 281120" d="M7.349,0A7.349,7.349,0,1,1,0,7.349,7.349,7.349,0,0,1,7.349,0Z" transform="translate(471.15 372.347)" fill="#dad8a8"/>
      <path id="パス_281121" data-name="パス 281121" d="M7.349,0A7.349,7.349,0,1,1,0,7.349,7.349,7.349,0,0,1,7.349,0Z" transform="translate(471.15 450.736)" fill="#dad8a8"/>
      <path id="パス_281122" data-name="パス 281122" d="M7.349,0A7.349,7.349,0,1,1,0,7.349,7.349,7.349,0,0,1,7.349,0Z" transform="translate(26.946 176.375)" fill="#dad8a8"/>
      <path id="パス_281123" data-name="パス 281123" d="M7.349,0A7.349,7.349,0,1,1,0,7.349,7.349,7.349,0,0,1,7.349,0Z" transform="translate(280.077 176.375)" fill="#dad8a8"/>
      <path id="パス_281124" data-name="パス 281124" d="M7.349,0A7.349,7.349,0,1,1,0,7.349,7.349,7.349,0,0,1,7.349,0Z" transform="translate(26.946 372.347)" fill="#dad8a8"/>
      <path id="パス_281125" data-name="パス 281125" d="M7.349,0A7.349,7.349,0,1,1,0,7.349,7.349,7.349,0,0,1,7.349,0Z" transform="translate(26.946 450.736)" fill="#dad8a8"/>
      <path id="パス_281126" data-name="パス 281126" d="M7.349,0A7.349,7.349,0,1,1,0,7.349,7.349,7.349,0,0,1,7.349,0Z" transform="translate(280.077 372.347)" fill="#dad8a8"/>
      <path id="パス_281127" data-name="パス 281127" d="M7.349,0A7.349,7.349,0,1,1,0,7.349,7.349,7.349,0,0,1,7.349,0Z" transform="translate(280.077 450.736)" fill="#dad8a8"/>
      <path id="パス_281128" data-name="パス 281128" d="M7.349,0A7.349,7.349,0,1,1,0,7.349,7.349,7.349,0,0,1,7.349,0Z" transform="translate(153.511 176.375)" fill="#dad8a8"/>
      <path id="パス_281129" data-name="パス 281129" d="M7.349,0A7.349,7.349,0,1,1,0,7.349,7.349,7.349,0,0,1,7.349,0Z" transform="translate(406.642 176.375)" fill="#dad8a8"/>
      <path id="パス_281130" data-name="パス 281130" d="M7.349,0A7.349,7.349,0,1,1,0,7.349,7.349,7.349,0,0,1,7.349,0Z" transform="translate(153.511 372.347)" fill="#dad8a8"/>
      <path id="パス_281131" data-name="パス 281131" d="M7.349,0A7.349,7.349,0,1,1,0,7.349,7.349,7.349,0,0,1,7.349,0Z" transform="translate(153.511 450.736)" fill="#dad8a8"/>
      <path id="パス_281132" data-name="パス 281132" d="M7.349,0A7.349,7.349,0,1,1,0,7.349,7.349,7.349,0,0,1,7.349,0Z" transform="translate(406.642 372.347)" fill="#dad8a8"/>
      <path id="パス_281133" data-name="パス 281133" d="M7.349,0A7.349,7.349,0,1,1,0,7.349,7.349,7.349,0,0,1,7.349,0Z" transform="translate(406.642 450.736)" fill="#dad8a8"/>
      <path id="パス_281134" data-name="パス 281134" d="M7.349,0A7.349,7.349,0,1,1,0,7.349,7.349,7.349,0,0,1,7.349,0Z" transform="translate(78.389 39.194)" fill="#dad8a8"/>
      <path id="パス_281135" data-name="パス 281135" d="M7.349,0A7.349,7.349,0,1,1,0,7.349,7.349,7.349,0,0,1,7.349,0Z" transform="translate(331.52 39.194)" fill="#dad8a8"/>
      <path id="パス_281136" data-name="パス 281136" d="M7.349,0A7.349,7.349,0,1,1,0,7.349,7.349,7.349,0,0,1,7.349,0Z" transform="translate(78.389 235.167)" fill="#dad8a8"/>
      <path id="パス_281137" data-name="パス 281137" d="M7.349,0A7.349,7.349,0,1,1,0,7.349,7.349,7.349,0,0,1,7.349,0Z" transform="translate(331.52 235.167)" fill="#dad8a8"/>
      <path id="パス_281138" data-name="パス 281138" d="M7.349,0A7.349,7.349,0,1,1,0,7.349,7.349,7.349,0,0,1,7.349,0Z" transform="translate(204.954 39.194)" fill="#dad8a8"/>
      <path id="パス_281139" data-name="パス 281139" d="M7.349,0A7.349,7.349,0,1,1,0,7.349,7.349,7.349,0,0,1,7.349,0Z" transform="translate(458.085 39.194)" fill="#dad8a8"/>
      <path id="パス_281140" data-name="パス 281140" d="M7.349,0A7.349,7.349,0,1,1,0,7.349,7.349,7.349,0,0,1,7.349,0Z" transform="translate(204.954 235.167)" fill="#dad8a8"/>
      <path id="パス_281141" data-name="パス 281141" d="M7.349,0A7.349,7.349,0,1,1,0,7.349,7.349,7.349,0,0,1,7.349,0Z" transform="translate(458.085 235.167)" fill="#dad8a8"/>
      <path id="パス_281142" data-name="パス 281142" d="M7.349,0A7.349,7.349,0,1,1,0,7.349,7.349,7.349,0,0,1,7.349,0Z" transform="translate(13.881 39.194)" fill="#dad8a8"/>
      <path id="パス_281143" data-name="パス 281143" d="M7.349,0A7.349,7.349,0,1,1,0,7.349,7.349,7.349,0,0,1,7.349,0Z" transform="translate(267.012 39.194)" fill="#dad8a8"/>
      <path id="パス_281144" data-name="パス 281144" d="M7.349,0A7.349,7.349,0,1,1,0,7.349,7.349,7.349,0,0,1,7.349,0Z" transform="translate(13.881 235.167)" fill="#dad8a8"/>
      <path id="パス_281145" data-name="パス 281145" d="M7.349,0A7.349,7.349,0,1,1,0,7.349,7.349,7.349,0,0,1,7.349,0Z" transform="translate(267.012 235.167)" fill="#dad8a8"/>
      <path id="パス_281146" data-name="パス 281146" d="M7.349,0A7.349,7.349,0,1,1,0,7.349,7.349,7.349,0,0,1,7.349,0Z" transform="translate(140.446 39.194)" fill="#dad8a8"/>
      <path id="パス_281147" data-name="パス 281147" d="M7.349,0A7.349,7.349,0,1,1,0,7.349,7.349,7.349,0,0,1,7.349,0Z" transform="translate(393.578 39.194)" fill="#dad8a8"/>
      <path id="パス_281148" data-name="パス 281148" d="M7.349,0A7.349,7.349,0,1,1,0,7.349,7.349,7.349,0,0,1,7.349,0Z" transform="translate(140.446 235.167)" fill="#dad8a8"/>
      <path id="パス_281149" data-name="パス 281149" d="M7.349,0A7.349,7.349,0,1,1,0,7.349,7.349,7.349,0,0,1,7.349,0Z" transform="translate(393.578 235.167)" fill="#dad8a8"/>
      <path id="パス_281150" data-name="パス 281150" d="M7.349,0A7.349,7.349,0,1,1,0,7.349,7.349,7.349,0,0,1,7.349,0Z" transform="translate(93.087 137.181)" fill="#dad8a8"/>
      <path id="パス_281151" data-name="パス 281151" d="M7.349,0A7.349,7.349,0,1,1,0,7.349,7.349,7.349,0,0,1,7.349,0Z" transform="translate(346.217 137.181)" fill="#dad8a8"/>
      <path id="パス_281152" data-name="パス 281152" d="M7.349,0A7.349,7.349,0,1,1,0,7.349,7.349,7.349,0,0,1,7.349,0Z" transform="translate(93.087 333.152)" fill="#dad8a8"/>
      <path id="パス_281153" data-name="パス 281153" d="M7.349,0A7.349,7.349,0,1,1,0,7.349,7.349,7.349,0,0,1,7.349,0Z" transform="translate(93.087 411.542)" fill="#dad8a8"/>
      <path id="パス_281154" data-name="パス 281154" d="M7.349,0A7.349,7.349,0,1,1,0,7.349,7.349,7.349,0,0,1,7.349,0Z" transform="translate(346.217 333.152)" fill="#dad8a8"/>
      <path id="パス_281155" data-name="パス 281155" d="M7.349,0A7.349,7.349,0,1,1,0,7.349,7.349,7.349,0,0,1,7.349,0Z" transform="translate(346.217 411.542)" fill="#dad8a8"/>
      <path id="パス_281156" data-name="パス 281156" d="M7.349,0A7.349,7.349,0,1,1,0,7.349,7.349,7.349,0,0,1,7.349,0Z" transform="translate(219.652 137.181)" fill="#dad8a8"/>
      <path id="パス_281157" data-name="パス 281157" d="M7.349,0A7.349,7.349,0,1,1,0,7.349,7.349,7.349,0,0,1,7.349,0Z" transform="translate(472.782 137.181)" fill="#dad8a8"/>
      <path id="パス_281158" data-name="パス 281158" d="M7.349,0A7.349,7.349,0,1,1,0,7.349,7.349,7.349,0,0,1,7.349,0Z" transform="translate(219.652 333.152)" fill="#dad8a8"/>
      <path id="パス_281159" data-name="パス 281159" d="M7.349,0A7.349,7.349,0,1,1,0,7.349,7.349,7.349,0,0,1,7.349,0Z" transform="translate(219.652 411.542)" fill="#dad8a8"/>
      <path id="パス_281160" data-name="パス 281160" d="M7.349,0A7.349,7.349,0,1,1,0,7.349,7.349,7.349,0,0,1,7.349,0Z" transform="translate(472.782 333.152)" fill="#dad8a8"/>
      <path id="パス_281161" data-name="パス 281161" d="M7.349,0A7.349,7.349,0,1,1,0,7.349,7.349,7.349,0,0,1,7.349,0Z" transform="translate(472.782 411.542)" fill="#dad8a8"/>
      <path id="パス_281162" data-name="パス 281162" d="M7.349,0A7.349,7.349,0,1,1,0,7.349,7.349,7.349,0,0,1,7.349,0Z" transform="translate(28.579 137.181)" fill="#dad8a8"/>
      <path id="パス_281163" data-name="パス 281163" d="M7.349,0A7.349,7.349,0,1,1,0,7.349,7.349,7.349,0,0,1,7.349,0Z" transform="translate(281.71 137.181)" fill="#dad8a8"/>
      <path id="パス_281164" data-name="パス 281164" d="M7.349,0A7.349,7.349,0,1,1,0,7.349,7.349,7.349,0,0,1,7.349,0Z" transform="translate(28.579 333.152)" fill="#dad8a8"/>
      <path id="パス_281165" data-name="パス 281165" d="M7.349,0A7.349,7.349,0,1,1,0,7.349,7.349,7.349,0,0,1,7.349,0Z" transform="translate(28.579 411.542)" fill="#dad8a8"/>
      <path id="パス_281166" data-name="パス 281166" d="M7.349,0A7.349,7.349,0,1,1,0,7.349,7.349,7.349,0,0,1,7.349,0Z" transform="translate(281.71 333.152)" fill="#dad8a8"/>
      <path id="パス_281167" data-name="パス 281167" d="M7.349,0A7.349,7.349,0,1,1,0,7.349,7.349,7.349,0,0,1,7.349,0Z" transform="translate(281.71 411.542)" fill="#dad8a8"/>
      <path id="パス_281168" data-name="パス 281168" d="M7.349,0A7.349,7.349,0,1,1,0,7.349,7.349,7.349,0,0,1,7.349,0Z" transform="translate(155.145 137.181)" fill="#dad8a8"/>
      <path id="パス_281169" data-name="パス 281169" d="M7.349,0A7.349,7.349,0,1,1,0,7.349,7.349,7.349,0,0,1,7.349,0Z" transform="translate(408.275 137.181)" fill="#dad8a8"/>
      <path id="パス_281170" data-name="パス 281170" d="M7.349,0A7.349,7.349,0,1,1,0,7.349,7.349,7.349,0,0,1,7.349,0Z" transform="translate(155.145 333.152)" fill="#dad8a8"/>
      <path id="パス_281171" data-name="パス 281171" d="M7.349,0A7.349,7.349,0,1,1,0,7.349,7.349,7.349,0,0,1,7.349,0Z" transform="translate(155.145 411.542)" fill="#dad8a8"/>
      <path id="パス_281172" data-name="パス 281172" d="M7.349,0A7.349,7.349,0,1,1,0,7.349,7.349,7.349,0,0,1,7.349,0Z" transform="translate(408.275 333.152)" fill="#dad8a8"/>
      <path id="パス_281173" data-name="パス 281173" d="M7.349,0A7.349,7.349,0,1,1,0,7.349,7.349,7.349,0,0,1,7.349,0Z" transform="translate(408.275 411.542)" fill="#dad8a8"/>
      <path id="パス_281174" data-name="パス 281174" d="M7.349,0A7.349,7.349,0,1,1,0,7.349,7.349,7.349,0,0,1,7.349,0Z" transform="translate(97.169 0)" fill="#dad8a8"/>
      <path id="パス_281175" data-name="パス 281175" d="M7.349,0A7.349,7.349,0,1,1,0,7.349,7.349,7.349,0,0,1,7.349,0Z" transform="translate(350.3 0)" fill="#dad8a8"/>
      <path id="パス_281176" data-name="パス 281176" d="M7.349,0A7.349,7.349,0,1,1,0,7.349,7.349,7.349,0,0,1,7.349,0Z" transform="translate(97.169 195.972)" fill="#dad8a8"/>
      <path id="パス_281177" data-name="パス 281177" d="M7.349,0A7.349,7.349,0,1,1,0,7.349,7.349,7.349,0,0,1,7.349,0Z" transform="translate(350.3 195.972)" fill="#dad8a8"/>
      <path id="パス_281178" data-name="パス 281178" d="M7.349,0A7.349,7.349,0,1,1,0,7.349,7.349,7.349,0,0,1,7.349,0Z" transform="translate(223.735 0)" fill="#dad8a8"/>
      <path id="パス_281179" data-name="パス 281179" d="M7.349,0A7.349,7.349,0,1,1,0,7.349,7.349,7.349,0,0,1,7.349,0Z" transform="translate(476.866 0)" fill="#dad8a8"/>
      <path id="パス_281180" data-name="パス 281180" d="M7.349,0A7.349,7.349,0,1,1,0,7.349,7.349,7.349,0,0,1,7.349,0Z" transform="translate(223.735 195.972)" fill="#dad8a8"/>
      <path id="パス_281181" data-name="パス 281181" d="M7.349,0A7.349,7.349,0,1,1,0,7.349,7.349,7.349,0,0,1,7.349,0Z" transform="translate(476.866 195.972)" fill="#dad8a8"/>
      <path id="パス_281182" data-name="パス 281182" d="M7.349,0A7.349,7.349,0,1,1,0,7.349,7.349,7.349,0,0,1,7.349,0Z" transform="translate(117.583 0)" fill="#dad8a8"/>
      <path id="パス_281183" data-name="パス 281183" d="M7.349,0A7.349,7.349,0,1,1,0,7.349,7.349,7.349,0,0,1,7.349,0Z" transform="translate(370.714 0)" fill="#dad8a8"/>
      <path id="パス_281184" data-name="パス 281184" d="M7.349,0A7.349,7.349,0,1,1,0,7.349,7.349,7.349,0,0,1,7.349,0Z" transform="translate(117.583 195.972)" fill="#dad8a8"/>
      <path id="パス_281185" data-name="パス 281185" d="M7.349,0A7.349,7.349,0,1,1,0,7.349,7.349,7.349,0,0,1,7.349,0Z" transform="translate(370.714 195.972)" fill="#dad8a8"/>
      <path id="パス_281186" data-name="パス 281186" d="M7.349,0A7.349,7.349,0,1,1,0,7.349,7.349,7.349,0,0,1,7.349,0Z" transform="translate(244.149 0)" fill="#dad8a8"/>
      <path id="パス_281187" data-name="パス 281187" d="M7.349,0A7.349,7.349,0,1,1,0,7.349,7.349,7.349,0,0,1,7.349,0Z" transform="translate(497.279 0)" fill="#dad8a8"/>
      <path id="パス_281188" data-name="パス 281188" d="M7.349,0A7.349,7.349,0,1,1,0,7.349,7.349,7.349,0,0,1,7.349,0Z" transform="translate(244.149 195.972)" fill="#dad8a8"/>
      <path id="パス_281189" data-name="パス 281189" d="M7.349,0A7.349,7.349,0,1,1,0,7.349,7.349,7.349,0,0,1,7.349,0Z" transform="translate(497.279 195.972)" fill="#dad8a8"/>
      <path id="パス_281190" data-name="パス 281190" d="M7.349,0A7.349,7.349,0,1,1,0,7.349,7.349,7.349,0,0,1,7.349,0Z" transform="translate(117.583 39.194)" fill="#dad8a8"/>
      <path id="パス_281191" data-name="パス 281191" d="M7.349,0A7.349,7.349,0,1,1,0,7.349,7.349,7.349,0,0,1,7.349,0Z" transform="translate(370.714 39.194)" fill="#dad8a8"/>
      <path id="パス_281192" data-name="パス 281192" d="M7.349,0A7.349,7.349,0,1,1,0,7.349,7.349,7.349,0,0,1,7.349,0Z" transform="translate(117.583 235.167)" fill="#dad8a8"/>
      <path id="パス_281193" data-name="パス 281193" d="M7.349,0A7.349,7.349,0,1,1,0,7.349,7.349,7.349,0,0,1,7.349,0Z" transform="translate(370.714 235.167)" fill="#dad8a8"/>
      <path id="パス_281194" data-name="パス 281194" d="M7.349,0A7.349,7.349,0,1,1,0,7.349,7.349,7.349,0,0,1,7.349,0Z" transform="translate(244.149 39.194)" fill="#dad8a8"/>
      <path id="パス_281195" data-name="パス 281195" d="M7.349,0A7.349,7.349,0,1,1,0,7.349,7.349,7.349,0,0,1,7.349,0Z" transform="translate(497.279 39.194)" fill="#dad8a8"/>
      <path id="パス_281196" data-name="パス 281196" d="M7.349,0A7.349,7.349,0,1,1,0,7.349,7.349,7.349,0,0,1,7.349,0Z" transform="translate(244.149 235.167)" fill="#dad8a8"/>
      <path id="パス_281197" data-name="パス 281197" d="M7.349,0A7.349,7.349,0,1,1,0,7.349,7.349,7.349,0,0,1,7.349,0Z" transform="translate(497.279 235.167)" fill="#dad8a8"/>
      <path id="パス_281198" data-name="パス 281198" d="M7.349,0A7.349,7.349,0,1,1,0,7.349,7.349,7.349,0,0,1,7.349,0Z" transform="translate(117.583 78.389)" fill="#dad8a8"/>
      <path id="パス_281199" data-name="パス 281199" d="M7.349,0A7.349,7.349,0,1,1,0,7.349,7.349,7.349,0,0,1,7.349,0Z" transform="translate(370.714 78.389)" fill="#dad8a8"/>
      <path id="パス_281200" data-name="パス 281200" d="M7.349,0A7.349,7.349,0,1,1,0,7.349,7.349,7.349,0,0,1,7.349,0Z" transform="translate(117.583 274.361)" fill="#dad8a8"/>
      <path id="パス_281201" data-name="パス 281201" d="M7.349,0A7.349,7.349,0,1,1,0,7.349,7.349,7.349,0,0,1,7.349,0Z" transform="translate(370.714 274.361)" fill="#dad8a8"/>
      <path id="パス_281202" data-name="パス 281202" d="M7.349,0A7.349,7.349,0,1,1,0,7.349,7.349,7.349,0,0,1,7.349,0Z" transform="translate(244.149 78.389)" fill="#dad8a8"/>
      <path id="パス_281203" data-name="パス 281203" d="M7.349,0A7.349,7.349,0,1,1,0,7.349,7.349,7.349,0,0,1,7.349,0Z" transform="translate(497.279 78.389)" fill="#dad8a8"/>
      <path id="パス_281204" data-name="パス 281204" d="M7.349,0A7.349,7.349,0,1,1,0,7.349,7.349,7.349,0,0,1,7.349,0Z" transform="translate(244.149 274.361)" fill="#dad8a8"/>
      <path id="パス_281205" data-name="パス 281205" d="M7.349,0A7.349,7.349,0,1,1,0,7.349,7.349,7.349,0,0,1,7.349,0Z" transform="translate(497.279 274.361)" fill="#dad8a8"/>
      <path id="パス_281206" data-name="パス 281206" d="M7.349,0A7.349,7.349,0,1,1,0,7.349,7.349,7.349,0,0,1,7.349,0Z" transform="translate(32.662 0)" fill="#dad8a8"/>
      <path id="パス_281207" data-name="パス 281207" d="M7.349,0A7.349,7.349,0,1,1,0,7.349,7.349,7.349,0,0,1,7.349,0Z" transform="translate(285.792 0)" fill="#dad8a8"/>
      <path id="パス_281208" data-name="パス 281208" d="M7.349,0A7.349,7.349,0,1,1,0,7.349,7.349,7.349,0,0,1,7.349,0Z" transform="translate(32.662 195.972)" fill="#dad8a8"/>
      <path id="パス_281209" data-name="パス 281209" d="M7.349,0A7.349,7.349,0,1,1,0,7.349,7.349,7.349,0,0,1,7.349,0Z" transform="translate(285.792 195.972)" fill="#dad8a8"/>
      <path id="パス_281210" data-name="パス 281210" d="M7.349,0A7.349,7.349,0,1,1,0,7.349,7.349,7.349,0,0,1,7.349,0Z" transform="translate(159.227 0)" fill="#dad8a8"/>
      <path id="パス_281211" data-name="パス 281211" d="M7.349,0A7.349,7.349,0,1,1,0,7.349,7.349,7.349,0,0,1,7.349,0Z" transform="translate(412.358 0)" fill="#dad8a8"/>
      <path id="パス_281212" data-name="パス 281212" d="M7.349,0A7.349,7.349,0,1,1,0,7.349,7.349,7.349,0,0,1,7.349,0Z" transform="translate(159.227 195.972)" fill="#dad8a8"/>
      <path id="パス_281213" data-name="パス 281213" d="M7.349,0A7.349,7.349,0,1,1,0,7.349,7.349,7.349,0,0,1,7.349,0Z" transform="translate(412.358 195.972)" fill="#dad8a8"/>
      <path id="パス_281214" data-name="パス 281214" d="M7.349,0A7.349,7.349,0,1,1,0,7.349,7.349,7.349,0,0,1,7.349,0Z" transform="translate(111.868 97.986)" fill="#dad8a8"/>
      <path id="パス_281215" data-name="パス 281215" d="M7.349,0A7.349,7.349,0,1,1,0,7.349,7.349,7.349,0,0,1,7.349,0Z" transform="translate(364.998 97.986)" fill="#dad8a8"/>
      <path id="パス_281216" data-name="パス 281216" d="M7.349,0A7.349,7.349,0,1,1,0,7.349,7.349,7.349,0,0,1,7.349,0Z" transform="translate(111.868 293.958)" fill="#dad8a8"/>
      <path id="パス_281217" data-name="パス 281217" d="M7.349,0A7.349,7.349,0,1,1,0,7.349,7.349,7.349,0,0,1,7.349,0Z" transform="translate(364.998 293.958)" fill="#dad8a8"/>
      <path id="パス_281218" data-name="パス 281218" d="M7.349,0A7.349,7.349,0,1,1,0,7.349,7.349,7.349,0,0,1,7.349,0Z" transform="translate(238.433 97.986)" fill="#dad8a8"/>
      <path id="パス_281219" data-name="パス 281219" d="M7.349,0A7.349,7.349,0,1,1,0,7.349,7.349,7.349,0,0,1,7.349,0Z" transform="translate(491.563 97.986)" fill="#dad8a8"/>
      <path id="パス_281220" data-name="パス 281220" d="M7.349,0A7.349,7.349,0,1,1,0,7.349,7.349,7.349,0,0,1,7.349,0Z" transform="translate(238.433 293.958)" fill="#dad8a8"/>
      <path id="パス_281221" data-name="パス 281221" d="M7.349,0A7.349,7.349,0,1,1,0,7.349,7.349,7.349,0,0,1,7.349,0Z" transform="translate(491.563 293.958)" fill="#dad8a8"/>
      <path id="パス_281222" data-name="パス 281222" d="M7.349,0A7.349,7.349,0,1,1,0,7.349,7.349,7.349,0,0,1,7.349,0Z" transform="translate(47.36 97.986)" fill="#dad8a8"/>
      <path id="パス_281223" data-name="パス 281223" d="M7.349,0A7.349,7.349,0,1,1,0,7.349,7.349,7.349,0,0,1,7.349,0Z" transform="translate(300.491 97.986)" fill="#dad8a8"/>
      <path id="パス_281224" data-name="パス 281224" d="M7.349,0A7.349,7.349,0,1,1,0,7.349,7.349,7.349,0,0,1,7.349,0Z" transform="translate(47.36 293.958)" fill="#dad8a8"/>
      <path id="パス_281225" data-name="パス 281225" d="M7.349,0A7.349,7.349,0,1,1,0,7.349,7.349,7.349,0,0,1,7.349,0Z" transform="translate(300.491 293.958)" fill="#dad8a8"/>
      <path id="パス_281226" data-name="パス 281226" d="M7.349,0A7.349,7.349,0,1,1,0,7.349,7.349,7.349,0,0,1,7.349,0Z" transform="translate(173.925 97.986)" fill="#dad8a8"/>
      <path id="パス_281227" data-name="パス 281227" d="M7.349,0A7.349,7.349,0,1,1,0,7.349,7.349,7.349,0,0,1,7.349,0Z" transform="translate(427.056 97.986)" fill="#dad8a8"/>
      <path id="パス_281228" data-name="パス 281228" d="M7.349,0A7.349,7.349,0,1,1,0,7.349,7.349,7.349,0,0,1,7.349,0Z" transform="translate(173.925 293.958)" fill="#dad8a8"/>
      <path id="パス_281229" data-name="パス 281229" d="M7.349,0A7.349,7.349,0,1,1,0,7.349,7.349,7.349,0,0,1,7.349,0Z" transform="translate(427.056 293.958)" fill="#dad8a8"/>
      <path id="パス_281230" data-name="パス 281230" d="M7.349,0A7.349,7.349,0,1,1,0,7.349,7.349,7.349,0,0,1,7.349,0Z" transform="translate(111.868 19.597)" fill="#dad8a8"/>
      <path id="パス_281231" data-name="パス 281231" d="M7.349,0A7.349,7.349,0,1,1,0,7.349,7.349,7.349,0,0,1,7.349,0Z" transform="translate(364.998 19.597)" fill="#dad8a8"/>
      <path id="パス_281232" data-name="パス 281232" d="M7.349,0A7.349,7.349,0,1,1,0,7.349,7.349,7.349,0,0,1,7.349,0Z" transform="translate(111.868 215.569)" fill="#dad8a8"/>
      <path id="パス_281233" data-name="パス 281233" d="M7.349,0A7.349,7.349,0,1,1,0,7.349,7.349,7.349,0,0,1,7.349,0Z" transform="translate(364.998 215.569)" fill="#dad8a8"/>
      <path id="パス_281234" data-name="パス 281234" d="M7.349,0A7.349,7.349,0,1,1,0,7.349,7.349,7.349,0,0,1,7.349,0Z" transform="translate(238.433 19.597)" fill="#dad8a8"/>
      <path id="パス_281235" data-name="パス 281235" d="M7.349,0A7.349,7.349,0,1,1,0,7.349,7.349,7.349,0,0,1,7.349,0Z" transform="translate(491.563 19.597)" fill="#dad8a8"/>
      <path id="パス_281236" data-name="パス 281236" d="M7.349,0A7.349,7.349,0,1,1,0,7.349,7.349,7.349,0,0,1,7.349,0Z" transform="translate(238.433 215.569)" fill="#dad8a8"/>
      <path id="パス_281237" data-name="パス 281237" d="M7.349,0A7.349,7.349,0,1,1,0,7.349,7.349,7.349,0,0,1,7.349,0Z" transform="translate(491.563 215.569)" fill="#dad8a8"/>
      <path id="パス_281238" data-name="パス 281238" d="M7.349,0A7.349,7.349,0,1,1,0,7.349,7.349,7.349,0,0,1,7.349,0Z" transform="translate(47.36 19.597)" fill="#dad8a8"/>
      <path id="パス_281239" data-name="パス 281239" d="M7.349,0A7.349,7.349,0,1,1,0,7.349,7.349,7.349,0,0,1,7.349,0Z" transform="translate(300.491 19.597)" fill="#dad8a8"/>
      <path id="パス_281240" data-name="パス 281240" d="M7.349,0A7.349,7.349,0,1,1,0,7.349,7.349,7.349,0,0,1,7.349,0Z" transform="translate(47.36 215.569)" fill="#dad8a8"/>
      <path id="パス_281241" data-name="パス 281241" d="M7.349,0A7.349,7.349,0,1,1,0,7.349,7.349,7.349,0,0,1,7.349,0Z" transform="translate(300.491 215.569)" fill="#dad8a8"/>
      <path id="パス_281242" data-name="パス 281242" d="M7.349,0A7.349,7.349,0,1,1,0,7.349,7.349,7.349,0,0,1,7.349,0Z" transform="translate(173.925 19.597)" fill="#dad8a8"/>
      <path id="パス_281243" data-name="パス 281243" d="M7.349,0A7.349,7.349,0,1,1,0,7.349,7.349,7.349,0,0,1,7.349,0Z" transform="translate(427.056 19.597)" fill="#dad8a8"/>
      <path id="パス_281244" data-name="パス 281244" d="M7.349,0A7.349,7.349,0,1,1,0,7.349,7.349,7.349,0,0,1,7.349,0Z" transform="translate(173.925 215.569)" fill="#dad8a8"/>
      <path id="パス_281245" data-name="パス 281245" d="M7.349,0A7.349,7.349,0,1,1,0,7.349,7.349,7.349,0,0,1,7.349,0Z" transform="translate(427.056 215.569)" fill="#dad8a8"/>
      <path id="パス_281246" data-name="パス 281246" d="M7.349,0A7.349,7.349,0,1,1,0,7.349,7.349,7.349,0,0,1,7.349,0Z" transform="translate(0 117.583)" fill="#dad8a8"/>
      <path id="パス_281247" data-name="パス 281247" d="M7.349,0A7.349,7.349,0,1,1,0,7.349,7.349,7.349,0,0,1,7.349,0Z" transform="translate(253.13 117.583)" fill="#dad8a8"/>
      <path id="パス_281248" data-name="パス 281248" d="M7.349,0A7.349,7.349,0,1,1,0,7.349,7.349,7.349,0,0,1,7.349,0Z" transform="translate(0 313.555)" fill="#dad8a8"/>
      <path id="パス_281249" data-name="パス 281249" d="M7.349,0A7.349,7.349,0,1,1,0,7.349,7.349,7.349,0,0,1,7.349,0Z" transform="translate(0 391.944)" fill="#dad8a8"/>
      <path id="パス_281250" data-name="パス 281250" d="M7.349,0A7.349,7.349,0,1,1,0,7.349,7.349,7.349,0,0,1,7.349,0Z" transform="translate(253.13 313.555)" fill="#dad8a8"/>
      <path id="パス_281251" data-name="パス 281251" d="M7.349,0A7.349,7.349,0,1,1,0,7.349,7.349,7.349,0,0,1,7.349,0Z" transform="translate(253.13 391.944)" fill="#dad8a8"/>
      <path id="パス_281252" data-name="パス 281252" d="M7.349,0A7.349,7.349,0,1,1,0,7.349,7.349,7.349,0,0,1,7.349,0Z" transform="translate(126.565 117.583)" fill="#dad8a8"/>
      <path id="パス_281253" data-name="パス 281253" d="M7.349,0A7.349,7.349,0,1,1,0,7.349,7.349,7.349,0,0,1,7.349,0Z" transform="translate(379.695 117.583)" fill="#dad8a8"/>
      <path id="パス_281254" data-name="パス 281254" d="M7.349,0A7.349,7.349,0,1,1,0,7.349,7.349,7.349,0,0,1,7.349,0Z" transform="translate(126.565 313.555)" fill="#dad8a8"/>
      <path id="パス_281255" data-name="パス 281255" d="M7.349,0A7.349,7.349,0,1,1,0,7.349,7.349,7.349,0,0,1,7.349,0Z" transform="translate(126.565 391.944)" fill="#dad8a8"/>
      <path id="パス_281256" data-name="パス 281256" d="M7.349,0A7.349,7.349,0,1,1,0,7.349,7.349,7.349,0,0,1,7.349,0Z" transform="translate(379.695 313.555)" fill="#dad8a8"/>
      <path id="パス_281257" data-name="パス 281257" d="M7.349,0A7.349,7.349,0,1,1,0,7.349,7.349,7.349,0,0,1,7.349,0Z" transform="translate(379.695 391.944)" fill="#dad8a8"/>
      <path id="パス_281258" data-name="パス 281258" d="M7.349,0A7.349,7.349,0,1,1,0,7.349,7.349,7.349,0,0,1,7.349,0Z" transform="translate(62.058 117.583)" fill="#dad8a8"/>
      <path id="パス_281259" data-name="パス 281259" d="M7.349,0A7.349,7.349,0,1,1,0,7.349,7.349,7.349,0,0,1,7.349,0Z" transform="translate(315.189 117.583)" fill="#dad8a8"/>
      <path id="パス_281260" data-name="パス 281260" d="M7.349,0A7.349,7.349,0,1,1,0,7.349,7.349,7.349,0,0,1,7.349,0Z" transform="translate(62.058 313.555)" fill="#dad8a8"/>
      <path id="パス_281261" data-name="パス 281261" d="M7.349,0A7.349,7.349,0,1,1,0,7.349,7.349,7.349,0,0,1,7.349,0Z" transform="translate(62.058 391.944)" fill="#dad8a8"/>
      <path id="パス_281262" data-name="パス 281262" d="M7.349,0A7.349,7.349,0,1,1,0,7.349,7.349,7.349,0,0,1,7.349,0Z" transform="translate(315.189 313.555)" fill="#dad8a8"/>
      <path id="パス_281263" data-name="パス 281263" d="M7.349,0A7.349,7.349,0,1,1,0,7.349,7.349,7.349,0,0,1,7.349,0Z" transform="translate(315.189 391.944)" fill="#dad8a8"/>
      <path id="パス_281264" data-name="パス 281264" d="M7.349,0A7.349,7.349,0,1,1,0,7.349,7.349,7.349,0,0,1,7.349,0Z" transform="translate(188.623 117.583)" fill="#dad8a8"/>
      <path id="パス_281265" data-name="パス 281265" d="M7.349,0A7.349,7.349,0,1,1,0,7.349,7.349,7.349,0,0,1,7.349,0Z" transform="translate(441.754 117.583)" fill="#dad8a8"/>
      <path id="パス_281266" data-name="パス 281266" d="M7.349,0A7.349,7.349,0,1,1,0,7.349,7.349,7.349,0,0,1,7.349,0Z" transform="translate(188.623 313.555)" fill="#dad8a8"/>
      <path id="パス_281267" data-name="パス 281267" d="M7.349,0A7.349,7.349,0,1,1,0,7.349,7.349,7.349,0,0,1,7.349,0Z" transform="translate(188.623 391.944)" fill="#dad8a8"/>
      <path id="パス_281268" data-name="パス 281268" d="M7.349,0A7.349,7.349,0,1,1,0,7.349,7.349,7.349,0,0,1,7.349,0Z" transform="translate(441.754 313.555)" fill="#dad8a8"/>
      <path id="パス_281269" data-name="パス 281269" d="M7.349,0A7.349,7.349,0,1,1,0,7.349,7.349,7.349,0,0,1,7.349,0Z" transform="translate(441.754 391.944)" fill="#dad8a8"/>
      <path id="パス_281270" data-name="パス 281270" d="M7.349,0A7.349,7.349,0,1,1,0,7.349,7.349,7.349,0,0,1,7.349,0Z" transform="translate(111.868 58.791)" fill="#dad8a8"/>
      <path id="パス_281271" data-name="パス 281271" d="M7.349,0A7.349,7.349,0,1,1,0,7.349,7.349,7.349,0,0,1,7.349,0Z" transform="translate(364.998 58.791)" fill="#dad8a8"/>
      <path id="パス_281272" data-name="パス 281272" d="M7.349,0A7.349,7.349,0,1,1,0,7.349,7.349,7.349,0,0,1,7.349,0Z" transform="translate(111.868 254.764)" fill="#dad8a8"/>
      <path id="パス_281273" data-name="パス 281273" d="M7.349,0A7.349,7.349,0,1,1,0,7.349,7.349,7.349,0,0,1,7.349,0Z" transform="translate(364.998 254.764)" fill="#dad8a8"/>
      <path id="パス_281274" data-name="パス 281274" d="M7.349,0A7.349,7.349,0,1,1,0,7.349,7.349,7.349,0,0,1,7.349,0Z" transform="translate(238.433 58.791)" fill="#dad8a8"/>
      <path id="パス_281275" data-name="パス 281275" d="M7.349,0A7.349,7.349,0,1,1,0,7.349,7.349,7.349,0,0,1,7.349,0Z" transform="translate(491.563 58.791)" fill="#dad8a8"/>
      <path id="パス_281276" data-name="パス 281276" d="M7.349,0A7.349,7.349,0,1,1,0,7.349,7.349,7.349,0,0,1,7.349,0Z" transform="translate(238.433 254.764)" fill="#dad8a8"/>
      <path id="パス_281277" data-name="パス 281277" d="M7.349,0A7.349,7.349,0,1,1,0,7.349,7.349,7.349,0,0,1,7.349,0Z" transform="translate(491.563 254.764)" fill="#dad8a8"/>
      <path id="パス_281278" data-name="パス 281278" d="M7.349,0A7.349,7.349,0,1,1,0,7.349,7.349,7.349,0,0,1,7.349,0Z" transform="translate(47.36 58.791)" fill="#dad8a8"/>
      <path id="パス_281279" data-name="パス 281279" d="M7.349,0A7.349,7.349,0,1,1,0,7.349,7.349,7.349,0,0,1,7.349,0Z" transform="translate(300.491 58.791)" fill="#dad8a8"/>
      <path id="パス_281280" data-name="パス 281280" d="M7.349,0A7.349,7.349,0,1,1,0,7.349,7.349,7.349,0,0,1,7.349,0Z" transform="translate(47.36 254.764)" fill="#dad8a8"/>
      <path id="パス_281281" data-name="パス 281281" d="M7.349,0A7.349,7.349,0,1,1,0,7.349,7.349,7.349,0,0,1,7.349,0Z" transform="translate(300.491 254.764)" fill="#dad8a8"/>
      <path id="パス_281282" data-name="パス 281282" d="M7.349,0A7.349,7.349,0,1,1,0,7.349,7.349,7.349,0,0,1,7.349,0Z" transform="translate(173.925 58.791)" fill="#dad8a8"/>
      <path id="パス_281283" data-name="パス 281283" d="M7.349,0A7.349,7.349,0,1,1,0,7.349,7.349,7.349,0,0,1,7.349,0Z" transform="translate(427.056 58.791)" fill="#dad8a8"/>
      <path id="パス_281284" data-name="パス 281284" d="M7.349,0A7.349,7.349,0,1,1,0,7.349,7.349,7.349,0,0,1,7.349,0Z" transform="translate(173.925 254.764)" fill="#dad8a8"/>
      <path id="パス_281285" data-name="パス 281285" d="M7.349,0A7.349,7.349,0,1,1,0,7.349,7.349,7.349,0,0,1,7.349,0Z" transform="translate(427.056 254.764)" fill="#dad8a8"/>
      <path id="パス_281286" data-name="パス 281286" d="M7.349,0A7.349,7.349,0,1,1,0,7.349,7.349,7.349,0,0,1,7.349,0Z" transform="translate(0 156.778)" fill="#dad8a8"/>
      <path id="パス_281287" data-name="パス 281287" d="M7.349,0A7.349,7.349,0,1,1,0,7.349,7.349,7.349,0,0,1,7.349,0Z" transform="translate(253.13 156.778)" fill="#dad8a8"/>
      <path id="パス_281288" data-name="パス 281288" d="M7.349,0A7.349,7.349,0,1,1,0,7.349,7.349,7.349,0,0,1,7.349,0Z" transform="translate(0 352.75)" fill="#dad8a8"/>
      <path id="パス_281289" data-name="パス 281289" d="M7.349,0A7.349,7.349,0,1,1,0,7.349,7.349,7.349,0,0,1,7.349,0Z" transform="translate(0 431.139)" fill="#dad8a8"/>
      <path id="パス_281290" data-name="パス 281290" d="M7.349,0A7.349,7.349,0,1,1,0,7.349,7.349,7.349,0,0,1,7.349,0Z" transform="translate(253.13 352.75)" fill="#dad8a8"/>
      <path id="パス_281291" data-name="パス 281291" d="M7.349,0A7.349,7.349,0,1,1,0,7.349,7.349,7.349,0,0,1,7.349,0Z" transform="translate(253.13 431.139)" fill="#dad8a8"/>
      <path id="パス_281292" data-name="パス 281292" d="M7.349,0A7.349,7.349,0,1,1,0,7.349,7.349,7.349,0,0,1,7.349,0Z" transform="translate(126.565 156.778)" fill="#dad8a8"/>
      <path id="パス_281293" data-name="パス 281293" d="M7.349,0A7.349,7.349,0,1,1,0,7.349,7.349,7.349,0,0,1,7.349,0Z" transform="translate(379.695 156.778)" fill="#dad8a8"/>
      <path id="パス_281294" data-name="パス 281294" d="M7.349,0A7.349,7.349,0,1,1,0,7.349,7.349,7.349,0,0,1,7.349,0Z" transform="translate(126.565 352.75)" fill="#dad8a8"/>
      <path id="パス_281295" data-name="パス 281295" d="M7.349,0A7.349,7.349,0,1,1,0,7.349,7.349,7.349,0,0,1,7.349,0Z" transform="translate(126.565 431.139)" fill="#dad8a8"/>
      <path id="パス_281296" data-name="パス 281296" d="M7.349,0A7.349,7.349,0,1,1,0,7.349,7.349,7.349,0,0,1,7.349,0Z" transform="translate(379.695 352.75)" fill="#dad8a8"/>
      <path id="パス_281297" data-name="パス 281297" d="M7.349,0A7.349,7.349,0,1,1,0,7.349,7.349,7.349,0,0,1,7.349,0Z" transform="translate(379.695 431.139)" fill="#dad8a8"/>
      <path id="パス_281298" data-name="パス 281298" d="M7.349,0A7.349,7.349,0,1,1,0,7.349,7.349,7.349,0,0,1,7.349,0Z" transform="translate(62.058 156.778)" fill="#dad8a8"/>
      <path id="パス_281299" data-name="パス 281299" d="M7.349,0A7.349,7.349,0,1,1,0,7.349,7.349,7.349,0,0,1,7.349,0Z" transform="translate(315.189 156.778)" fill="#dad8a8"/>
      <path id="パス_281300" data-name="パス 281300" d="M7.349,0A7.349,7.349,0,1,1,0,7.349,7.349,7.349,0,0,1,7.349,0Z" transform="translate(62.058 352.75)" fill="#dad8a8"/>
      <path id="パス_281301" data-name="パス 281301" d="M7.349,0A7.349,7.349,0,1,1,0,7.349,7.349,7.349,0,0,1,7.349,0Z" transform="translate(62.058 431.139)" fill="#dad8a8"/>
      <path id="パス_281302" data-name="パス 281302" d="M7.349,0A7.349,7.349,0,1,1,0,7.349,7.349,7.349,0,0,1,7.349,0Z" transform="translate(315.189 352.75)" fill="#dad8a8"/>
      <path id="パス_281303" data-name="パス 281303" d="M7.349,0A7.349,7.349,0,1,1,0,7.349,7.349,7.349,0,0,1,7.349,0Z" transform="translate(315.189 431.139)" fill="#dad8a8"/>
      <path id="パス_281304" data-name="パス 281304" d="M7.349,0A7.349,7.349,0,1,1,0,7.349,7.349,7.349,0,0,1,7.349,0Z" transform="translate(188.623 156.778)" fill="#dad8a8"/>
      <path id="パス_281305" data-name="パス 281305" d="M7.349,0A7.349,7.349,0,1,1,0,7.349,7.349,7.349,0,0,1,7.349,0Z" transform="translate(441.754 156.778)" fill="#dad8a8"/>
      <path id="パス_281306" data-name="パス 281306" d="M7.349,0A7.349,7.349,0,1,1,0,7.349,7.349,7.349,0,0,1,7.349,0Z" transform="translate(188.623 352.75)" fill="#dad8a8"/>
      <path id="パス_281307" data-name="パス 281307" d="M7.349,0A7.349,7.349,0,1,1,0,7.349,7.349,7.349,0,0,1,7.349,0Z" transform="translate(188.623 431.139)" fill="#dad8a8"/>
      <path id="パス_281308" data-name="パス 281308" d="M7.349,0A7.349,7.349,0,1,1,0,7.349,7.349,7.349,0,0,1,7.349,0Z" transform="translate(441.754 352.75)" fill="#dad8a8"/>
      <path id="パス_281309" data-name="パス 281309" d="M7.349,0A7.349,7.349,0,1,1,0,7.349,7.349,7.349,0,0,1,7.349,0Z" transform="translate(441.754 431.139)" fill="#dad8a8"/>
      <path id="パス_281310" data-name="パス 281310" d="M7.349,0A7.349,7.349,0,1,1,0,7.349,7.349,7.349,0,0,1,7.349,0Z" transform="translate(97.169 78.389)" fill="#dad8a8"/>
      <path id="パス_281311" data-name="パス 281311" d="M7.349,0A7.349,7.349,0,1,1,0,7.349,7.349,7.349,0,0,1,7.349,0Z" transform="translate(350.3 78.389)" fill="#dad8a8"/>
      <path id="パス_281312" data-name="パス 281312" d="M7.349,0A7.349,7.349,0,1,1,0,7.349,7.349,7.349,0,0,1,7.349,0Z" transform="translate(97.169 274.361)" fill="#dad8a8"/>
      <path id="パス_281313" data-name="パス 281313" d="M7.349,0A7.349,7.349,0,1,1,0,7.349,7.349,7.349,0,0,1,7.349,0Z" transform="translate(350.3 274.361)" fill="#dad8a8"/>
      <path id="パス_281314" data-name="パス 281314" d="M7.349,0A7.349,7.349,0,1,1,0,7.349,7.349,7.349,0,0,1,7.349,0Z" transform="translate(223.735 78.389)" fill="#dad8a8"/>
      <path id="パス_281315" data-name="パス 281315" d="M7.349,0A7.349,7.349,0,1,1,0,7.349,7.349,7.349,0,0,1,7.349,0Z" transform="translate(476.866 78.389)" fill="#dad8a8"/>
      <path id="パス_281316" data-name="パス 281316" d="M7.349,0A7.349,7.349,0,1,1,0,7.349,7.349,7.349,0,0,1,7.349,0Z" transform="translate(223.735 274.361)" fill="#dad8a8"/>
      <path id="パス_281317" data-name="パス 281317" d="M7.349,0A7.349,7.349,0,1,1,0,7.349,7.349,7.349,0,0,1,7.349,0Z" transform="translate(476.866 274.361)" fill="#dad8a8"/>
      <path id="パス_281318" data-name="パス 281318" d="M7.349,0A7.349,7.349,0,1,1,0,7.349,7.349,7.349,0,0,1,7.349,0Z" transform="translate(32.662 78.389)" fill="#dad8a8"/>
      <path id="パス_281319" data-name="パス 281319" d="M7.349,0A7.349,7.349,0,1,1,0,7.349,7.349,7.349,0,0,1,7.349,0Z" transform="translate(285.792 78.389)" fill="#dad8a8"/>
      <path id="パス_281320" data-name="パス 281320" d="M7.349,0A7.349,7.349,0,1,1,0,7.349,7.349,7.349,0,0,1,7.349,0Z" transform="translate(32.662 274.361)" fill="#dad8a8"/>
      <path id="パス_281321" data-name="パス 281321" d="M7.349,0A7.349,7.349,0,1,1,0,7.349,7.349,7.349,0,0,1,7.349,0Z" transform="translate(285.792 274.361)" fill="#dad8a8"/>
      <path id="パス_281322" data-name="パス 281322" d="M7.349,0A7.349,7.349,0,1,1,0,7.349,7.349,7.349,0,0,1,7.349,0Z" transform="translate(159.227 78.389)" fill="#dad8a8"/>
      <path id="パス_281323" data-name="パス 281323" d="M7.349,0A7.349,7.349,0,1,1,0,7.349,7.349,7.349,0,0,1,7.349,0Z" transform="translate(412.358 78.389)" fill="#dad8a8"/>
      <path id="パス_281324" data-name="パス 281324" d="M7.349,0A7.349,7.349,0,1,1,0,7.349,7.349,7.349,0,0,1,7.349,0Z" transform="translate(159.227 274.361)" fill="#dad8a8"/>
      <path id="パス_281325" data-name="パス 281325" d="M7.349,0A7.349,7.349,0,1,1,0,7.349,7.349,7.349,0,0,1,7.349,0Z" transform="translate(412.358 274.361)" fill="#dad8a8"/>
      <path id="パス_281326" data-name="パス 281326" d="M7.349,0A7.349,7.349,0,1,1,0,7.349,7.349,7.349,0,0,1,7.349,0Z" transform="translate(111.868 176.375)" fill="#dad8a8"/>
      <path id="パス_281327" data-name="パス 281327" d="M7.349,0A7.349,7.349,0,1,1,0,7.349,7.349,7.349,0,0,1,7.349,0Z" transform="translate(364.998 176.375)" fill="#dad8a8"/>
      <path id="パス_281328" data-name="パス 281328" d="M7.349,0A7.349,7.349,0,1,1,0,7.349,7.349,7.349,0,0,1,7.349,0Z" transform="translate(111.868 372.347)" fill="#dad8a8"/>
      <path id="パス_281329" data-name="パス 281329" d="M7.349,0A7.349,7.349,0,1,1,0,7.349,7.349,7.349,0,0,1,7.349,0Z" transform="translate(111.868 450.736)" fill="#dad8a8"/>
      <path id="パス_281330" data-name="パス 281330" d="M7.349,0A7.349,7.349,0,1,1,0,7.349,7.349,7.349,0,0,1,7.349,0Z" transform="translate(364.998 372.347)" fill="#dad8a8"/>
      <path id="パス_281331" data-name="パス 281331" d="M7.349,0A7.349,7.349,0,1,1,0,7.349,7.349,7.349,0,0,1,7.349,0Z" transform="translate(364.998 450.736)" fill="#dad8a8"/>
      <path id="パス_281332" data-name="パス 281332" d="M7.349,0A7.349,7.349,0,1,1,0,7.349,7.349,7.349,0,0,1,7.349,0Z" transform="translate(238.433 176.375)" fill="#dad8a8"/>
      <path id="パス_281333" data-name="パス 281333" d="M7.349,0A7.349,7.349,0,1,1,0,7.349,7.349,7.349,0,0,1,7.349,0Z" transform="translate(491.563 176.375)" fill="#dad8a8"/>
      <path id="パス_281334" data-name="パス 281334" d="M7.349,0A7.349,7.349,0,1,1,0,7.349,7.349,7.349,0,0,1,7.349,0Z" transform="translate(238.433 372.347)" fill="#dad8a8"/>
      <path id="パス_281335" data-name="パス 281335" d="M7.349,0A7.349,7.349,0,1,1,0,7.349,7.349,7.349,0,0,1,7.349,0Z" transform="translate(238.433 450.736)" fill="#dad8a8"/>
      <path id="パス_281336" data-name="パス 281336" d="M7.349,0A7.349,7.349,0,1,1,0,7.349,7.349,7.349,0,0,1,7.349,0Z" transform="translate(491.563 372.347)" fill="#dad8a8"/>
      <path id="パス_281337" data-name="パス 281337" d="M7.349,0A7.349,7.349,0,1,1,0,7.349,7.349,7.349,0,0,1,7.349,0Z" transform="translate(491.563 450.736)" fill="#dad8a8"/>
      <path id="パス_281338" data-name="パス 281338" d="M7.349,0A7.349,7.349,0,1,1,0,7.349,7.349,7.349,0,0,1,7.349,0Z" transform="translate(47.36 176.375)" fill="#dad8a8"/>
      <path id="パス_281339" data-name="パス 281339" d="M7.349,0A7.349,7.349,0,1,1,0,7.349,7.349,7.349,0,0,1,7.349,0Z" transform="translate(300.491 176.375)" fill="#dad8a8"/>
      <path id="パス_281340" data-name="パス 281340" d="M7.349,0A7.349,7.349,0,1,1,0,7.349,7.349,7.349,0,0,1,7.349,0Z" transform="translate(47.36 372.347)" fill="#dad8a8"/>
      <path id="パス_281341" data-name="パス 281341" d="M7.349,0A7.349,7.349,0,1,1,0,7.349,7.349,7.349,0,0,1,7.349,0Z" transform="translate(47.36 450.736)" fill="#dad8a8"/>
      <path id="パス_281342" data-name="パス 281342" d="M7.349,0A7.349,7.349,0,1,1,0,7.349,7.349,7.349,0,0,1,7.349,0Z" transform="translate(300.491 372.347)" fill="#dad8a8"/>
      <path id="パス_281343" data-name="パス 281343" d="M7.349,0A7.349,7.349,0,1,1,0,7.349,7.349,7.349,0,0,1,7.349,0Z" transform="translate(300.491 450.736)" fill="#dad8a8"/>
      <path id="パス_281344" data-name="パス 281344" d="M7.349,0A7.349,7.349,0,1,1,0,7.349,7.349,7.349,0,0,1,7.349,0Z" transform="translate(173.925 176.375)" fill="#dad8a8"/>
      <path id="パス_281345" data-name="パス 281345" d="M7.349,0A7.349,7.349,0,1,1,0,7.349,7.349,7.349,0,0,1,7.349,0Z" transform="translate(427.056 176.375)" fill="#dad8a8"/>
      <path id="パス_281346" data-name="パス 281346" d="M7.349,0A7.349,7.349,0,1,1,0,7.349,7.349,7.349,0,0,1,7.349,0Z" transform="translate(173.925 372.347)" fill="#dad8a8"/>
      <path id="パス_281347" data-name="パス 281347" d="M7.349,0A7.349,7.349,0,1,1,0,7.349,7.349,7.349,0,0,1,7.349,0Z" transform="translate(173.925 450.736)" fill="#dad8a8"/>
      <path id="パス_281348" data-name="パス 281348" d="M7.349,0A7.349,7.349,0,1,1,0,7.349,7.349,7.349,0,0,1,7.349,0Z" transform="translate(427.056 372.347)" fill="#dad8a8"/>
      <path id="パス_281349" data-name="パス 281349" d="M7.349,0A7.349,7.349,0,1,1,0,7.349,7.349,7.349,0,0,1,7.349,0Z" transform="translate(427.056 450.736)" fill="#dad8a8"/>
      <path id="パス_281350" data-name="パス 281350" d="M7.349,0A7.349,7.349,0,1,1,0,7.349,7.349,7.349,0,0,1,7.349,0Z" transform="translate(98.803 39.194)" fill="#dad8a8"/>
      <path id="パス_281351" data-name="パス 281351" d="M7.349,0A7.349,7.349,0,1,1,0,7.349,7.349,7.349,0,0,1,7.349,0Z" transform="translate(351.933 39.194)" fill="#dad8a8"/>
      <path id="パス_281352" data-name="パス 281352" d="M7.349,0A7.349,7.349,0,1,1,0,7.349,7.349,7.349,0,0,1,7.349,0Z" transform="translate(98.803 235.167)" fill="#dad8a8"/>
      <path id="パス_281353" data-name="パス 281353" d="M7.349,0A7.349,7.349,0,1,1,0,7.349,7.349,7.349,0,0,1,7.349,0Z" transform="translate(351.933 235.167)" fill="#dad8a8"/>
      <path id="パス_281354" data-name="パス 281354" d="M7.349,0A7.349,7.349,0,1,1,0,7.349,7.349,7.349,0,0,1,7.349,0Z" transform="translate(225.368 39.194)" fill="#dad8a8"/>
      <path id="パス_281355" data-name="パス 281355" d="M7.349,0A7.349,7.349,0,1,1,0,7.349,7.349,7.349,0,0,1,7.349,0Z" transform="translate(478.498 39.194)" fill="#dad8a8"/>
      <path id="パス_281356" data-name="パス 281356" d="M7.349,0A7.349,7.349,0,1,1,0,7.349,7.349,7.349,0,0,1,7.349,0Z" transform="translate(225.368 235.167)" fill="#dad8a8"/>
      <path id="パス_281357" data-name="パス 281357" d="M7.349,0A7.349,7.349,0,1,1,0,7.349,7.349,7.349,0,0,1,7.349,0Z" transform="translate(478.498 235.167)" fill="#dad8a8"/>
      <path id="パス_281358" data-name="パス 281358" d="M7.349,0A7.349,7.349,0,1,1,0,7.349,7.349,7.349,0,0,1,7.349,0Z" transform="translate(34.296 39.194)" fill="#dad8a8"/>
      <path id="パス_281359" data-name="パス 281359" d="M7.349,0A7.349,7.349,0,1,1,0,7.349,7.349,7.349,0,0,1,7.349,0Z" transform="translate(287.426 39.194)" fill="#dad8a8"/>
      <path id="パス_281360" data-name="パス 281360" d="M7.349,0A7.349,7.349,0,1,1,0,7.349,7.349,7.349,0,0,1,7.349,0Z" transform="translate(34.296 235.167)" fill="#dad8a8"/>
      <path id="パス_281361" data-name="パス 281361" d="M7.349,0A7.349,7.349,0,1,1,0,7.349,7.349,7.349,0,0,1,7.349,0Z" transform="translate(287.426 235.167)" fill="#dad8a8"/>
      <path id="パス_281362" data-name="パス 281362" d="M7.349,0A7.349,7.349,0,1,1,0,7.349,7.349,7.349,0,0,1,7.349,0Z" transform="translate(160.861 39.194)" fill="#dad8a8"/>
      <path id="パス_281363" data-name="パス 281363" d="M7.349,0A7.349,7.349,0,1,1,0,7.349,7.349,7.349,0,0,1,7.349,0Z" transform="translate(413.991 39.194)" fill="#dad8a8"/>
      <path id="パス_281364" data-name="パス 281364" d="M7.349,0A7.349,7.349,0,1,1,0,7.349,7.349,7.349,0,0,1,7.349,0Z" transform="translate(160.861 235.167)" fill="#dad8a8"/>
      <path id="パス_281365" data-name="パス 281365" d="M7.349,0A7.349,7.349,0,1,1,0,7.349,7.349,7.349,0,0,1,7.349,0Z" transform="translate(413.991 235.167)" fill="#dad8a8"/>
      <path id="パス_281366" data-name="パス 281366" d="M7.349,0A7.349,7.349,0,1,1,0,7.349,7.349,7.349,0,0,1,7.349,0Z" transform="translate(113.5 137.181)" fill="#dad8a8"/>
      <path id="パス_281367" data-name="パス 281367" d="M7.349,0A7.349,7.349,0,1,1,0,7.349,7.349,7.349,0,0,1,7.349,0Z" transform="translate(366.631 137.181)" fill="#dad8a8"/>
      <path id="パス_281368" data-name="パス 281368" d="M7.349,0A7.349,7.349,0,1,1,0,7.349,7.349,7.349,0,0,1,7.349,0Z" transform="translate(113.5 333.152)" fill="#dad8a8"/>
      <path id="パス_281369" data-name="パス 281369" d="M7.349,0A7.349,7.349,0,1,1,0,7.349,7.349,7.349,0,0,1,7.349,0Z" transform="translate(113.5 411.542)" fill="#dad8a8"/>
      <path id="パス_281370" data-name="パス 281370" d="M7.349,0A7.349,7.349,0,1,1,0,7.349,7.349,7.349,0,0,1,7.349,0Z" transform="translate(366.631 333.152)" fill="#dad8a8"/>
      <path id="パス_281371" data-name="パス 281371" d="M7.349,0A7.349,7.349,0,1,1,0,7.349,7.349,7.349,0,0,1,7.349,0Z" transform="translate(366.631 411.542)" fill="#dad8a8"/>
      <path id="パス_281372" data-name="パス 281372" d="M7.349,0A7.349,7.349,0,1,1,0,7.349,7.349,7.349,0,0,1,7.349,0Z" transform="translate(240.066 137.181)" fill="#dad8a8"/>
      <path id="パス_281373" data-name="パス 281373" d="M7.349,0A7.349,7.349,0,1,1,0,7.349,7.349,7.349,0,0,1,7.349,0Z" transform="translate(493.197 137.181)" fill="#dad8a8"/>
      <path id="パス_281374" data-name="パス 281374" d="M7.349,0A7.349,7.349,0,1,1,0,7.349,7.349,7.349,0,0,1,7.349,0Z" transform="translate(240.066 333.152)" fill="#dad8a8"/>
      <path id="パス_281375" data-name="パス 281375" d="M7.349,0A7.349,7.349,0,1,1,0,7.349,7.349,7.349,0,0,1,7.349,0Z" transform="translate(240.066 411.542)" fill="#dad8a8"/>
      <path id="パス_281376" data-name="パス 281376" d="M7.349,0A7.349,7.349,0,1,1,0,7.349,7.349,7.349,0,0,1,7.349,0Z" transform="translate(493.197 333.152)" fill="#dad8a8"/>
      <path id="パス_281377" data-name="パス 281377" d="M7.349,0A7.349,7.349,0,1,1,0,7.349,7.349,7.349,0,0,1,7.349,0Z" transform="translate(493.197 411.542)" fill="#dad8a8"/>
      <path id="パス_281378" data-name="パス 281378" d="M7.349,0A7.349,7.349,0,1,1,0,7.349,7.349,7.349,0,0,1,7.349,0Z" transform="translate(48.993 137.181)" fill="#dad8a8"/>
      <path id="パス_281379" data-name="パス 281379" d="M7.349,0A7.349,7.349,0,1,1,0,7.349,7.349,7.349,0,0,1,7.349,0Z" transform="translate(302.123 137.181)" fill="#dad8a8"/>
      <path id="パス_281380" data-name="パス 281380" d="M7.349,0A7.349,7.349,0,1,1,0,7.349,7.349,7.349,0,0,1,7.349,0Z" transform="translate(48.993 333.152)" fill="#dad8a8"/>
      <path id="パス_281381" data-name="パス 281381" d="M7.349,0A7.349,7.349,0,1,1,0,7.349,7.349,7.349,0,0,1,7.349,0Z" transform="translate(48.993 411.542)" fill="#dad8a8"/>
      <path id="パス_281382" data-name="パス 281382" d="M7.349,0A7.349,7.349,0,1,1,0,7.349,7.349,7.349,0,0,1,7.349,0Z" transform="translate(302.123 333.152)" fill="#dad8a8"/>
      <path id="パス_281383" data-name="パス 281383" d="M7.349,0A7.349,7.349,0,1,1,0,7.349,7.349,7.349,0,0,1,7.349,0Z" transform="translate(302.123 411.542)" fill="#dad8a8"/>
      <path id="パス_281384" data-name="パス 281384" d="M7.349,0A7.349,7.349,0,1,1,0,7.349,7.349,7.349,0,0,1,7.349,0Z" transform="translate(175.558 137.181)" fill="#dad8a8"/>
      <path id="パス_281385" data-name="パス 281385" d="M7.349,0A7.349,7.349,0,1,1,0,7.349,7.349,7.349,0,0,1,7.349,0Z" transform="translate(428.689 137.181)" fill="#dad8a8"/>
      <path id="パス_281386" data-name="パス 281386" d="M7.349,0A7.349,7.349,0,1,1,0,7.349,7.349,7.349,0,0,1,7.349,0Z" transform="translate(175.558 333.152)" fill="#dad8a8"/>
      <path id="パス_281387" data-name="パス 281387" d="M7.349,0A7.349,7.349,0,1,1,0,7.349,7.349,7.349,0,0,1,7.349,0Z" transform="translate(175.558 411.542)" fill="#dad8a8"/>
      <path id="パス_281388" data-name="パス 281388" d="M7.349,0A7.349,7.349,0,1,1,0,7.349,7.349,7.349,0,0,1,7.349,0Z" transform="translate(428.689 333.152)" fill="#dad8a8"/>
      <path id="パス_281389" data-name="パス 281389" d="M7.349,0A7.349,7.349,0,1,1,0,7.349,7.349,7.349,0,0,1,7.349,0Z" transform="translate(428.689 411.542)" fill="#dad8a8"/>
    </g>
  </g>
</svg>
