<svg xmlns="http://www.w3.org/2000/svg" xmlns:xlink="http://www.w3.org/1999/xlink" width="81" height="81" viewBox="0 0 81 81"><defs><clipPath id="a"><rect width="81" height="81" fill="#e68d8d"/></clipPath></defs><g clip-path="url(#a)"><g transform="translate(1.001 1.001)"><g transform="translate(2 2)" fill="#1c7768" stroke="#fff" stroke-width="1"><circle cx="37.858" cy="37.858" r="37.858" stroke="none"/><circle cx="37.858" cy="37.858" r="37.358" fill="none"/></g><path d="M37.858,1.893A35.975,35.975,0,0,0,23.86,71a35.975,35.975,0,0,0,28-66.28,35.739,35.739,0,0,0-14-2.826m0-1.893A37.858,37.858,0,1,1,0,37.858,37.858,37.858,0,0,1,37.858,0Z" transform="translate(2 2)" fill="#fff"/><path d="M-11555.084-2205.607h-40.635a.951.951,0,0,1-.949-.947.951.951,0,0,1,.949-.947h40.635a.947.947,0,0,1,.953.947A.947.947,0,0,1-11555.084-2205.607Z" transform="translate(11616.083 2245.965)" fill="#fff"/><path d="M11.013,13.125a.944.944,0,0,1-.7-.313L-.257,1.08A.946.946,0,0,1,1.15-.187L11.716,11.545a.946.946,0,0,1-.7,1.58Z" transform="translate(49.992 27.234)" fill="#fff"/><path d="M.446,13.125a.946.946,0,0,1-.7-1.58L10.31-.187A.946.946,0,0,1,11.716,1.08L1.15,12.812A.944.944,0,0,1,.446,13.125Z" transform="translate(49.992 38.965)" fill="#fff"/></g></g></svg>