<svg xmlns="http://www.w3.org/2000/svg" xmlns:xlink="http://www.w3.org/1999/xlink" width="81" height="81" viewBox="0 0 81 81"><defs><clipPath id="a"><rect width="81" height="81" fill="#e68d8d"/></clipPath></defs><g clip-path="url(#a)"><circle cx="37.5" cy="37.5" r="37.5" transform="translate(3 3)" fill="#fff"/><path d="M37.858,1.893A35.975,35.975,0,0,1,51.857,71a35.975,35.975,0,0,1-28-66.28,35.739,35.739,0,0,1,14-2.826m0-1.893A37.858,37.858,0,1,0,75.717,37.858,37.858,37.858,0,0,0,37.858,0Z" transform="translate(3 2.842)"/><path d="M-11595.717-2205.607h40.637a.952.952,0,0,0,.949-.947.952.952,0,0,0-.949-.947h-40.637a.945.945,0,0,0-.951.947A.945.945,0,0,0-11595.717-2205.607Z" transform="translate(11615.829 2246.965)"/><path d="M.446,13.125a.944.944,0,0,0,.7-.313L11.716,1.08A.946.946,0,0,0,10.31-.187L-.257,11.545a.946.946,0,0,0,.7,1.58Z" transform="translate(19.662 28.234)"/><path d="M11.014,13.125a.946.946,0,0,0,.7-1.58L1.15-.187A.946.946,0,0,0-.257,1.08L10.31,12.812A.944.944,0,0,0,11.014,13.125Z" transform="translate(19.662 39.965)"/></g></svg>