<svg xmlns="http://www.w3.org/2000/svg" width="36.592" height="36.592" viewBox="0 0 36.592 36.592"><path d="M-1443.408,118.3a18.3,18.3,0,0,0-18.3-18.3,18.3,18.3,0,0,0-18.3,18.3,18.3,18.3,0,0,0,15.437,18.074V123.585h-4.645V118.3h4.645v-4.031c0-4.585,2.731-7.118,6.911-7.118a28.139,28.139,0,0,1,4.1.357v4.5h-2.307a2.644,2.644,0,0,0-2.982,2.857V118.3h5.074l-.811,5.289h-4.263v12.785A18.3,18.3,0,0,0-1443.408,118.3Z" transform="translate(1480 -100)" fill="#1877f2"/><path d="M-1163.374,316.438l.811-5.289h-5.074v-3.432a2.644,2.644,0,0,1,2.981-2.857h2.307v-4.5a28.145,28.145,0,0,0-4.1-.357c-4.179,0-6.911,2.533-6.911,7.118v4.031H-1178v5.289h4.645v12.785a18.433,18.433,0,0,0,2.859.222,18.439,18.439,0,0,0,2.859-.222V316.438Z" transform="translate(1188.792 -292.853)" fill="#fff"/></svg>