<svg xmlns="http://www.w3.org/2000/svg" width="17.5" height="20" viewBox="0 0 17.5 20">
  <path id="ico-calendar" d="M14.531,11.75H12.969a.414.414,0,0,1-.469-.469V9.719a.414.414,0,0,1,.469-.469h1.563A.414.414,0,0,1,15,9.719v1.563A.414.414,0,0,1,14.531,11.75Zm4.219-.469a.414.414,0,0,1-.469.469H16.719a.414.414,0,0,1-.469-.469V9.719a.414.414,0,0,1,.469-.469h1.563a.414.414,0,0,1,.469.469Zm3.75,0a.414.414,0,0,1-.469.469H20.469A.414.414,0,0,1,20,11.281V9.719a.414.414,0,0,1,.469-.469h1.563a.414.414,0,0,1,.469.469Zm-3.75,3.75a.414.414,0,0,1-.469.469H16.719a.414.414,0,0,1-.469-.469V13.469A.414.414,0,0,1,16.719,13h1.563a.414.414,0,0,1,.469.469Zm-3.75,0a.414.414,0,0,1-.469.469H12.969a.414.414,0,0,1-.469-.469V13.469A.414.414,0,0,1,12.969,13h1.563a.414.414,0,0,1,.469.469Zm7.5,0a.414.414,0,0,1-.469.469H20.469A.414.414,0,0,1,20,15.031V13.469A.414.414,0,0,1,20.469,13h1.563a.414.414,0,0,1,.469.469ZM26.25,4.875v13.75A1.867,1.867,0,0,1,24.375,20.5H10.625A1.867,1.867,0,0,1,8.75,18.625V4.875A1.867,1.867,0,0,1,10.625,3H12.5V.969A.414.414,0,0,1,12.969.5h1.563A.414.414,0,0,1,15,.969V3h5V.969A.414.414,0,0,1,20.469.5h1.563A.414.414,0,0,1,22.5.969V3h1.875A1.867,1.867,0,0,1,26.25,4.875ZM24.375,18.391V6.75H10.625V18.391a.207.207,0,0,0,.234.234H24.141A.207.207,0,0,0,24.375,18.391Z" transform="translate(-8.75 -0.5)" fill="#6f6f6f"/>
</svg>
