<svg xmlns="http://www.w3.org/2000/svg" width="12.375" height="12.375" viewBox="0 0 12.375 12.375">
  <path id="ico-search-close" d="M2.391-6.75,5.906-3.234a1.052,1.052,0,0,1,.316.773,1.173,1.173,0,0,1-.316.809l-.773.773a1.173,1.173,0,0,1-.809.316,1.052,1.052,0,0,1-.773-.316L.035-4.395-3.48-.879a1.052,1.052,0,0,1-.773.316,1.173,1.173,0,0,1-.809-.316l-.773-.773a1.173,1.173,0,0,1-.316-.809,1.052,1.052,0,0,1,.316-.773L-2.32-6.75l-3.516-3.516a1.052,1.052,0,0,1-.316-.773,1.173,1.173,0,0,1,.316-.809l.773-.773a1.173,1.173,0,0,1,.809-.316,1.052,1.052,0,0,1,.773.316L.035-9.105l3.516-3.516a1.052,1.052,0,0,1,.773-.316,1.173,1.173,0,0,1,.809.316l.773.773a1.173,1.173,0,0,1,.316.809,1.052,1.052,0,0,1-.316.773Z" transform="translate(6.152 12.938)" fill="#fff"/>
</svg>
