<svg xmlns="http://www.w3.org/2000/svg" width="42.506" height="42.506" viewBox="0 0 42.506 42.506">
  <g id="ico_slider_arrow_bg" transform="translate(0)">
    <g id="グループ_111954" data-name="グループ 111954" transform="translate(42.506 42.506) rotate(180)">
      <path id="パス_76534" data-name="パス 76534" d="M21.253,0A21.253,21.253,0,1,1,0,21.253,21.253,21.253,0,0,1,21.253,0Z" transform="translate(0)" fill="#1c7768"/>
    </g>
    <path id="Icon_awesome-arrow-right" data-name="Icon awesome-arrow-right" d="M4.723,3.372l.55-.55a.593.593,0,0,1,.84,0l4.82,4.817a.593.593,0,0,1,0,.84L6.114,13.3a.593.593,0,0,1-.84,0l-.55-.55a.6.6,0,0,1,.01-.85L7.721,9.053H.6a.594.594,0,0,1-.6-.6V7.664a.594.594,0,0,1,.6-.6H7.721L4.733,4.223A.591.591,0,0,1,4.723,3.372Z" transform="translate(16.584 13.292)" fill="#fff"/>
  </g>
</svg>
