<svg xmlns="http://www.w3.org/2000/svg" width="36" height="36" viewBox="0 0 36 36"><ellipse cx="18" cy="18" rx="18" ry="18" transform="translate(0 0)" fill="#4cc764"/><g transform="translate(6.231 7.138)"><g transform="translate(0 0)"><path d="M481.844,401.933c0-5.33-5.344-9.667-11.913-9.667s-11.912,4.337-11.912,9.667c0,4.779,4.238,8.781,9.963,9.538.388.084.916.256,1.05.587a2.45,2.45,0,0,1,.039,1.077s-.14.841-.17,1.02c-.052.3-.239,1.178,1.032.642a38.46,38.46,0,0,0,9.36-6.916h0A8.6,8.6,0,0,0,481.844,401.933Z" transform="translate(-458.019 -392.266)" fill="#fff"/><g transform="translate(3.908 7.091)"><path d="M607.637,461.5a.227.227,0,0,0,.227-.227v-.845a.228.228,0,0,0-.227-.227h-2.275v-.877h2.275a.228.228,0,0,0,.227-.228v-.845a.228.228,0,0,0-.227-.228h-2.275v-.877h2.275a.228.228,0,0,0,.227-.228v-.845a.228.228,0,0,0-.227-.227h-3.347a.227.227,0,0,0-.228.227v0h0v5.19h0v0a.227.227,0,0,0,.228.227h3.347Z" transform="translate(-591.683 -455.851)" fill="#4cc764"/><path d="M496.633,461.5a.227.227,0,0,0,.227-.227v-.845a.228.228,0,0,0-.227-.227h-2.275v-4.127a.228.228,0,0,0-.227-.227h-.845a.227.227,0,0,0-.227.227v5.195h0v0a.227.227,0,0,0,.227.227h3.347Z" transform="translate(-493.059 -455.851)" fill="#4cc764"/><rect width="1.3" height="5.654" rx="0.65" transform="translate(4.517)" fill="#4cc764"/><path d="M557.208,455.851h-.845a.227.227,0,0,0-.227.227v3.088l-2.379-3.212a.209.209,0,0,0-.018-.023v0l-.014-.014,0,0-.012-.01-.006,0-.012-.008-.007,0-.013-.007-.007,0-.013-.006-.007,0-.014,0-.008,0-.013,0-.01,0h-.872a.227.227,0,0,0-.228.227v5.2a.227.227,0,0,0,.228.227h.845a.227.227,0,0,0,.227-.227V458.19l2.382,3.216a.232.232,0,0,0,.059.057l0,0,.014.009.007,0,.011.005.011,0,.007,0,.016.005h0a.234.234,0,0,0,.059.008h.84a.227.227,0,0,0,.227-.227v-5.2A.227.227,0,0,0,557.208,455.851Z" transform="translate(-545.867 -455.851)" fill="#4cc764"/></g></g></g></svg>