<svg xmlns="http://www.w3.org/2000/svg" width="604.35" height="470.311" viewBox="0 0 604.35 470.311">
  <path id="ico_link" d="M579.8,267.7A144.6,144.6,0,0,0,393.5,47.8l-1.6,1.1a31.968,31.968,0,0,0,37.2,52l1.6-1.1A80.6,80.6,0,0,1,534.5,222.4L422.3,334.8A80.6,80.6,0,0,1,299.7,231l1.1-1.6a31.968,31.968,0,0,0-52-37.2l-1.1,1.6A144.519,144.519,0,0,0,467.5,380ZM60.2,244.3A144.6,144.6,0,0,0,246.5,464.2l1.6-1.1a31.968,31.968,0,0,0-37.2-52l-1.6,1.1A80.633,80.633,0,0,1,105.5,289.5L217.7,177.2A80.627,80.627,0,0,1,340.3,281.1l-1.1,1.6a31.968,31.968,0,1,0,52,37.2l1.1-1.6A144.551,144.551,0,0,0,172.5,132Z" transform="translate(-17.825 -20.845)"/>
</svg>
