<svg id="ico_slider_arrow" xmlns="http://www.w3.org/2000/svg" width="75.72" height="75.72" viewBox="0 0 75.72 75.72">
  <circle id="楕円形_14588" data-name="楕円形 14588" cx="37.86" cy="37.86" r="37.86" fill="#fff"/>
  <path id="楕円形_5303" data-name="楕円形 5303" d="M37.858,1.893A35.975,35.975,0,0,0,23.86,71a35.975,35.975,0,0,0,28-66.28,35.739,35.739,0,0,0-14-2.826m0-1.893A37.858,37.858,0,1,1,0,37.858,37.858,37.858,0,0,1,37.858,0Z"/>
  <path id="パス_148506" data-name="パス 148506" d="M-11555.084-2205.607h-40.635a.951.951,0,0,1-.949-.947.951.951,0,0,1,.949-.947h40.635a.947.947,0,0,1,.953.947A.947.947,0,0,1-11555.084-2205.607Z" transform="translate(11614.083 2243.965)"/>
  <path id="線_713" data-name="線 713" d="M11.013,13.125a.944.944,0,0,1-.7-.313L-.257,1.08A.946.946,0,0,1,1.15-.187L11.716,11.545a.946.946,0,0,1-.7,1.58Z" transform="translate(47.992 25.234)"/>
  <path id="線_714" data-name="線 714" d="M.446,13.125a.946.946,0,0,1-.7-1.58L10.31-.187A.946.946,0,0,1,11.716,1.08L1.15,12.812A.944.944,0,0,1,.446,13.125Z" transform="translate(47.992 36.965)"/>
</svg>
