<svg xmlns="http://www.w3.org/2000/svg" width="79" height="79" viewBox="0 0 79 79"><g transform="translate(2142 13413)"><circle cx="39.5" cy="39.5" r="39.5" transform="translate(-2142 -13413)" fill="#fff"/><path d="M39.5,1A38.51,38.51,0,0,0,24.514,74.975,38.51,38.51,0,0,0,54.486,4.025,38.258,38.258,0,0,0,39.5,1m0-1A39.5,39.5,0,1,1,0,39.5,39.5,39.5,0,0,1,39.5,0Z" transform="translate(-2142 -13413)"/><g transform="translate(0 3)"><path d="M11.008,15.949v-6.4q-.2.286-.39.533t-.4.468a3.688,3.688,0,0,0-.546-.462,3.573,3.573,0,0,0-.637-.37,6.77,6.77,0,0,0,.91-1.177,15.757,15.757,0,0,0,.852-1.54,15.838,15.838,0,0,0,.669-1.586,7.92,7.92,0,0,0,.364-1.313l1.482.338Q13.179,5,12.984,5.6T12.529,6.81V14a12.075,12.075,0,0,0,1.092-.715q.611-.442,1.209-.962a10.122,10.122,0,0,0,1.014-1H13.01V9.943h3.354V8.89H13.842V4.509h6.526V8.89h-2.5V9.943h3.367v1.378h-2.86q.338.364.78.761t.923.76q.481.364.936.663a9.284,9.284,0,0,0,.806.481,4.073,4.073,0,0,0-.514.572q-.267.351-.436.624a12.771,12.771,0,0,1-1.521-1.092,16.186,16.186,0,0,1-1.482-1.378v3.237H16.364V12.686A13.925,13.925,0,0,1,14.889,14.1a12.942,12.942,0,0,1-1.541,1.118,5.819,5.819,0,0,0-.371-.526,4.376,4.376,0,0,0-.448-.5v1.755Zm4.446-8.424h3.315V5.874H15.454Zm10.14,8.411V10.9q-.325.3-.682.572t-.747.52a2.814,2.814,0,0,0-.267-.416q-.176-.234-.371-.455a2.294,2.294,0,0,0-.377-.351,8.253,8.253,0,0,0,2.119-1.618,9.721,9.721,0,0,0,1.6-2.23H23.8V5.614h3.64q.143-.4.253-.806A5.9,5.9,0,0,0,27.856,4l1.56.208q-.078.364-.175.715t-.2.689h6.2V6.927H28.519a12.969,12.969,0,0,1-.637,1.216,11.873,11.873,0,0,1-.767,1.137v6.656Zm3.965-.013a6.367,6.367,0,0,0-.124-.754,4.6,4.6,0,0,0-.2-.715h1.144a.655.655,0,0,0,.377-.084.388.388,0,0,0,.117-.332V12.3H27.635V10.879h3.237V9.93h.455a4.007,4.007,0,0,0,.364-.312,4.705,4.705,0,0,0,.364-.377H28.3V7.889h5.915l.494.663q-.117.117-.423.4t-.682.611q-.377.332-.708.618t-.5.416v.286h3.055V12.3H32.393v2.3a1.2,1.2,0,0,1-.4,1.014,1.957,1.957,0,0,1-1.209.312Z" transform="translate(-2125 -13367)"/><path d="M0,0H18V21H0Z" transform="translate(-2112 -13399)" fill="#bddfb0"/><path d="M0,0H10.476l.271,2.956L.186,8.327Z" transform="translate(-2113 -13379)" fill="#bddfb0"/><path d="M10.523,0H.265L0,2.956,10.341,8.327Z" transform="translate(-2103.265 -13379)" fill="#bddfb0"/><path d="M28,4H12A3,3,0,0,0,9,7V35a1,1,0,0,0,1.515.857L20,30.166l9.485,5.691A1,1,0,0,0,31,35V7a3,3,0,0,0-3-3Zm1,29.234-8.485-5.091a1,1,0,0,0-1.029,0L11,33.234V7a1,1,0,0,1,1-1H28a1,1,0,0,1,1,1Z" transform="translate(-2123 -13405)"/></g><rect width="40" height="40" transform="translate(-2123 -13405)" fill="none"/></g></svg>