<?xml version="1.0" encoding="utf-8"?>
<!-- Generator: Adobe Illustrator 26.0.3, SVG Export Plug-In . SVG Version: 6.00 Build 0)  -->
<svg version="1.1" id="レイヤー_1" xmlns="http://www.w3.org/2000/svg" xmlns:xlink="http://www.w3.org/1999/xlink" x="0px"
	 y="0px" viewBox="0 0 22 22" style="enable-background:new 0 0 22 22;" xml:space="preserve">
<style type="text/css">
	.st0{fill:#FFFFFF;}
</style>
<path class="st0" d="M21.2,10.3h-9.5l0-9.5c0,0,0,0,0,0C11.7,0.4,11.4,0,11,0c0,0,0,0,0,0c-0.4,0-0.7,0.3-0.7,0.8l0,9.5H0.8
	c0,0,0,0,0,0C0.4,10.3,0,10.6,0,11c0,0.2,0.1,0.4,0.2,0.5c0.1,0.1,0.3,0.2,0.5,0.2h9.5l0,9.5c0,0.2,0.1,0.4,0.2,0.5
	c0.1,0.1,0.3,0.2,0.5,0.2c0,0,0,0,0,0c0.4,0,0.7-0.3,0.7-0.8l0-9.5h9.5c0,0,0,0,0,0c0.4,0,0.7-0.3,0.7-0.8c0,0,0,0,0,0
	C22,10.6,21.6,10.2,21.2,10.3z"/>
</svg>
