<svg xmlns="http://www.w3.org/2000/svg" width="36.592" height="29.739" viewBox="0 0 36.592 29.739"><path d="M1646.736,240.969a21.254,21.254,0,0,1-11.508-3.372,15.278,15.278,0,0,0,1.79.1,15.063,15.063,0,0,0,9.325-3.215,7.515,7.515,0,0,1-7.014-5.214,7.491,7.491,0,0,0,3.392-.128,7.51,7.51,0,0,1-6.024-7.36c0-.033,0-.064,0-.1a7.431,7.431,0,0,0,3.4.938,7.513,7.513,0,0,1-2.324-10.022,21.311,21.311,0,0,0,15.473,7.844,7.512,7.512,0,0,1,12.794-6.847,15.019,15.019,0,0,0,4.767-1.822,7.535,7.535,0,0,1-3.3,4.153,14.953,14.953,0,0,0,4.312-1.183,15.269,15.269,0,0,1-3.745,3.888c.014.322.022.646.022.97,0,9.92-7.552,21.361-21.361,21.361" transform="translate(-1635.229 -211.229)" fill="#1d9bf0"/></svg>