<?xml version="1.0" encoding="utf-8"?>
<!-- Generator: Adobe Illustrator 26.0.3, SVG Export Plug-In . SVG Version: 6.00 Build 0)  -->
<svg version="1.1" id="レイヤー_1" xmlns="http://www.w3.org/2000/svg" xmlns:xlink="http://www.w3.org/1999/xlink" x="0px"
	 y="0px" viewBox="0 0 22 22" style="enable-background:new 0 0 22 22;" xml:space="preserve">
<style type="text/css">
	.st0{fill:#FFFFFF;}
</style>
<path class="st0" d="M18.8,17.7L12.1,11l6.7-6.7c0,0,0,0,0,0c0.3-0.3,0.3-0.8,0-1.1c0,0,0,0,0,0c-0.3-0.3-0.8-0.3-1.1,0L11,9.9
	L4.3,3.2c0,0,0,0,0,0C4,2.9,3.5,2.9,3.2,3.2C3.1,3.4,3,3.6,3,3.8C3,4,3.1,4.2,3.2,4.3L9.9,11l-6.7,6.7C3.1,17.8,3,18,3,18.2
	c0,0.2,0.1,0.4,0.2,0.5c0,0,0,0,0,0c0.3,0.3,0.8,0.3,1.1,0l6.7-6.7l6.7,6.7c0,0,0,0,0,0c0.3,0.3,0.8,0.3,1.1,0c0,0,0,0,0,0
	C19.1,18.5,19.1,18,18.8,17.7z"/>
</svg>
