<svg xmlns="http://www.w3.org/2000/svg" width="24.824" height="26.914" viewBox="0 0 24.824 26.914"><g transform="translate(-1243.85 -2762.359)"><g transform="translate(416.255 2090.128)"><path d="M1342.553,2953.175h-17.226v.837h3.121v9.054h10.984v-9.054h3.121Zm-3.958,9.054h-9.31v-8.217h9.31Z" transform="translate(-493.933 -2264.07)" fill="#fff"/><path d="M1325.176,2953.025H1342.7v1.137h-3.121v9.054H1328.3v-9.054h-3.121Zm17.226.3h-16.926v.537h3.121v9.054h10.684v-9.054h3.121Zm-13.268.537h9.61v8.517h-9.61Zm9.31.3h-9.01v7.917h9.01Z" transform="translate(-493.933 -2264.07)" fill="#fff"/><g transform="translate(827.745 672.381)"><path d="M850.487,679.5h-1.781v-5.83a1.289,1.289,0,0,0-1.287-1.287H832.6a1.288,1.288,0,0,0-1.287,1.287v5.83h-1.781a1.784,1.784,0,0,0-1.782,1.782v9.65a1.784,1.784,0,0,0,1.782,1.782h3.8v-.837h-3.8a.946.946,0,0,1-.945-.945v-9.65a.946.946,0,0,1,.945-.945h20.96a.946.946,0,0,1,.945.945v9.65a.946.946,0,0,1-.945.945h-3.8v.837h3.8a1.784,1.784,0,0,0,1.782-1.782v-9.65A1.784,1.784,0,0,0,850.487,679.5Zm-18.341-5.83a.45.45,0,0,1,.45-.45h14.823a.45.45,0,0,1,.45.45v5.83H832.146Z" transform="translate(-827.745 -672.381)" fill="#fff"/><path d="M832.6,672.231h14.823a1.439,1.439,0,0,1,1.437,1.437v5.68h1.631a1.934,1.934,0,0,1,1.932,1.932v9.65a1.934,1.934,0,0,1-1.932,1.932h-3.95v-1.137h3.95a.8.8,0,0,0,.795-.795v-9.65a.8.8,0,0,0-.795-.795h-20.96a.8.8,0,0,0-.795.795v9.65a.8.8,0,0,0,.795.795h3.95v1.137h-3.95a1.934,1.934,0,0,1-1.932-1.932v-9.65a1.934,1.934,0,0,1,1.932-1.932h1.631v-5.68A1.439,1.439,0,0,1,832.6,672.231Zm17.891,20.331a1.634,1.634,0,0,0,1.632-1.632v-9.65a1.634,1.634,0,0,0-1.632-1.632h-1.932v-5.98a1.138,1.138,0,0,0-1.137-1.137H832.6a1.138,1.138,0,0,0-1.137,1.137v5.98h-1.932a1.634,1.634,0,0,0-1.632,1.632v9.65a1.634,1.634,0,0,0,1.632,1.632h3.65v-.537h-3.65a1.1,1.1,0,0,1-1.095-1.095v-9.65a1.1,1.1,0,0,1,1.095-1.095h20.96a1.1,1.1,0,0,1,1.095,1.095v9.65a1.1,1.1,0,0,1-1.095,1.095h-3.65v.537ZM832.6,673.068h14.823a.6.6,0,0,1,.6.6v5.98H832v-5.98A.6.6,0,0,1,832.6,673.068Zm15.122,6.28v-5.68a.3.3,0,0,0-.3-.3H832.6a.3.3,0,0,0-.3.3v5.68Z" transform="translate(-827.745 -672.381)" fill="#fff"/><g transform="translate(16.374 8.861)"><path d="M3493.508,1883.378a1.253,1.253,0,1,1,1.252-1.253A1.254,1.254,0,0,1,3493.508,1883.378Zm0-1.668a.415.415,0,1,0,.415.415A.416.416,0,0,0,3493.508,1881.71Z" transform="translate(-3489.092 -1880.873)" fill="#fff"/><path d="M3493.508,1883.528a1.4,1.4,0,1,1,1.4-1.4A1.4,1.4,0,0,1,3493.508,1883.528Zm0-2.505a1.1,1.1,0,1,0,1.1,1.1A1.1,1.1,0,0,0,3493.508,1881.023Zm0,1.668a.565.565,0,1,1,.565-.565A.566.566,0,0,1,3493.508,1882.691Zm0-.831a.265.265,0,1,0,.265.265A.266.266,0,0,0,3493.508,1881.86Z" transform="translate(-3489.092 -1880.873)" fill="#fff"/><path d="M3062.067,1883.378a1.253,1.253,0,1,1,1.253-1.253A1.254,1.254,0,0,1,3062.067,1883.378Zm0-1.668a.415.415,0,1,0,.415.415A.416.416,0,0,0,3062.067,1881.71Z" transform="translate(-3060.814 -1880.873)" fill="#fff"/><path d="M3062.067,1883.528a1.4,1.4,0,1,1,1.4-1.4A1.4,1.4,0,0,1,3062.067,1883.528Zm0-2.505a1.1,1.1,0,1,0,1.1,1.1A1.1,1.1,0,0,0,3062.067,1881.023Zm0,1.668a.565.565,0,1,1,.565-.565A.566.566,0,0,1,3062.067,1882.691Zm0-.831a.265.265,0,1,0,.265.265A.266.266,0,0,0,3062.067,1881.86Z" transform="translate(-3060.814 -1880.873)" fill="#fff"/></g></g></g></g></svg>