<?xml version="1.0" encoding="UTF-8"?><svg id="_レイヤー_2" xmlns="http://www.w3.org/2000/svg" viewBox="0 0 325.7 49.02"><defs><style>.cls-1{fill:#231815;}</style></defs><g id="_レイヤー_1-2"><path class="cls-1" d="m49.87,46.34v-10.93h3.67c.73,0,1.31.06,1.74.18.43.12.8.33,1.12.62.68.63,1.02,1.37,1.02,2.23,0,1.06-.48,1.79-1.45,2.16.52.14.94.43,1.26.87.32.44.48.95.48,1.53,0,.9-.31,1.69-.94,2.37-.6.65-1.48.97-2.63.97h-4.28Zm1.6-6.44h2.41c.73,0,1.24-.14,1.51-.42.29-.29.43-.62.43-1,0-.49-.19-.88-.58-1.17-.39-.29-.92-.43-1.59-.43h-2.19v3.02Zm0,4.98h2.45c.69,0,1.23-.16,1.62-.48.39-.32.58-.77.58-1.35,0-.52-.19-.95-.57-1.31-.35-.33-.91-.5-1.7-.5h-2.38v3.65Z"/><path class="cls-1" d="m64.52,38.13c1.29,0,2.27.39,2.94,1.16.3.36.55.81.74,1.36.19.55.29,1.09.29,1.63,0,1.22-.37,2.22-1.11,3.01-.74.79-1.69,1.18-2.84,1.18s-2.14-.38-2.86-1.16c-.72-.77-1.08-1.79-1.08-3.05s.36-2.25,1.08-3.01c.72-.76,1.67-1.14,2.85-1.14m.09,1.17c-.76,0-1.37.27-1.81.81-.44.54-.66,1.26-.66,2.18s.22,1.67.65,2.21c.43.54,1.02.82,1.76.82s1.32-.27,1.76-.8c.43-.53.65-1.25.65-2.15,0-.96-.21-1.71-.62-2.25-.41-.54-.99-.81-1.72-.81"/><path class="cls-1" d="m75.43,35.85v2.33h3.03v1.31h-3.03v4.22c0,.46.1.82.31,1.07.21.25.5.38.87.38.28,0,.59-.06.95-.19.36-.12.66-.28.9-.45v1.49c-.48.31-1.11.47-1.89.47-.86,0-1.52-.25-1.97-.74-.45-.5-.68-1.22-.68-2.17v-4.07h-1.67v-1.31h1.67v-1.9l1.5-.42Z"/><path class="cls-1" d="m87.95,41.28v-.69c0-.84-.52-1.26-1.55-1.26-.97,0-1.57.31-1.79.94h-1.6c.07-1.43,1.2-2.14,3.39-2.14,1.09,0,1.87.23,2.33.7.47.46.71,1.23.71,2.3v5.21h-1.5v-.81c-.68.63-1.47.95-2.39.95s-1.59-.23-2.12-.67c-.53-.45-.79-1.04-.79-1.79,0-.84.32-1.5.97-2,.65-.5,1.52-.74,2.6-.74h1.72Zm0,1.22h-1.95c-.54,0-.98.13-1.31.39-.33.26-.5.6-.5,1.03,0,.39.13.72.39.98.26.26.6.39,1.01.39.66,0,1.22-.22,1.67-.65.46-.43.68-.96.68-1.59v-.54Z"/><path class="cls-1" d="m93.75,38.27h1.51v.92c.7-.71,1.58-1.06,2.63-1.06.91,0,1.64.27,2.19.81.55.54.82,1.25.82,2.15v5.25h-1.5v-5.37c0-.48-.15-.85-.44-1.12-.29-.27-.71-.4-1.24-.4-.74,0-1.33.23-1.78.69-.45.46-.68,1.06-.68,1.81v4.39h-1.51v-8.07Z"/><path class="cls-1" d="m105.48,38.27h4.19v8.07h-1.59v-6.55h-2.59v-1.52Zm1.91-3.69h2.28v2.02h-2.28v-2.02Z"/><path class="cls-1" d="m122.64,40.42h-1.63c-.23-.64-.69-.97-1.37-.97-1.37,0-2.05.95-2.05,2.85,0,.92.17,1.63.51,2.12.34.49.83.74,1.46.74.38,0,.7-.12.98-.36.28-.24.44-.53.47-.89h1.63c-.03.75-.34,1.36-.91,1.84-.58.48-1.29.72-2.15.72-1.03,0-1.83-.3-2.4-.92-.34-.36-.62-.84-.82-1.43-.2-.59-.3-1.21-.3-1.84,0-1.24.33-2.24.99-3.01.66-.77,1.52-1.15,2.58-1.15.84,0,1.52.2,2.05.6.53.4.85.96.97,1.68"/><path class="cls-1" d="m131.67,41.28v-.69c0-.84-.52-1.26-1.55-1.26-.97,0-1.57.31-1.79.94h-1.6c.07-1.43,1.2-2.14,3.39-2.14,1.09,0,1.87.23,2.33.7.47.46.71,1.23.71,2.3v5.21h-1.5v-.81c-.68.63-1.47.95-2.39.95s-1.58-.23-2.11-.67c-.53-.45-.79-1.04-.79-1.79,0-.84.32-1.5.97-2,.65-.5,1.52-.74,2.6-.74h1.72Zm0,1.22h-1.95c-.54,0-.98.13-1.31.39-.33.26-.49.6-.49,1.03,0,.39.13.72.39.98.26.26.6.39,1.01.39.66,0,1.22-.22,1.67-.65.46-.43.68-.96.68-1.59v-.54Z"/><path class="cls-1" d="m140.68,34.58v8.82c0,1.08.59,1.63,1.77,1.63h1.28v1.31h-1.72c-.99,0-1.71-.27-2.16-.8-.45-.53-.67-1.38-.67-2.55v-8.41h1.5Z"/><polygon class="cls-1" points="161.38 44.88 167.04 44.88 167.04 46.34 159.79 46.34 159.79 35.41 161.38 35.41 161.38 44.88"/><path class="cls-1" d="m171.05,38.27h4.19v8.07h-1.59v-6.55h-2.59v-1.52Zm1.91-3.69h2.28v2.02h-2.28v-2.02Z"/><path class="cls-1" d="m185.39,38.27h2.39v1.31h-2.39v6.76h-1.5v-6.76h-2.34v-1.31h2.34v-.69c0-.96.25-1.69.74-2.21.5-.53,1.2-.79,2.11-.79h1.06v1.33h-.83c-1.05,0-1.58.52-1.58,1.57v.79Z"/><path class="cls-1" d="m199.29,42.63h-5.58v.28c0,.66.22,1.2.66,1.62.45.42,1.02.63,1.72.63.59,0,1.01-.19,1.26-.57h1.65c-.06.61-.34,1.08-.86,1.4-.52.32-1.24.49-2.16.49-1.23,0-2.19-.37-2.88-1.1-.68-.73-1.03-1.76-1.03-3.09,0-1.11.29-2.07.88-2.88.63-.85,1.57-1.27,2.83-1.27,1.16,0,2.04.34,2.63,1.02.6.68.9,1.68.9,3,0,.09,0,.25-.03.47m-1.59-1.31c0-.55-.18-1-.53-1.34-.35-.34-.82-.51-1.39-.51s-1.04.17-1.42.5c-.38.34-.59.79-.66,1.35h4Z"/><path class="cls-1" d="m220.9,38.12h-1.61c0-.44-.14-.78-.43-1.02-.29-.24-.69-.36-1.22-.36-.49,0-.9.13-1.21.4-.32.27-.47.61-.47,1.02,0,.56.38,1.03,1.15,1.4l1.29.62c.94.45,1.61.92,2.01,1.42.4.5.6,1.1.6,1.82,0,.88-.33,1.61-.98,2.19-.66.58-1.49.86-2.49.86s-1.78-.27-2.45-.81c-.67-.55-1-1.21-1-2,0-.06,0-.17.02-.32h1.57c.03.51.21.92.55,1.21.33.3.77.45,1.3.45s.98-.15,1.34-.46c.36-.31.54-.68.54-1.13s-.18-.8-.54-1.13c-.36-.32-.99-.69-1.91-1.09-.97-.43-1.65-.86-2.03-1.29-.38-.43-.58-.98-.58-1.64,0-.88.32-1.59.96-2.15.64-.56,1.45-.84,2.45-.84.85,0,1.58.26,2.21.77.62.52.94,1.12.94,1.83v.24Z"/><path class="cls-1" d="m232.09,38.27v10.75h-1.51v-3.51c-.64.65-1.43.97-2.38.97-1.09,0-1.96-.38-2.63-1.14-.66-.76-1-1.76-1-3,0-.65.12-1.29.37-1.93.25-.64.56-1.12.93-1.45.64-.56,1.41-.84,2.31-.84s1.66.32,2.39.96v-.82h1.51Zm-3.72,1.18c-.7,0-1.25.25-1.65.74-.4.5-.59,1.18-.59,2.07,0,1.93.73,2.9,2.2,2.9.73,0,1.29-.25,1.68-.76.39-.51.59-1.24.59-2.19,0-.85-.2-1.52-.59-2.02-.4-.49-.94-.74-1.62-.74"/><path class="cls-1" d="m242.95,38.27v8.07h-1.51v-.93c-.72.71-1.67,1.07-2.83,1.07-.84,0-1.52-.25-2.02-.75-.51-.5-.76-1.17-.76-2.02v-5.44h1.51v5.44c0,.96.53,1.45,1.6,1.45.75,0,1.37-.24,1.85-.73.44-.44.66-1.07.66-1.89v-4.27h1.51Z"/><path class="cls-1" d="m251.89,41.28v-.69c0-.84-.52-1.26-1.55-1.26-.97,0-1.57.31-1.79.94h-1.6c.07-1.43,1.2-2.14,3.39-2.14,1.09,0,1.86.23,2.33.7.47.46.71,1.23.71,2.3v5.21h-1.5v-.81c-.68.63-1.47.95-2.39.95s-1.58-.23-2.11-.67c-.53-.45-.79-1.04-.79-1.79,0-.84.32-1.5.97-2,.65-.5,1.52-.74,2.6-.74h1.72Zm0,1.22h-1.95c-.54,0-.98.13-1.31.39-.33.26-.5.6-.5,1.03,0,.39.13.72.39.98.26.26.6.39,1.01.39.66,0,1.22-.22,1.67-.65.46-.43.68-.96.68-1.59v-.54Z"/><path class="cls-1" d="m258.63,38.27h1.5v.92c.6-.71,1.33-1.06,2.19-1.06.71,0,1.3.22,1.75.68.45.45.68,1.04.68,1.75,0,.06,0,.16-.02.3h-1.57c0-.09,0-.17,0-.22,0-.38-.1-.69-.3-.93-.2-.24-.46-.36-.79-.36-.59,0-1.1.27-1.5.82-.3.4-.45,1.01-.45,1.83v4.35h-1.5v-8.07Z"/><path class="cls-1" d="m275.8,42.63h-5.58v.28c0,.66.22,1.2.66,1.62.45.42,1.02.63,1.72.63.59,0,1.01-.19,1.26-.57h1.65c-.06.61-.34,1.08-.86,1.4-.52.32-1.24.49-2.16.49-1.23,0-2.19-.37-2.88-1.1-.68-.73-1.03-1.76-1.03-3.09,0-1.11.29-2.07.88-2.88.63-.85,1.57-1.27,2.83-1.27,1.16,0,2.04.34,2.63,1.02.6.68.9,1.68.9,3,0,.09,0,.25-.02.47m-1.59-1.31c0-.55-.18-1-.53-1.34-.35-.34-.82-.51-1.39-.51s-1.04.17-1.42.5c-.38.34-.59.79-.66,1.35h4Z"/><path class="cls-1" d="m3.36,18.72c-.35.55-.86.8-1.52.8-.52,0-.95-.17-1.29-.52-.37-.35-.55-.78-.55-1.29,0-.37.11-.69.32-1.01l2.13-3.33c.34-.55.86-.81,1.52-.81.52,0,.95.17,1.29.52.35.35.52.78.52,1.29,0,.37-.09.72-.29,1.04l-2.13,3.31Zm16.17-9.81c-.37.34-.81.55-1.29.55h-5.55l-.09.09v13.78c0,.52-.17.98-.55,1.32-.34.37-.8.54-1.32.54h-2.73c-.49,0-.92-.17-1.29-.54-.35-.34-.52-.78-.52-1.29s.17-.95.52-1.29c.37-.35.81-.52,1.29-.52h.86l.09-.09v-11.91l-.09-.09H2.85c-.52,0-.95-.2-1.29-.55-.37-.37-.55-.81-.55-1.32,0-.49.17-.92.55-1.29.35-.35.78-.52,1.29-.52h6.01l.09-.08v-3.22c0-.49.17-.92.55-1.29.35-.34.78-.52,1.29-.52s.95.17,1.29.52c.34.37.52.81.52,1.29v3.22l.09.08h5.55c.49,0,.92.17,1.29.52.34.37.52.81.52,1.29,0,.52-.17.95-.52,1.32m1.44,8.71c0,.49-.17.92-.52,1.3-.34.34-.78.52-1.29.52-.6,0-1.09-.23-1.47-.72l-2.3-3.05c-.23-.32-.37-.66-.37-1.09,0-.52.2-.95.55-1.29.35-.34.81-.52,1.32-.52.6,0,1.09.23,1.46.72l2.27,3.05c.23.32.35.66.35,1.09m-3.22-13.06c-.23.2-.49.32-.81.32s-.6-.12-.8-.32c-.23-.23-.35-.52-.35-.83v-1.41c0-.34.12-.6.35-.83.2-.23.49-.32.8-.32s.58.09.81.32c.2.23.32.49.32.83v1.41c0,.31-.12.6-.32.83m3.02,0c-.2.2-.49.32-.81.32s-.57-.12-.8-.32c-.23-.23-.35-.52-.35-.83v-1.41c0-.34.11-.6.35-.83.23-.23.49-.32.8-.32s.6.09.81.32c.23.23.32.49.32.83v1.41c0,.31-.09.6-.32.83"/><path class="cls-1" d="m46.27,8.97c0,1.67-.12,2.93-.32,3.83-.26,1.12-.81,2.33-1.61,3.59-1.78,2.85-3.88,5.84-6.24,8.97-.31.46-.81.69-1.38.69s-1.01-.17-1.35-.55c-.37-.35-.55-.81-.55-1.35,0-.43.14-.8.43-1.18,2.96-3.83,5-6.67,6.13-8.51.52-.86.86-1.73,1.04-2.59.11-.69.2-1.61.2-2.82v-1.12l-.09-.06h-6.3l-.11.06-2.65,4.83c-.35.63-.89.95-1.58.95-.32,0-.63-.09-.89-.23-.63-.35-.95-.89-.95-1.61,0-.32.09-.6.23-.89l5.38-9.89c.35-.63.89-.95,1.61-.95.31,0,.63.08.89.23.63.35.95.86.95,1.61,0,.32-.08.6-.23.89l-.69,1.24.03.09h6.18c.52,0,.98.17,1.32.55.35.37.55.8.55,1.32v2.9Zm-5.49,5.61c-.35.35-.78.52-1.3.52h-3.19c-.49,0-.89-.17-1.27-.52-.35-.35-.52-.78-.52-1.27s.17-.89.52-1.24c.37-.34.78-.52,1.27-.52h3.19c.52,0,.95.17,1.3.49.35.35.52.78.52,1.27,0,.52-.17.95-.52,1.27"/><path class="cls-1" d="m74.9,21.94c-.37.38-.81.55-1.29.55h-15.24c-.49,0-.92-.17-1.29-.55-.34-.34-.52-.78-.52-1.29s.17-.92.52-1.29c.37-.37.81-.55,1.29-.55h15.24c.49,0,.92.17,1.29.55.35.37.52.81.52,1.29,0,.52-.17.95-.52,1.29m-1.58-13.52c-.35.37-.78.55-1.29.55h-12.08c-.49,0-.95-.17-1.29-.55-.37-.34-.54-.78-.54-1.27,0-.52.17-.95.54-1.32.35-.37.81-.54,1.29-.54h12.08c.52,0,.95.17,1.29.54.35.37.52.81.52,1.32s-.17.92-.52,1.27"/><path class="cls-1" d="m102.59,23.35c0,.52-.2.95-.55,1.29-.37.34-.81.52-1.32.52h-2.73c-.49,0-.92-.17-1.26-.52-.35-.35-.52-.78-.52-1.29s.17-.95.52-1.3c.34-.34.77-.52,1.26-.52h.95l.09-.09c.14-3.8.23-7.71.23-11.79l-.09-.09h-4.63l-.09.03c-.14.86-.32,1.55-.49,2.13-1.24,3.88-2.88,8.17-4.86,12.8-.32.72-.89,1.09-1.67,1.09-.52,0-.98-.17-1.32-.55-.37-.37-.55-.81-.55-1.32,0-.29.03-.55.15-.78,2.56-6.07,4.17-10.12,4.77-12.17.06-.23.14-.63.23-1.18l-.06-.06h-3.08c-.52,0-.95-.2-1.29-.55-.37-.34-.58-.78-.58-1.29s.2-.95.58-1.29c.34-.37.78-.55,1.29-.55h3.51l.09-.09v-3.02c0-.49.17-.92.52-1.29.37-.35.81-.52,1.29-.52.52,0,.95.17,1.29.52.37.37.55.8.55,1.29v3.02l.08.09h6.1c.49,0,.92.17,1.29.55.37.35.54.78.54,1.29,0,6.24-.08,11.44-.26,15.62"/><path class="cls-1" d="m119.03,17.54c-.4,1.52-1.06,3.51-2.01,6.01-.29.78-.86,1.15-1.67,1.15-.52,0-.95-.17-1.32-.55-.35-.37-.55-.81-.55-1.35,0-.23.06-.46.11-.66.75-1.95,1.38-3.88,1.9-5.78.43-1.64.69-3.42.72-5.38.03-.6.03-2.65,0-6.15,0-.49.17-.92.55-1.27.34-.37.78-.54,1.27-.54.52,0,.95.17,1.32.54.37.35.54.78.54,1.27.03,3.54.03,5.64,0,6.27-.06,2.27-.35,4.43-.86,6.44m15.19,2.24c-2.45,2.13-5.38,3.68-8.83,4.66-.17.06-.35.09-.52.09-.46,0-.83-.14-1.15-.43-.31-.26-.49-.66-.49-1.15V3.68c0-.49.17-.92.54-1.29.38-.37.81-.54,1.32-.54s.92.17,1.27.54c.37.38.55.81.55,1.29v16.34l.08.06c1.64-.69,3.22-1.67,4.75-2.96.37-.32.81-.46,1.29-.46s.92.17,1.26.55c.35.34.49.78.49,1.26,0,.55-.17.98-.57,1.32"/><path class="cls-1" d="m157.59,15.76c-.81,1.99-3.17,5.03-7.11,9.23-.34.37-.78.55-1.26.55-.55,0-.98-.17-1.32-.55-.37-.37-.55-.83-.55-1.35,0-.49.17-.92.55-1.29,1.93-2.1,3.36-3.65,4.23-4.69.95-1.12,1.61-2.07,1.96-2.79.4-.92.63-2.01.66-3.25l-.09-.09h-11.56c-.52,0-.95-.17-1.32-.54-.37-.38-.58-.81-.58-1.32,0-.49.17-.92.55-1.29.35-.35.78-.52,1.3-.52h13.43c.54,0,.98.17,1.35.55s.54.81.54,1.32c0,2.73-.26,4.75-.77,6.04m-.26-11.19c-.37.35-.81.52-1.3.52h-11.99c-.52,0-.95-.17-1.29-.52-.35-.37-.55-.8-.55-1.29,0-.52.2-.95.55-1.29.34-.37.78-.55,1.29-.55h11.99c.49,0,.92.17,1.3.55.35.34.52.78.52,1.29s-.17.92-.52,1.29"/><path class="cls-1" d="m184.3,5.26c-.95.83-2.13,1.75-3.57,2.76l-.06.15v15.19c0,.52-.17.95-.52,1.29-.37.35-.8.52-1.29.52-.52,0-.95-.17-1.29-.52-.37-.35-.55-.78-.55-1.29v-12.68l-.09-.06c-1.67,1.01-3.37,2.04-5.06,3.08-.31.2-.63.29-.95.29-.69,0-1.21-.32-1.52-.92-.17-.32-.26-.63-.26-.95,0-.75.32-1.29.95-1.67,5.23-3.11,9.14-5.75,11.73-7.97.37-.29.78-.43,1.24-.43.52,0,.95.17,1.32.55.35.37.55.8.55,1.29,0,.58-.2,1.03-.63,1.38"/><path class="cls-1" d="m213.65,9.72c-.11,1.73-.4,3.16-.92,4.34-.78,1.84-3.39,5.18-7.85,10.01-.35.37-.78.57-1.32.57s-.98-.17-1.32-.52c-.35-.35-.52-.78-.52-1.32,0-.46.17-.86.49-1.24,1.61-1.75,3.51-3.88,5.61-6.39,1.35-1.58,2.1-3.48,2.21-5.72.06-.6.06-1.5.06-2.65l-.09-.12h-11.07c-.52,0-.95-.17-1.29-.55-.37-.34-.55-.78-.55-1.29,0-.49.17-.92.55-1.29.34-.35.78-.52,1.29-.52h12.94c.52,0,.95.17,1.32.55.37.37.55.83.55,1.35,0,2.36-.03,3.94-.09,4.77"/><path class="cls-1" d="m242.59,22.89c0,.55-.17.98-.52,1.32-.35.37-.78.55-1.29.55-.57,0-1.04-.23-1.41-.66l-5.75-6.56h-.11c-1.35,1.47-3.54,3.8-6.59,6.93-.35.35-.78.55-1.29.55s-.95-.2-1.32-.55c-.34-.37-.52-.83-.52-1.35s.17-.98.55-1.35c5.46-5.49,8.74-9.03,9.83-10.61.83-1.18,1.27-2.33,1.32-3.42.03-.37.03-.92.03-1.64l-.09-.06h-8.11c-.52,0-.95-.17-1.32-.55-.34-.34-.55-.78-.55-1.29s.2-.95.55-1.29c.37-.34.81-.52,1.32-.52h10.01c.52,0,.95.17,1.32.55.37.35.55.8.55,1.32,0,1.96,0,3.13-.03,3.48-.08,1.38-.4,2.65-1.01,3.8-.4.75-1.15,1.78-2.22,3.13l.03.12,6.16,6.93c.31.35.46.75.46,1.18"/><path class="cls-1" d="m267.43,9.12c0,1.52-.12,2.82-.37,3.83-.26,1.01-.78,2.16-1.52,3.48-.72,1.32-2.76,4.26-6.13,8.77-.34.49-.83.75-1.46.75-.49,0-.92-.2-1.27-.55-.35-.37-.52-.8-.52-1.32,0-.4.12-.78.37-1.09.6-.8,1.7-2.27,3.31-4.4,2.07-2.79,3.31-4.95,3.71-6.47.17-.69.26-1.7.26-2.99v-1.12l-.06-.08h-6.44l-.11.06-2.71,4.75c-.34.6-.86.92-1.55.92-.34,0-.63-.08-.95-.26-.61-.34-.92-.86-.92-1.55,0-.32.08-.63.26-.95l5.61-9.92c.37-.63.89-.95,1.61-.95.31,0,.63.08.92.26.63.35.92.86.92,1.58,0,.29-.08.6-.23.89l-.83,1.44.06.06h6.18c.52,0,.98.17,1.32.55.37.38.55.81.55,1.32v3.02Z"/><path class="cls-1" d="m295.59,22.69c-.35.37-.78.55-1.29.55h-14.03c-.52,0-.95-.17-1.3-.55-.34-.37-.54-.81-.54-1.29,0-.52.2-.95.54-1.29.35-.37.78-.55,1.3-.55h5l.09-.09v-11.13l-.09-.08h-4.46c-.49,0-.92-.2-1.29-.55-.35-.35-.52-.78-.52-1.29,0-.49.17-.92.52-1.29.37-.34.8-.52,1.29-.52h13.03c.49,0,.92.17,1.27.52.37.37.54.81.54,1.29,0,.52-.17.95-.54,1.29-.35.35-.78.55-1.27.55h-4.6l-.09.08v11.13l.09.09h5.06c.52,0,.95.17,1.29.55.35.34.55.78.55,1.29s-.2.92-.55,1.29"/><path class="cls-1" d="m320.35,11.96c-.37.43-.86.66-1.44.66-.49,0-.92-.2-1.29-.58-.35-.37-.52-.8-.52-1.29s.14-.92.49-1.24c1.29-1.35,2.24-2.47,2.82-3.33l-.03-.09h-12.31c-.49,0-.92-.17-1.26-.52-.37-.37-.55-.81-.55-1.29,0-.52.17-.95.55-1.29.35-.35.78-.55,1.26-.55h15.88c.52,0,.92.17,1.27.49.31.29.49.69.49,1.18,0,.26-.06.49-.17.69-1.21,2.33-2.93,4.72-5.18,7.16m-3.74,1.55c-.03,1.58-.23,3.16-.57,4.77-.29,1.32-.83,3.22-1.64,5.72-.26.83-.84,1.24-1.7,1.24-.55,0-.98-.17-1.35-.55-.38-.37-.58-.83-.58-1.35,0-.2.03-.4.11-.6.78-2.33,1.27-3.97,1.53-4.92.29-1.24.46-2.59.52-4.06.03-.37.03-1.52,0-3.42,0-.52.17-.98.52-1.35.38-.35.81-.55,1.32-.55s.95.2,1.32.55c.35.34.52.81.52,1.32v3.19Z"/></g></svg>